<svg width="60" height="61" viewBox="0 0 60 61" fill="none" xmlns="http://www.w3.org/2000/svg">
<circle cx="30" cy="30.5342" r="29" stroke="#8BBD43" stroke-width="2"/>
<path d="M38.75 29.2842H23.925L28.4625 23.8342C28.6747 23.5789 28.7768 23.2498 28.7463 22.9193C28.7158 22.5887 28.5553 22.2838 28.3 22.0717C28.0447 21.8595 27.7156 21.7574 27.3851 21.7879C27.0546 21.8184 26.7497 21.9789 26.5375 22.2342L20.2875 29.7342C20.2455 29.7938 20.2078 29.8565 20.175 29.9217C20.175 29.9842 20.175 30.0217 20.0875 30.0842C20.0308 30.2275 20.0012 30.38 20 30.5342C20.0012 30.6883 20.0308 30.8408 20.0875 30.9842C20.0875 31.0467 20.0875 31.0842 20.175 31.1467C20.2078 31.2118 20.2455 31.2745 20.2875 31.3342L26.5375 38.8342C26.655 38.9753 26.8022 39.0887 26.9686 39.1665C27.1349 39.2443 27.3164 39.2845 27.5 39.2842C27.7921 39.2847 28.0751 39.183 28.3 38.9967C28.4266 38.8917 28.5312 38.7628 28.6079 38.6174C28.6846 38.472 28.7318 38.3128 28.7469 38.1491C28.762 37.9854 28.7447 37.8203 28.6959 37.6633C28.6471 37.5063 28.5678 37.3605 28.4625 37.2342L23.925 31.7842H38.75C39.0815 31.7842 39.3995 31.6525 39.6339 31.418C39.8683 31.1836 40 30.8657 40 30.5342C40 30.2026 39.8683 29.8847 39.6339 29.6503C39.3995 29.4159 39.0815 29.2842 38.75 29.2842Z" fill="#8BBD43"/>
</svg>
