<svg xmlns="http://www.w3.org/2000/svg" width="27.273" height="27.273" viewBox="0 0 27.273 27.273"><defs><style>.a{fill:#f86f1f;}</style></defs><g transform="translate(-2 -2)"><path class="a" d="M17.2,29.273H14.069a.779.779,0,0,1-.775-.692l-.173-1.532a11.546,11.546,0,0,1-3.779-1.564l-1.2.96A.779.779,0,0,1,7.1,26.388L4.886,24.169a.779.779,0,0,1-.058-1.037l.96-1.2a11.546,11.546,0,0,1-1.564-3.779l-1.532-.173A.779.779,0,0,1,2,17.2V14.069a.779.779,0,0,1,.692-.775l1.532-.173A11.546,11.546,0,0,1,5.788,9.342l-.96-1.2A.779.779,0,0,1,4.886,7.1L7.1,4.886a.779.779,0,0,1,1.037-.058l1.2.96a11.546,11.546,0,0,1,3.779-1.564L13.3,2.692A.779.779,0,0,1,14.069,2H17.2a.779.779,0,0,1,.775.692l.173,1.532a11.546,11.546,0,0,1,3.779,1.564l1.2-.96a.779.779,0,0,1,1.037.058L26.388,7.1a.779.779,0,0,1,.058,1.037l-.96,1.2a11.546,11.546,0,0,1,1.564,3.779l1.532.173a.779.779,0,0,1,.692.772V17.2a.779.779,0,0,1-.692.775l-1.532.173a11.546,11.546,0,0,1-1.564,3.779l.96,1.2a.779.779,0,0,1-.058,1.037l-2.218,2.216a.779.779,0,0,1-1.037.058l-1.2-.96a11.546,11.546,0,0,1-3.779,1.564l-.173,1.532A.779.779,0,0,1,17.2,29.273ZM9.322,24.616a.39.39,0,0,1,.218.067,10.793,10.793,0,0,0,4.011,1.66.39.39,0,0,1,.312.339l.206,1.813H17.2l.2-1.813a.39.39,0,0,1,.312-.339,10.792,10.792,0,0,0,4.013-1.66.39.39,0,0,1,.461.018l1.425,1.136,2.217-2.217L24.7,22.195a.39.39,0,0,1-.018-.461,10.792,10.792,0,0,0,1.66-4.013.39.39,0,0,1,.339-.312l1.812-.2V14.069l-1.813-.2a.39.39,0,0,1-.339-.312,10.792,10.792,0,0,0-1.66-4.011A.39.39,0,0,1,24.7,9.08l1.136-1.425L23.62,5.436,22.195,6.573a.39.39,0,0,1-.461.018,10.793,10.793,0,0,0-4.013-1.66.39.39,0,0,1-.312-.339l-.2-1.813H14.069l-.2,1.813a.39.39,0,0,1-.312.339,10.792,10.792,0,0,0-4.011,1.66.39.39,0,0,1-.461-.018L7.654,5.436,5.436,7.654,6.573,9.079a.39.39,0,0,1,.018.461,10.793,10.793,0,0,0-1.66,4.011.39.39,0,0,1-.339.312l-1.813.206V17.2l1.813.2a.39.39,0,0,1,.339.312,10.792,10.792,0,0,0,1.66,4.013.39.39,0,0,1-.018.461L5.436,23.62l2.217,2.217L9.079,24.7A.39.39,0,0,1,9.322,24.616Z"/><path class="a" d="M53.27,26.179a.39.39,0,0,1-.351-.219,6.372,6.372,0,0,0-.595-.98.39.39,0,0,1,.627-.463,7.176,7.176,0,0,1,.668,1.1.39.39,0,0,1-.351.561Z" transform="translate(-30.671 -13.648)"/><path class="a" d="M24.182,32.364a8.192,8.192,0,0,1-6.689-3.473A8.106,8.106,0,0,1,16,24.182,8.191,8.191,0,0,1,24.182,16q.221,0,.443.012a.39.39,0,0,1-.044.779c-.133-.009-.266-.012-.4-.012a7.411,7.411,0,0,0-7.4,7.4,7.4,7.4,0,0,0,14.806,0c0-.087,0-.174-.007-.261a.39.39,0,0,1,.777-.062c.009.108.009.215.009.323a8.111,8.111,0,0,1-1.493,4.709A8.193,8.193,0,0,1,24.182,32.364Z" transform="translate(-8.545 -8.545)"/><path class="a" d="M46.067,19.338a.39.39,0,0,1-.221-.069,7.073,7.073,0,0,0-.945-.545.39.39,0,1,1,.339-.7,7.932,7.932,0,0,1,1.049.607.39.39,0,0,1-.222.71Z" transform="translate(-26.051 -9.756)"/><path class="a" d="M32.781,43.095a.39.39,0,0,1-.319-.166,7.388,7.388,0,0,0-12.1,0,.39.39,0,1,1-.638-.447,8.167,8.167,0,0,1,13.379,0,.39.39,0,0,1-.319.613Z" transform="translate(-10.773 -22.584)"/><path class="a" d="M32.327,31.654a2.983,2.983,0,1,1,2.983-2.983,2.983,2.983,0,0,1-2.983,2.983Zm0-5.187a2.2,2.2,0,1,0,2.2,2.2A2.2,2.2,0,0,0,32.327,26.467Z" transform="translate(-16.69 -14.459)"/></g></svg>