<svg width="50" height="26" viewBox="0 0 50 26" fill="none" xmlns="http://www.w3.org/2000/svg">
<path d="M49.4271 11.6175C49.4266 11.6169 49.4261 11.6162 49.4254 11.6156L39.2199 1.45937C38.4554 0.698529 37.2188 0.70136 36.4577 1.46601C35.6968 2.23056 35.6997 3.46718 36.4643 4.22812L43.3162 11.0469H1.95312C0.874414 11.0469 0 11.9213 0 13C0 14.0787 0.874414 14.9531 1.95312 14.9531H43.3161L36.4644 21.7719C35.6998 22.5328 35.6969 23.7694 36.4578 24.534C37.2188 25.2987 38.4556 25.3013 39.22 24.5406L49.4255 14.3844C49.4261 14.3838 49.4266 14.3831 49.4272 14.3825C50.1922 13.619 50.1897 12.3784 49.4271 11.6175Z" fill="black"/>
</svg>
