<svg xmlns="http://www.w3.org/2000/svg" xmlns:xlink="http://www.w3.org/1999/xlink" width="454" height="301" viewBox="0 0 454 301"><defs><style>.a{fill:#fff;}.b{fill:none;stroke:#707070;stroke-linecap:round;stroke-linejoin:round;stroke-width:3px;}.c{fill:#f86f1f;}.d,.e,.f{fill:#ccc;}.d{font-size:23px;}.d,.e,.f,.g,.m,.n{font-family:Roboto-Regular, Roboto;}.d,.e,.f,.g,.h{letter-spacing:0em;}.e{font-size:17px;}.f{font-size:61px;}.g,.h{font-size:15px;}.h,.k{font-family:Roboto-Bold, Roboto;font-weight:700;}.i{fill:#f9a000;}.j{fill:#ed0006;opacity:0.5;}.k,.m{fill:#8bbd43;}.k,.n{font-size:10px;}.l{fill:#000;}.m{font-weight:400;}.n{fill:#707070;}.o{filter:url(#a);}</style><filter id="a" x="0" y="0" width="454" height="301" filterUnits="userSpaceOnUse"><feOffset dy="3" input="SourceAlpha"/><feGaussianBlur stdDeviation="10" result="b"/><feFlood flood-opacity="0.2"/><feComposite operator="in" in2="b"/><feComposite in="SourceGraphic"/></filter></defs><g transform="translate(-353 -422)"><g transform="translate(383 449)"><g class="o" transform="matrix(1, 0, 0, 1, -30, -27)"><rect class="a" width="394" height="241" rx="36" transform="translate(30 27)"/></g><path d="M119.146,0h52.36A32.494,32.494,0,0,1,204,32.494V208.506A32.494,32.494,0,0,1,171.506,241H121.854A121.854,121.854,0,0,1,0,119.146v0A119.146,119.146,0,0,1,119.146,0Z" transform="translate(190 0)"/><g transform="translate(375.308 27.144)"><path class="b" d="M18.952,17.726A1.226,1.226,0,1,1,17.726,16.5,1.226,1.226,0,0,1,18.952,17.726Z" transform="translate(-16.5 -7.919)"/><path class="b" d="M18.952,7.226A1.226,1.226,0,1,1,17.726,6,1.226,1.226,0,0,1,18.952,7.226Z" transform="translate(-16.5 -6)"/><path class="b" d="M18.952,28.226A1.226,1.226,0,1,1,17.726,27,1.226,1.226,0,0,1,18.952,28.226Z" transform="translate(-16.5 -9.839)"/></g></g><path class="c" d="M0,5.759V35.2c0,3.177,2.293,5.759,5.113,5.759H25.566c2.82,0,5.113-2.583,5.113-5.759V7.513s-.015-3.62-1.626-5.5S24.234,0,24.234,0H5.113C2.293,0,0,2.583,0,5.759Zm17.9,9.6H12.783V9.6H17.9Zm7.67,0H20.453V9.6h2.557a2.73,2.73,0,0,1,2.557,2.88ZM20.453,26.876h5.113v2.88a2.73,2.73,0,0,1-2.557,2.88H20.453Zm-7.67,0H17.9v5.759H12.783Zm-7.67,0h5.113v5.759H7.67a2.73,2.73,0,0,1-2.557-2.88Zm0-8.639H25.566V24H5.113Zm0-5.759A2.73,2.73,0,0,1,7.67,9.6h2.557v5.759H5.113Z" transform="matrix(0.017, -1, 1, 0.017, 405.632, 547.564)"/><text class="d" transform="translate(414 581)"><tspan x="0" y="0" xml:space="preserve">* * * *    * * * *    * * * *     2 4 5 6</tspan></text><text class="e" transform="translate(640 540)"><tspan x="0" y="0">INVESTOR</tspan></text><text class="f" transform="translate(634 519)"><tspan x="0" y="0">VIP</tspan></text><text class="g" transform="translate(414 610)"><tspan x="0" y="0">16/21</tspan></text><text class="h" transform="translate(414 654)"><tspan x="0" y="0">God&apos;swill Augustine</tspan></text><text class="g" transform="translate(497 610)"><tspan x="0" y="0">16/22</tspan></text><g transform="translate(679.256 629.373)"><circle class="i" cx="20.5" cy="20.5" r="20.5" transform="translate(25.744 -0.373)"/><circle class="j" cx="20.5" cy="20.5" r="20.5" transform="translate(-0.256 -0.373)"/></g><text class="k" transform="translate(402 487)"><tspan class="l" x="0" y="0">GLOB</tspan><tspan class="m" y="0">FINANCIAL</tspan></text><text class="n" transform="translate(493 487)"><tspan x="0" y="0">Virtual Card</tspan></text></g></svg>