<svg xmlns="http://www.w3.org/2000/svg" width="21.344" height="21.323" viewBox="0 0 21.344 21.323"><defs><style>.a{fill:#f86f1f;}</style></defs><g transform="translate(0 -0.243)"><g transform="translate(0 0.243)"><path class="a" d="M21.2,7.9,18.811,1.7A2.274,2.274,0,0,0,15.87.4l-.051.02L3.9,5.356a2.264,2.264,0,0,0-1.258,2.9l.328.875H2.221A2.224,2.224,0,0,0,0,11.348v8a2.224,2.224,0,0,0,2.221,2.221h15.1a2.224,2.224,0,0,0,2.221-2.221v-8a2.184,2.184,0,0,0-.032-.36l.413-.167A2.283,2.283,0,0,0,21.2,7.9ZM2.221,9.838h15.1a1.508,1.508,0,0,1,1.5,1.422H.72A1.508,1.508,0,0,1,2.221,9.838ZM5.793,7.7,8.168,6.509,8.657,7.73,6.281,8.918ZM18.835,19.344a1.512,1.512,0,0,1-1.51,1.51H2.221a1.512,1.512,0,0,1-1.51-1.51V14.813H18.835Zm0-5.242H.711V11.97H18.835Zm.825-3.938-.371.15a2.222,2.222,0,0,0-1.964-1.188H7.453L9.267,8.22a.355.355,0,0,0,.171-.45L8.685,5.886a.355.355,0,0,0-.462-.2L8.2,5.7,5.183,7.208a.355.355,0,0,0-.171.45L5.6,9.127H3.732L3.311,8a1.556,1.556,0,0,1,.864-1.99l11.916-4.94a1.562,1.562,0,0,1,2.041.844l.015.037,2.385,6.2A1.569,1.569,0,0,1,19.66,10.165Z" transform="translate(0 -0.243)"/><path class="a" d="M264.941,356.205a2.132,2.132,0,1,0-.773-2.915A2.132,2.132,0,0,0,264.941,356.205Zm2.736-3.179a1.422,1.422,0,1,1,0,2.67A2.124,2.124,0,0,0,267.677,353.027Zm-.594.4a1.4,1.4,0,0,1,0,1.861A1.4,1.4,0,0,1,267.083,353.431Zm-1.066-.491a1.408,1.408,0,0,1,.472.087,2.124,2.124,0,0,0,0,2.67,1.419,1.419,0,1,1-.472-2.756Z" transform="translate(-252.157 -336.593)"/><rect class="a" width="0.711" height="3.71" transform="translate(15.28 7.984) rotate(-113.966)"/><rect class="a" width="5.393" height="0.71" transform="matrix(0.908, -0.419, 0.419, 0.908, 12.728, 6.583)"/></g></g></svg>