<svg width="335" height="335" viewBox="0 0 335 335" fill="none" xmlns="http://www.w3.org/2000/svg">
<path d="M87.1 282.07H289.909C292.026 279.671 294.525 275.698 295.142 274.874C301.31 266.539 306.436 257.48 310.404 247.9C326.672 208.919 323.804 163.601 306.726 125.29C294.063 96.9355 271.926 72.4604 240.791 60.2597C212.068 48.997 172.451 46.0758 148.057 66.9597C123.662 87.8436 127.668 124.72 103.167 145.598C102.497 146.181 101.78 146.743 101.063 147.286C87.7164 157.296 69.3584 157.081 53.4928 161.195C37.0309 165.47 21.9224 176.156 16.2073 191.345C8.65638 211.445 15.4837 234.453 27.1551 252.007C41.3926 273.414 63.1073 279.524 87.1 282.07Z" fill="#92E3A9"/>
<path opacity="0.7" d="M87.1 282.07H289.909C292.026 279.671 294.525 275.698 295.142 274.874C301.31 266.539 306.436 257.48 310.404 247.9C326.672 208.919 323.804 163.601 306.726 125.29C294.063 96.9355 271.926 72.4604 240.791 60.2597C212.068 48.997 172.451 46.0758 148.057 66.9597C123.662 87.8436 127.668 124.72 103.167 145.598C102.497 146.181 101.78 146.743 101.063 147.286C87.7164 157.296 69.3584 157.081 53.4928 161.195C37.0309 165.47 21.9224 176.156 16.2073 191.345C8.65638 211.445 15.4837 234.453 27.1551 252.007C41.3926 273.414 63.1073 279.524 87.1 282.07Z" fill="white"/>
<path d="M225.515 52.9299H147.862L146.837 63.603H225.515V52.9299Z" stroke="#A3A3A3" stroke-miterlimit="10"/>
<path d="M225.515 63.603H147.862L146.837 74.2828H225.515V63.603Z" stroke="#A3A3A3" stroke-miterlimit="10"/>
<path d="M225.515 74.2827H147.862L146.837 84.9558H225.515V74.2827Z" stroke="#A3A3A3" stroke-miterlimit="10"/>
<path d="M225.515 84.9558H147.862L146.837 95.6289H225.515V84.9558Z" stroke="#A3A3A3" stroke-miterlimit="10"/>
<path d="M225.515 95.6289H147.862L146.837 106.309H225.515V95.6289Z" stroke="#A3A3A3" stroke-miterlimit="10"/>
<path d="M225.515 106.309H147.862L146.837 116.982H225.515V106.309Z" stroke="#A3A3A3" stroke-miterlimit="10"/>
<path d="M225.515 116.982H147.862L146.837 127.655H225.515V116.982Z" stroke="#A3A3A3" stroke-miterlimit="10"/>
<path d="M225.515 127.655H147.862L146.837 138.335H225.515V127.655Z" stroke="#A3A3A3" stroke-miterlimit="10"/>
<path d="M225.515 138.335H147.862L146.837 149.008H225.515V138.335Z" stroke="#A3A3A3" stroke-miterlimit="10"/>
<path d="M225.515 149.008H147.862L146.837 159.681H225.515V149.008Z" stroke="#A3A3A3" stroke-miterlimit="10"/>
<path d="M225.515 159.681H147.862L146.837 170.361H225.515V159.681Z" stroke="#A3A3A3" stroke-miterlimit="10"/>
<path d="M225.515 170.361H147.862L146.837 181.034H225.515V170.361Z" stroke="#A3A3A3" stroke-miterlimit="10"/>
<path d="M225.515 181.034H147.862L146.837 191.707H225.515V181.034Z" stroke="#A3A3A3" stroke-miterlimit="10"/>
<path d="M225.515 191.707H147.862L146.837 202.387H225.515V191.707Z" stroke="#A3A3A3" stroke-miterlimit="10"/>
<path d="M225.515 202.387H147.862L146.837 213.06H225.515V202.387Z" stroke="#A3A3A3" stroke-miterlimit="10"/>
<path d="M305.332 52.9299H227.686L226.661 63.603H305.332V52.9299Z" stroke="#A3A3A3" stroke-miterlimit="10"/>
<path d="M305.332 63.603H227.686L226.661 74.2828H305.332V63.603Z" stroke="#A3A3A3" stroke-miterlimit="10"/>
<path d="M305.332 74.2827H227.686L226.661 84.9558H305.332V74.2827Z" stroke="#A3A3A3" stroke-miterlimit="10"/>
<path d="M305.332 84.9558H227.686L226.661 95.6289H305.332V84.9558Z" stroke="#A3A3A3" stroke-miterlimit="10"/>
<path d="M305.332 95.6289H227.686L226.661 106.309H305.332V95.6289Z" stroke="#A3A3A3" stroke-miterlimit="10"/>
<path d="M305.332 106.309H227.686L226.661 116.982H305.332V106.309Z" stroke="#A3A3A3" stroke-miterlimit="10"/>
<path d="M305.332 116.982H227.686L226.661 127.655H305.332V116.982Z" stroke="#A3A3A3" stroke-miterlimit="10"/>
<path d="M305.332 127.655H227.686L226.661 138.335H305.332V127.655Z" stroke="#A3A3A3" stroke-miterlimit="10"/>
<path d="M305.332 138.335H227.686L226.661 149.008H305.332V138.335Z" stroke="#A3A3A3" stroke-miterlimit="10"/>
<path d="M305.332 149.008H227.686L226.661 159.681H305.332V149.008Z" stroke="#A3A3A3" stroke-miterlimit="10"/>
<path d="M305.332 159.681H227.686L226.661 170.361H305.332V159.681Z" stroke="#A3A3A3" stroke-miterlimit="10"/>
<path d="M305.332 170.361H227.686L226.661 181.034H305.332V170.361Z" stroke="#A3A3A3" stroke-miterlimit="10"/>
<path d="M305.332 181.034H227.686L226.661 191.707H305.332V181.034Z" stroke="#A3A3A3" stroke-miterlimit="10"/>
<path d="M305.332 191.707H227.686L226.661 202.387H305.332V191.707Z" stroke="#A3A3A3" stroke-miterlimit="10"/>
<path d="M305.332 202.387H227.686L226.661 213.06H305.332V202.387Z" stroke="#A3A3A3" stroke-miterlimit="10"/>
<path d="M309.225 44.6621H145.021V52.7155H309.225V44.6621Z" stroke="#A3A3A3" stroke-miterlimit="10"/>
<path d="M309.225 52.7156V194.548" stroke="#A3A3A3" stroke-miterlimit="10"/>
<path d="M307.436 52.9434V150.254" stroke="#A3A3A3" stroke-miterlimit="10"/>
<path d="M310.384 194.233H308.18V197.844H310.384V194.233Z" fill="#263238" stroke="#A3A3A3" stroke-miterlimit="10"/>
<path d="M308.401 149.477H306.19V153.088H308.401V149.477Z" fill="#263238" stroke="#A3A3A3" stroke-miterlimit="10"/>
<path d="M116.58 59.6299H32.16V164.82H116.58V59.6299Z" stroke="#A3A3A3" stroke-miterlimit="10"/>
<path d="M114.429 62.3098H34.3107V162.14H114.429V62.3098Z" stroke="#A3A3A3" stroke-miterlimit="10"/>
<path d="M89.11 93.8601H59.63V130.596H89.11V93.8601Z" fill="#D6D6D6"/>
<path d="M101.84 265.99C101.84 265.99 102.141 255.21 101.76 245.937C101.378 236.664 102.148 216.779 102.148 216.779" stroke="#263238" stroke-miterlimit="10"/>
<path d="M101.967 228.483L97.7529 225.174" stroke="#263238" stroke-miterlimit="10"/>
<path d="M101.927 230.768L103.421 228.343" stroke="#263238" stroke-miterlimit="10"/>
<path d="M101.579 240.356L105.324 237.267" stroke="#263238" stroke-miterlimit="10"/>
<path d="M102.148 220.865L100.172 219.07" stroke="#263238" stroke-miterlimit="10"/>
<path d="M101.545 242.044L99.0729 239.391" stroke="#263238" stroke-miterlimit="10"/>
<path d="M101.766 252.449L96.6207 247.759" stroke="#263238" stroke-miterlimit="10"/>
<path d="M101.894 258.231C103.207 257.73 104.483 257.136 105.713 256.456" stroke="#263238" stroke-miterlimit="10"/>
<path d="M99.0595 230.152C96.9892 228.55 90.0614 228.812 88.7214 232.162C87.3814 235.512 91.6091 240.872 95.6961 240.503C97.2907 240.356 97.9808 240.242 98.6039 239.351L92.9089 233.783L99.0729 238.735C99.2515 238.414 99.3931 238.075 99.495 237.723C99.5687 237.475 99.629 237.214 99.6893 236.932C100.085 234.942 100.989 231.646 99.0595 230.152Z" fill="#92E3A9"/>
<path d="M112.46 226.306C112.462 226.344 112.462 226.382 112.46 226.42C111.903 228.892 109.076 230.292 106.698 230.085C106.367 230.052 106.04 229.992 105.719 229.904C105.165 230.79 104.821 231.791 104.715 232.831C104.61 233.871 104.745 234.921 105.11 235.9C105.211 236.177 105.346 236.44 105.512 236.684C106.182 236.115 113.706 229.716 113.706 229.716L105.927 237.213C108.265 239.726 113.773 239.384 115.689 234.728C117.605 230.071 115.16 226.969 112.46 226.306Z" fill="#92E3A9"/>
<path d="M108.647 217.656C104.627 216.765 101.003 218.601 101.07 222.809C101.085 223.741 101.293 224.661 101.679 225.511C102.065 226.36 102.621 227.121 103.314 227.746L107.428 222.038L103.93 228.222C104.259 228.444 104.61 228.632 104.976 228.785C105.487 228.993 106.027 229.122 106.577 229.167C108.949 229.375 111.776 227.974 112.339 225.502C112.962 222.735 112.681 218.541 108.647 217.656Z" fill="#92E3A9"/>
<path d="M103.937 203.01C102.916 203.421 101.916 203.883 100.942 204.397C98.3627 205.657 96.3259 209.757 98.3627 213.234C99.0751 214.653 100.313 215.737 101.813 216.256L102.845 206.206L102.43 216.41C102.626 216.432 102.823 216.432 103.019 216.41C104.694 216.236 107.347 214.233 107.602 210.119C107.857 206.005 103.937 203.01 103.937 203.01Z" fill="#92E3A9"/>
<path d="M92.1518 212.135L99.9372 218.36C100.022 218.075 100.047 217.777 100.011 217.482C99.6558 213.918 96.0981 211.854 93.7464 211.11C91.3947 210.367 89.7733 211.693 91.2808 215.13C92.7883 218.567 96.7547 220.169 98.5235 219.673C98.9436 219.571 99.3195 219.336 99.5955 219.003L92.1518 212.135Z" fill="#92E3A9"/>
<path d="M97.5118 220.115C95.8301 220.169 93.1099 218.969 91.522 216.658C90.7006 216.588 89.8839 216.839 89.2441 217.359C88.6042 217.879 88.191 218.627 88.0916 219.445C87.301 223.164 89.9877 227.05 93.8603 226.574C95.0646 226.509 96.2078 226.023 97.0897 225.2L90.1619 218.882L97.5721 224.53C97.7194 224.265 97.8127 223.974 97.8468 223.673C98.0873 222.48 97.9708 221.242 97.5118 220.115Z" fill="#92E3A9"/>
<path d="M97.4716 240.765C96.8345 241.039 96.1542 241.2 95.4616 241.24C92.929 241.475 90.3495 239.492 89.0631 237.16C87.5087 237.415 86.2692 238.245 85.9677 239.947C85.2039 244.295 89.2239 249.997 93.2908 249.119C94.3485 248.91 95.3273 248.412 96.1182 247.679L87.2407 239.143L96.6207 247.103C97.1585 246.414 97.5052 245.596 97.6257 244.731C98.0744 243.436 98.0194 242.02 97.4716 240.765Z" fill="#92E3A9"/>
<path d="M115.327 249.682C112.346 246.232 108.788 249.32 108.788 249.32C108.788 249.32 106.61 250.044 105.793 253.126C105.533 254.063 105.57 255.058 105.9 255.973L114.878 250.741L106.115 256.463C106.932 258.01 108.714 258.962 111.16 258.272C115.113 257.166 118.315 253.139 115.327 249.682Z" fill="#92E3A9"/>
<path d="M107.89 262.747H95.4617V281.152H107.89V262.747Z" fill="#263238"/>
<path d="M204.745 209.161L204.263 205.435C203.74 201.884 202.387 192.585 202.387 191.687C202.387 190.582 197.255 187.392 197.255 187.392L191.077 196.183L186.836 204.457C186.836 204.457 189.563 206.93 191.982 208.745C193.562 209.88 195.356 210.682 197.255 211.104L209.616 253.501L217.931 236.698L204.745 209.161Z" fill="white" stroke="#263238" stroke-linecap="round" stroke-linejoin="round"/>
<path d="M193.49 174.408L184.603 174.846C182.77 174.936 181.357 176.496 181.447 178.329L182.63 202.339C182.72 204.172 184.28 205.585 186.113 205.495L195 205.057C196.833 204.967 198.246 203.408 198.155 201.574L196.973 177.564C196.882 175.731 195.323 174.318 193.49 174.408Z" fill="white" stroke="#263238" stroke-linecap="round" stroke-linejoin="round"/>
<path d="M194.463 174.334L185.576 174.771C183.743 174.862 182.331 176.421 182.421 178.254L183.604 202.265C183.694 204.098 185.253 205.51 187.086 205.42L195.973 204.982C197.806 204.892 199.219 203.333 199.129 201.5L197.946 177.489C197.856 175.656 196.296 174.243 194.463 174.334Z" fill="#263238" stroke="#263238" stroke-linecap="round" stroke-linejoin="round"/>
<path d="M197.482 178.542C197.44 177.791 197.148 177.076 196.651 176.513C196.153 175.949 195.481 175.568 194.742 175.433L193.677 176.88L187.58 177.262L185.677 175.989L194.045 175.413H193.998L186.132 175.801C185.254 175.851 184.431 176.245 183.841 176.897C183.251 177.549 182.94 178.406 182.977 179.285L184.062 201.275C184.112 202.153 184.506 202.976 185.158 203.566C185.81 204.157 186.667 204.467 187.546 204.43L195.405 204.042C196.283 203.991 197.106 203.598 197.697 202.946C198.287 202.294 198.598 201.436 198.561 200.558L197.482 178.542Z" fill="#92E3A9" stroke="#263238" stroke-linecap="round" stroke-linejoin="round"/>
<path d="M201.777 209.911C200.598 209.762 199.502 209.224 198.661 208.384C197.821 207.543 197.284 206.447 197.134 205.268C196.524 201.027 198.548 196.183 198.548 196.183C197.193 195.395 195.774 194.723 194.307 194.173C192.082 193.362 193.697 189.121 194.508 190.334C195.318 191.546 200.966 192.344 202.581 193.362C204.196 194.38 204.591 200.23 204.591 200.23L204.732 209.167" fill="white"/>
<path d="M201.777 209.911C200.598 209.762 199.502 209.224 198.661 208.384C197.821 207.543 197.284 206.447 197.134 205.268C196.524 201.027 198.548 196.183 198.548 196.183C197.193 195.395 195.774 194.723 194.307 194.173C192.082 193.362 193.697 189.121 194.508 190.334C195.318 191.546 200.966 192.344 202.581 193.362C204.196 194.38 204.591 200.23 204.591 200.23L204.732 209.167" stroke="#263238" stroke-linecap="round" stroke-linejoin="round"/>
<path d="M260.469 282.07L280.73 228.979C281.538 226.863 281.495 224.515 280.609 222.43C279.724 220.345 278.064 218.684 275.98 217.797C273.855 216.894 271.46 216.866 269.314 217.719C267.169 218.572 265.447 220.238 264.523 222.353L238.48 282.07H260.469Z" fill="#263238" stroke="#263238" stroke-linecap="round" stroke-linejoin="round"/>
<path d="M209.489 257.95C208.698 258.546 192.665 277.702 189.014 282.07H235.84C238.661 278.15 249.984 262.097 254.848 250.801C260.436 237.85 260.878 222.44 259.766 217.75C258.653 213.06 257.528 209.71 257.528 209.71C257.528 209.71 235.84 213.509 224.45 219.539C224.45 219.539 210.601 230.259 207.921 237.18C205.241 244.101 210.38 257.28 209.489 257.95Z" fill="#92E3A9" stroke="#263238" stroke-linecap="round" stroke-linejoin="round"/>
<path d="M247.846 250.171C248.362 248.831 248.845 247.491 249.287 246.151C251.357 239.827 253.977 232.202 252.59 225.502C251.25 219.023 242.989 219.693 238.299 223.264C233.609 226.835 230.259 235.324 228.249 242.694C226.239 250.064 217.71 266.894 217.71 266.894C217.71 266.894 187.111 260.416 183.54 259.076C179.969 257.736 175.051 255.504 171.701 252.376C168.351 249.247 159.42 244.557 156.291 240.986C153.162 237.414 152.72 238.527 152.941 239.867C153.162 241.207 154.73 242.774 155.842 244.114C156.898 245.29 158.016 246.408 159.192 247.464C159.192 247.464 154.06 246.346 151.601 245.454C149.142 244.563 148.03 243.217 147.36 244.336C146.69 245.454 147.36 246.794 149.591 247.907C151.822 249.019 160.532 251.484 160.532 251.484H151.601C149.812 251.484 147.36 252.597 148.472 253.716C149.584 254.834 155.172 254.164 156.74 254.164H161.43C161.43 254.164 155.172 256.396 153.39 256.617C151.608 256.838 151.822 258.627 153.162 258.854C154.502 259.082 164.11 257.066 164.11 257.066C164.11 257.066 168.13 260.194 169.912 260.637C171.534 260.939 173.18 261.09 174.83 261.086C174.83 261.086 190.91 271.806 202.97 276.047C211.258 278.968 226.721 287.041 233.301 277.728C237.971 271.109 244.952 257.675 247.846 250.171Z" fill="white" stroke="#263238" stroke-linecap="round" stroke-linejoin="round"/>
<path d="M242.104 154.247C242.104 154.247 237.321 160.465 236.838 163.815C236.356 167.165 237.079 169.074 235.404 170.032C233.729 170.991 228.704 170.984 227.994 173.382C227.284 175.781 230.621 180.083 230.621 180.083C230.621 180.083 231.103 190.843 232.061 193.228C233.019 195.613 241.622 196.102 241.622 196.102L240.188 206.36L254.298 202.058L258.124 188.19C258.124 188.19 263.625 185.798 265.534 178.14C267.444 170.481 264.1 162.595 255.732 157.577C247.364 152.559 242.104 154.247 242.104 154.247Z" fill="white" stroke="#263238" stroke-linecap="round" stroke-linejoin="round"/>
<path d="M241.622 196.095L248.798 196.839L241.14 200.879L241.622 196.095Z" fill="#263238" stroke="#263238" stroke-linecap="round" stroke-linejoin="round"/>
<path d="M234.212 181.51C234.212 181.51 238.755 182.226 241.146 179.118" stroke="#263238" stroke-linecap="round" stroke-linejoin="round"/>
<path d="M240.463 169.369C240.108 170.254 239.404 170.81 238.888 170.602C238.372 170.394 238.218 169.51 238.6 168.625C238.982 167.741 239.665 167.178 240.175 167.386C240.684 167.594 240.818 168.478 240.463 169.369Z" fill="#263238"/>
<path d="M239.9 162.81C239.9 162.81 242.54 161.169 244.275 164.452" stroke="#263238" stroke-linecap="round" stroke-linejoin="round"/>
<path d="M235.793 181.67C235.793 181.67 235.706 185.402 237.073 185.315C238.44 185.228 240.081 180.297 240.081 180.297C240.081 180.297 239.076 181.483 235.793 181.67Z" fill="#263238" stroke="#263238" stroke-linecap="round" stroke-linejoin="round"/>
<path d="M256.831 200.33C256.831 200.33 238.969 207.03 233.609 208.819C228.249 210.608 222.889 221.549 222.889 221.549C222.889 221.549 249.461 212.611 254.379 211.271L258.171 210.829C258.171 210.829 259.29 201.67 256.831 200.33Z" fill="white" stroke="#263238" stroke-linecap="round" stroke-linejoin="round"/>
<path d="M267.558 143.474C267.558 143.474 266.928 143.789 269.139 139.058C271.35 134.328 260.61 129.9 248.302 133.698C235.994 137.497 237.582 147.594 239.143 152.331C240.704 157.068 249.863 156.117 249.561 159.272C249.26 162.428 247.35 165.59 250.828 168.431C254.305 171.272 251.458 170.642 252.402 172.223C253.347 173.805 256.509 172.853 257.454 173.483C258.399 174.113 260.925 176.324 258.084 180.746C255.243 185.168 252.087 184.531 252.724 189.583C253.36 194.635 254.62 199.372 261.253 201.268C267.886 203.164 273.561 203.479 274.512 198.112C275.464 192.746 271.986 191.479 275.772 189.268C279.557 187.057 289.983 186.113 291.242 175.694C292.502 165.276 289.976 155.788 282.74 149.792C278.429 146.208 273.138 144.007 267.558 143.474Z" fill="#263238" stroke="#263238" stroke-linecap="round" stroke-linejoin="round"/>
<path d="M261.735 195.586C263.35 198.461 266.613 199.707 268.435 199.037C271.115 198.019 271.477 192.947 268.094 192.27C264.71 191.593 263.698 193.61 265.414 195.312" stroke="#9C9C9C" stroke-linecap="round" stroke-linejoin="round"/>
<path d="M248.871 151.112C250.566 153.792 254.68 155.554 261.977 157.765C273.139 161.148 275.846 169.945 273.139 174.34C270.432 178.736 262.312 183.138 260.958 189.898C260.744 190.936 260.71 192.004 260.858 193.054" stroke="#9C9C9C" stroke-linecap="round" stroke-linejoin="round"/>
<path d="M256.898 144.237C256.898 144.237 260.958 143.896 258.908 140.512C256.858 137.129 249.099 139.842 248.088 145.926C247.907 146.867 247.878 147.83 248 148.78" stroke="#9C9C9C" stroke-linecap="round" stroke-linejoin="round"/>
<path d="M273.675 156.465C277.166 158.308 281.433 161.912 281.929 168.592C282.599 177.724 278.546 180.766 271.785 184.826C265.025 188.886 268.06 192.29 268.06 192.29" stroke="#9C9C9C" stroke-linecap="round" stroke-linejoin="round"/>
<path d="M269.079 154.723C269.994 154.933 270.891 155.22 271.759 155.581" stroke="#9C9C9C" stroke-linecap="round" stroke-linejoin="round"/>
<path d="M180.531 76.5876C175.472 78.1096 170.86 80.8414 167.094 84.5468C163.328 88.2522 160.521 92.8195 158.917 97.8535" stroke="#263238" stroke-miterlimit="10"/>
<path d="M196.631 75.9513C194.398 75.4737 192.121 75.2334 189.838 75.2344C188.311 75.236 186.787 75.3435 185.275 75.556" stroke="#263238" stroke-miterlimit="10"/>
<path d="M220.812 117.304C223.3 109.269 222.574 100.583 218.788 93.0731C215.002 85.563 208.45 79.8143 200.511 77.0366" stroke="#263238" stroke-miterlimit="10"/>
<path d="M217.817 124.077C218.712 122.558 219.481 120.966 220.115 119.32" stroke="#263238" stroke-miterlimit="10"/>
<path d="M176.263 137.136C182.149 139.842 188.709 140.725 195.101 139.672C201.492 138.619 207.422 135.677 212.129 131.226" stroke="#263238" stroke-miterlimit="10"/>
<path d="M171.125 134.161C172.083 134.837 173.076 135.463 174.1 136.037" stroke="#263238" stroke-miterlimit="10"/>
<path d="M157.818 102.51C156.931 108.017 157.48 113.66 159.41 118.894C161.341 124.127 164.589 128.774 168.84 132.386" stroke="#263238" stroke-miterlimit="10"/>
<path d="M189.838 137.015C206.045 137.015 219.184 123.876 219.184 107.669C219.184 91.4616 206.045 78.323 189.838 78.323C173.63 78.323 160.492 91.4616 160.492 107.669C160.492 123.876 173.63 137.015 189.838 137.015Z" fill="white" stroke="#263238" stroke-miterlimit="10"/>
<path d="M207.881 127.139H175.225C174.776 127.139 174.342 126.977 174.002 126.683C173.663 126.389 173.44 125.983 173.376 125.538L167.574 87.7232H160.311C159.817 87.7232 159.343 87.527 158.994 87.1777C158.644 86.8284 158.448 86.3546 158.448 85.8606C158.448 85.3666 158.644 84.8929 158.994 84.5436C159.343 84.1943 159.817 83.998 160.311 83.998H169.188C169.637 83.9985 170.07 84.1606 170.408 84.4548C170.747 84.7489 170.968 85.1553 171.031 85.5993L176.84 123.414H207.881C208.375 123.414 208.849 123.61 209.198 123.96C209.547 124.309 209.743 124.783 209.743 125.277C209.743 125.771 209.547 126.244 209.198 126.594C208.849 126.943 208.375 127.139 207.881 127.139Z" fill="white" stroke="#263238" stroke-linecap="round" stroke-linejoin="round"/>
<path d="M161.041 83.5222H157.993C156.757 83.5222 155.755 84.5241 155.755 85.76V86.028C155.755 87.2639 156.757 88.2658 157.993 88.2658H161.041C162.277 88.2658 163.279 87.2639 163.279 86.028V85.76C163.279 84.5241 162.277 83.5222 161.041 83.5222Z" fill="#263238" stroke="#263238" stroke-linecap="round" stroke-linejoin="round"/>
<path d="M172.431 119.28H176.069L175.654 116.62H172.009L172.431 119.28Z" fill="#263238" stroke="#263238" stroke-linecap="round" stroke-linejoin="round"/>
<path d="M207.224 117.458H171.621L168.478 92.9626H210.367L207.224 117.458Z" fill="#92E3A9" stroke="#263238" stroke-linecap="round" stroke-linejoin="round"/>
<path d="M180.505 114.791C180.271 114.791 180.039 114.745 179.823 114.656C179.606 114.566 179.41 114.435 179.244 114.269C179.079 114.104 178.948 113.907 178.858 113.691C178.769 113.475 178.722 113.243 178.722 113.009V100.661C178.722 100.188 178.91 99.7337 179.244 99.3984C179.578 99.0631 180.031 98.8738 180.505 98.8721C180.978 98.8738 181.431 99.0631 181.765 99.3984C182.099 99.7337 182.287 100.188 182.287 100.661V113.009C182.287 113.243 182.241 113.475 182.151 113.691C182.062 113.907 181.93 114.104 181.765 114.269C181.599 114.435 181.403 114.566 181.187 114.656C180.97 114.745 180.739 114.791 180.505 114.791Z" fill="white" stroke="#263238" stroke-linecap="round" stroke-linejoin="round"/>
<path d="M186.816 114.791C186.343 114.791 185.89 114.603 185.556 114.269C185.222 113.935 185.034 113.482 185.034 113.009V100.661C185.034 100.188 185.221 99.7337 185.556 99.3984C185.89 99.0631 186.343 98.8738 186.816 98.8721C187.289 98.8738 187.743 99.0631 188.077 99.3984C188.411 99.7337 188.598 100.188 188.598 100.661V113.009C188.598 113.482 188.411 113.935 188.076 114.269C187.742 114.603 187.289 114.791 186.816 114.791Z" fill="white" stroke="#263238" stroke-linecap="round" stroke-linejoin="round"/>
<path d="M193.127 114.791C192.893 114.791 192.662 114.745 192.445 114.656C192.229 114.566 192.033 114.435 191.867 114.269C191.702 114.104 191.57 113.907 191.481 113.691C191.391 113.475 191.345 113.243 191.345 113.009V100.661C191.345 100.188 191.533 99.7337 191.867 99.3984C192.201 99.0631 192.654 98.8738 193.127 98.8721C193.601 98.8738 194.054 99.0631 194.388 99.3984C194.722 99.7337 194.91 100.188 194.91 100.661V113.009C194.91 113.243 194.864 113.475 194.774 113.691C194.684 113.907 194.553 114.104 194.388 114.269C194.222 114.435 194.026 114.566 193.809 114.656C193.593 114.745 193.361 114.791 193.127 114.791Z" fill="white" stroke="#263238" stroke-linecap="round" stroke-linejoin="round"/>
<path d="M199.439 114.791C198.966 114.791 198.513 114.603 198.179 114.269C197.844 113.935 197.657 113.482 197.657 113.009V100.661C197.657 100.188 197.844 99.7337 198.178 99.3984C198.512 99.0631 198.966 98.8738 199.439 98.8721C199.912 98.8738 200.366 99.0631 200.7 99.3984C201.034 99.7337 201.221 100.188 201.221 100.661V113.009C201.221 113.482 201.033 113.935 200.699 114.269C200.365 114.603 199.912 114.791 199.439 114.791Z" fill="white" stroke="#263238" stroke-linecap="round" stroke-linejoin="round"/>
<path d="M182.917 131.353C185.341 131.353 187.305 129.389 187.305 126.965C187.305 124.541 185.341 122.576 182.917 122.576C180.493 122.576 178.528 124.541 178.528 126.965C178.528 129.389 180.493 131.353 182.917 131.353Z" fill="#263238" stroke="#263238" stroke-linecap="round" stroke-linejoin="round"/>
<path d="M182.917 128.848C183.956 128.848 184.799 128.005 184.799 126.965C184.799 125.925 183.956 125.083 182.917 125.083C181.877 125.083 181.034 125.925 181.034 126.965C181.034 128.005 181.877 128.848 182.917 128.848Z" fill="white" stroke="#263238" stroke-linecap="round" stroke-linejoin="round"/>
<path d="M197.771 131.353C200.194 131.353 202.159 129.389 202.159 126.965C202.159 124.541 200.194 122.576 197.771 122.576C195.347 122.576 193.382 124.541 193.382 126.965C193.382 129.389 195.347 131.353 197.771 131.353Z" fill="#263238" stroke="#263238" stroke-linecap="round" stroke-linejoin="round"/>
<path d="M199.66 126.965C199.66 126.593 199.55 126.229 199.343 125.919C199.136 125.61 198.842 125.368 198.498 125.226C198.154 125.083 197.775 125.046 197.41 125.119C197.045 125.191 196.709 125.371 196.446 125.634C196.183 125.897 196.003 126.233 195.931 126.598C195.858 126.963 195.895 127.342 196.038 127.686C196.18 128.03 196.422 128.324 196.731 128.531C197.041 128.738 197.405 128.848 197.777 128.848C198.025 128.849 198.27 128.801 198.499 128.706C198.728 128.612 198.936 128.473 199.111 128.298C199.286 128.123 199.424 127.916 199.518 127.687C199.613 127.458 199.661 127.213 199.66 126.965Z" fill="white" stroke="#263238" stroke-linecap="round" stroke-linejoin="round"/>
<path d="M205.663 96.9558H209.536" stroke="#263238" stroke-linecap="round" stroke-linejoin="round"/>
<path d="M200.812 96.9558H203.56" stroke="#263238" stroke-linecap="round" stroke-linejoin="round"/>
<path d="M169.47 96.9558H198.709" stroke="#263238" stroke-linecap="round" stroke-linejoin="round"/>
<path d="M189.838 137.015V171.513" stroke="#263238" stroke-miterlimit="10"/>
<path d="M189.838 173.383C190.87 173.383 191.707 172.546 191.707 171.513C191.707 170.481 190.87 169.644 189.838 169.644C188.805 169.644 187.969 170.481 187.969 171.513C187.969 172.546 188.805 173.383 189.838 173.383Z" fill="#263238" stroke="#263238" stroke-linecap="round" stroke-linejoin="round"/>
<path d="M210.829 103.669C215.454 103.669 219.204 99.9196 219.204 95.2942C219.204 90.6688 215.454 86.9192 210.829 86.9192C206.203 86.9192 202.454 90.6688 202.454 95.2942C202.454 99.9196 206.203 103.669 210.829 103.669Z" fill="#92E3A9"/>
<path d="M210.829 104.674C208.974 104.674 207.16 104.124 205.618 103.094C204.075 102.063 202.873 100.598 202.163 98.8839C201.453 97.1699 201.267 95.2839 201.629 93.4644C201.991 91.6448 202.884 89.9735 204.196 88.6617C205.508 87.3498 207.179 86.4565 208.999 86.0945C210.818 85.7326 212.704 85.9184 214.418 86.6283C216.132 87.3383 217.597 88.5405 218.628 90.0831C219.659 91.6256 220.209 93.4391 220.209 95.2943C220.209 97.782 219.221 100.168 217.461 101.927C215.702 103.686 213.316 104.674 210.829 104.674ZM210.829 87.9243C209.371 87.9243 207.946 88.3566 206.734 89.1664C205.522 89.9762 204.578 91.1272 204.02 92.4739C203.462 93.8206 203.316 95.3025 203.6 96.7321C203.885 98.1618 204.587 99.475 205.617 100.506C206.648 101.536 207.961 102.238 209.391 102.523C210.821 102.807 212.302 102.661 213.649 102.103C214.996 101.545 216.147 100.601 216.957 99.3889C217.767 98.1769 218.199 96.752 218.199 95.2943C218.199 93.3397 217.422 91.4651 216.04 90.0829C214.658 88.7008 212.783 87.9243 210.829 87.9243Z" fill="#263238"/>
<path d="M211.378 98.3493H211.304C211.143 98.3393 210.987 98.2901 210.849 98.206C210.712 98.122 210.596 98.0055 210.514 97.8669L207.284 92.46C207.209 92.3468 207.156 92.2193 207.131 92.0854C207.106 91.9514 207.108 91.8137 207.138 91.6807C207.168 91.5477 207.224 91.4221 207.304 91.3116C207.384 91.2011 207.486 91.108 207.602 91.0379C207.719 90.9679 207.849 90.9223 207.984 90.9041C208.119 90.8858 208.257 90.8952 208.388 90.9317C208.519 90.9682 208.642 91.0311 208.748 91.1164C208.855 91.2017 208.942 91.3078 209.006 91.4282L211.499 95.5889L218.42 86.9593C218.587 86.7513 218.83 86.6183 219.095 86.5894C219.36 86.5605 219.626 86.6381 219.834 86.8052C220.041 86.9722 220.174 87.215 220.203 87.4801C220.232 87.7452 220.155 88.011 219.988 88.2189L212.162 97.9741C212.067 98.0902 211.947 98.184 211.812 98.2488C211.676 98.3137 211.528 98.3479 211.378 98.3493Z" fill="white"/>
<path d="M110.55 182.548C110.55 182.548 115.682 181.081 116.52 180.659C117.357 180.237 121.438 175.842 121.438 175.218C121.438 174.595 119.97 174.904 118.825 175.527C117.679 176.15 114.135 180.029 114.135 180.029L110.55 182.548Z" fill="white" stroke="#263238" stroke-linecap="round" stroke-linejoin="round"/>
<path d="M107.301 183.801C107.301 183.801 114.108 180.766 114.845 180.244C115.582 179.721 118.61 176.579 118.825 175.554C119.039 174.528 116.727 174.823 116.098 175.138C115.468 175.453 111.702 179.218 111.28 179.641C110.858 180.063 106.59 183.62 106.59 183.62C106.59 183.62 105.19 184.324 107.301 183.801Z" fill="white" stroke="#263238" stroke-linecap="round" stroke-linejoin="round"/>
<path d="M82.6981 185.409C82.6981 185.409 89.3981 178.441 90.6644 177.691C91.9307 176.94 106.845 176.947 106.845 176.947C106.845 176.947 114.061 174.937 115.307 174.703C116.553 174.468 116.305 176.947 114.563 177.945C112.821 178.944 107.589 183.667 105.599 184.913C103.609 186.16 90.9123 187.902 90.9123 187.902L84.688 195.365L78.2158 191.386L82.6981 185.409Z" fill="white" stroke="#263238" stroke-linecap="round" stroke-linejoin="round"/>
<path d="M106.845 176.947C106.845 176.947 110.027 176.579 109.713 177.517C109.398 178.455 108.245 180.451 106.048 180.558L97.0428 180.974" fill="white"/>
<path d="M106.845 176.947C106.845 176.947 110.027 176.579 109.713 177.517C109.398 178.455 108.245 180.451 106.048 180.558L97.0428 180.974" stroke="#263238" stroke-linecap="round" stroke-linejoin="round"/>
<path d="M78.2158 191.385C78.2158 191.385 72.5811 190.95 71.4689 191.62C70.3567 192.29 56.28 208.149 56.28 208.149L61.3586 232.537C61.1308 233.522 84.2525 209.375 87.5489 202.119C88.9693 198.983 85.5389 195.191 85.5389 195.191L78.2158 191.385Z" fill="#92E3A9" stroke="#263238" stroke-linecap="round" stroke-linejoin="round"/>
<path d="M79.8975 184.994L91.0865 192.779L86.3429 198.447L75.6095 191.151L79.8975 184.994Z" fill="#92E3A9" stroke="#263238" stroke-linecap="round" stroke-linejoin="round"/>
<path d="M134.597 145.617L75.7089 148.528L77.1478 177.638L136.036 174.727L134.597 145.617Z" fill="white" stroke="#263238" stroke-linecap="round" stroke-linejoin="round"/>
<path d="M88.9561 149.548L77.4795 150.113L77.7682 155.975L89.2448 155.41L88.9561 149.548Z" fill="#92E3A9" stroke="#263238" stroke-linecap="round" stroke-linejoin="round"/>
<path d="M134.6 145.613L122.555 146.209L123.994 175.318L136.039 174.723L134.6 145.613Z" fill="#DBDBDB" stroke="#263238" stroke-linecap="round" stroke-linejoin="round"/>
<path d="M134.583 145.631C134.583 145.631 139.273 148.881 141.135 152.217" stroke="#263238" stroke-linecap="round" stroke-linejoin="round"/>
<path d="M139.467 149.993L139.286 157.216L144.841 163.882L152.619 157.035L147.065 150.181L139.467 149.993Z" fill="#92E3A9" stroke="#263238" stroke-linecap="round" stroke-linejoin="round"/>
<path d="M105.86 133.33V139.695" stroke="#263238" stroke-linecap="round" stroke-linejoin="round"/>
<path d="M105.86 189.275V195.64" stroke="#263238" stroke-linecap="round" stroke-linejoin="round"/>
<path d="M68.005 143.045L72.36 146.395" stroke="#263238" stroke-linecap="round" stroke-linejoin="round"/>
<path d="M72.695 165.49L65.66 165.825" stroke="#263238" stroke-linecap="round" stroke-linejoin="round"/>
<path d="M77.0499 182.24L72.6949 186.595" stroke="#263238" stroke-linecap="round" stroke-linejoin="round"/>
<path d="M138.355 177.55L143.715 182.575" stroke="#263238" stroke-linecap="round" stroke-linejoin="round"/>
<path d="M137.015 142.71L141.37 137.685" stroke="#263238" stroke-linecap="round" stroke-linejoin="round"/>
<path d="M154.254 276.69H87.5623V282.07H154.254V276.69Z" fill="white" stroke="#263238" stroke-miterlimit="10" stroke-linecap="round"/>
<path d="M93.2707 274.881H88.6544V276.609H93.2707V274.881Z" fill="white" stroke="#263238" stroke-miterlimit="10" stroke-linecap="round"/>
<path d="M99.227 274.881H94.6107V276.609H99.227V274.881Z" fill="white" stroke="#263238" stroke-miterlimit="10" stroke-linecap="round"/>
<path d="M105.19 274.881H100.574V276.609H105.19V274.881Z" fill="white" stroke="#263238" stroke-miterlimit="10" stroke-linecap="round"/>
<path d="M111.146 274.881H106.53V276.609H111.146V274.881Z" fill="white" stroke="#263238" stroke-miterlimit="10" stroke-linecap="round"/>
<path d="M117.109 274.881H112.493V276.609H117.109V274.881Z" fill="white" stroke="#263238" stroke-miterlimit="10" stroke-linecap="round"/>
<path d="M123.066 274.881H118.449V276.609H123.066V274.881Z" fill="white" stroke="#263238" stroke-miterlimit="10" stroke-linecap="round"/>
<path d="M129.029 274.881H124.412V276.609H129.029V274.881Z" fill="white" stroke="#263238" stroke-miterlimit="10" stroke-linecap="round"/>
<path d="M134.985 274.881H130.369V276.609H134.985V274.881Z" fill="white" stroke="#263238" stroke-miterlimit="10" stroke-linecap="round"/>
<path d="M140.948 274.881H136.332V276.609H140.948V274.881Z" fill="white" stroke="#263238" stroke-miterlimit="10" stroke-linecap="round"/>
<path d="M146.904 274.881H142.288V276.609H146.904V274.881Z" fill="white" stroke="#263238" stroke-miterlimit="10" stroke-linecap="round"/>
<path d="M152.867 274.881H148.251V276.609H152.867V274.881Z" fill="white" stroke="#263238" stroke-miterlimit="10" stroke-linecap="round"/>
<path d="M73.03 282.07H43.9319C43.0486 282.067 42.1767 281.87 41.3779 281.493C40.5791 281.116 39.8729 280.568 39.3091 279.888C38.7454 279.208 38.338 278.413 38.1157 277.558C37.8933 276.703 37.8615 275.81 38.0225 274.941L51.0205 206.286L54.1896 206.889L41.1916 275.538C41.1145 275.94 41.1275 276.355 41.2296 276.753C41.3318 277.15 41.5206 277.52 41.7826 277.835C42.0445 278.151 42.373 278.405 42.7446 278.579C43.1162 278.753 43.5217 278.842 43.9319 278.841H73.03V282.07Z" fill="#263238"/>
<path d="M52.2466 202.648L47.5834 204.082L51.1679 223.083L56.9098 222.011L52.2466 202.648Z" fill="#263238"/>
<path d="M62.9801 262.265L41.3123 152.82L42.9739 153.852C44.8061 154.989 46.3858 156.489 47.6154 158.26C48.845 160.031 49.6984 162.036 50.1228 164.15L66.8326 248.57C67.3098 250.995 67.2097 253.498 66.5404 255.877C65.8712 258.256 64.6515 260.444 62.9801 262.265Z" fill="white" stroke="#263238" stroke-miterlimit="10" stroke-linecap="round"/>
<path d="M301.942 282.07H310.88" stroke="#263238" stroke-miterlimit="10" stroke-linecap="round"/>
<path d="M14.8606 282.07H295.061" stroke="#263238" stroke-miterlimit="10" stroke-linecap="round"/>
</svg>
