<svg width="60" height="60" viewBox="0 0 60 60" fill="none" xmlns="http://www.w3.org/2000/svg">
<path d="M49.3359 28.2422H31.7578V22.9688C31.7578 18.1227 35.6992 14.1797 40.5469 14.1797C45.3946 14.1797 49.3359 18.1227 49.3359 22.9688V28.2422Z" fill="#5CB8E6"/>
<path d="M40.5469 14.1797C37.639 14.1797 35.2734 11.8141 35.2734 8.90625C35.2734 5.99836 37.639 3.63281 40.5469 3.63281C43.4548 3.63281 45.8203 5.99836 45.8203 8.90625C45.8203 11.8141 43.4548 14.1797 40.5469 14.1797Z" fill="#FFC0B3"/>
<path d="M28.2422 28.2422H10.6641V22.9688C10.6641 18.1227 14.6054 14.1797 19.4531 14.1797C24.3008 14.1797 28.2422 18.1227 28.2422 22.9688V28.2422Z" fill="#7ADEF2"/>
<path d="M19.4531 14.1797C16.5452 14.1797 14.1797 11.8141 14.1797 8.90625C14.1797 5.99836 16.5452 3.63281 19.4531 3.63281C22.361 3.63281 24.7266 5.99836 24.7266 8.90625C24.7266 11.8141 22.361 14.1797 19.4531 14.1797Z" fill="#FFD5CC"/>
<path d="M38.7891 56.3672H21.2109V51.0938C21.2109 46.2477 25.1523 42.3047 30 42.3047C34.8477 42.3047 38.7891 46.2477 38.7891 51.0938V56.3672Z" fill="#7ADEF2"/>
<path d="M30 42.3047C27.0921 42.3047 24.7266 39.9391 24.7266 37.0312C24.7266 34.1234 27.0921 31.7578 30 31.7578C32.9079 31.7578 35.2734 34.1234 35.2734 37.0312C35.2734 39.9391 32.9079 42.3047 30 42.3047Z" fill="#FFD5CC"/>
<path d="M60 56.3672H42.4219V51.0938C42.4219 46.2477 46.3632 42.3047 51.2109 42.3047C56.0586 42.3047 60 46.2477 60 51.0938V56.3672Z" fill="#5CB8E6"/>
<path d="M51.2109 42.3047C48.303 42.3047 45.9375 39.9391 45.9375 37.0312C45.9375 34.1234 48.303 31.7578 51.2109 31.7578C54.1188 31.7578 56.4844 34.1234 56.4844 37.0312C56.4844 39.9391 54.1188 42.3047 51.2109 42.3047Z" fill="#FFC0B3"/>
<path d="M17.5781 56.3672H0V51.0938C0 46.2477 3.94137 42.3047 8.78906 42.3047C13.6368 42.3047 17.5781 46.2477 17.5781 51.0938V56.3672Z" fill="#7ADEF2"/>
<path d="M8.78906 42.3047C5.88117 42.3047 3.51562 39.9391 3.51562 37.0312C3.51562 34.1234 5.88117 31.7578 8.78906 31.7578C11.697 31.7578 14.0625 34.1234 14.0625 37.0312C14.0625 39.9391 11.697 42.3047 8.78906 42.3047Z" fill="#FFD5CC"/>
<path d="M38.7891 56.3672V51.0938C38.7891 46.2477 34.8477 42.3047 30 42.3047V56.3672H38.7891Z" fill="#5CB8E6"/>
<path d="M35.2734 37.0312C35.2734 34.1234 32.9079 31.7578 30 31.7578V42.3047C32.9079 42.3047 35.2734 39.9391 35.2734 37.0312Z" fill="#FFC0B3"/>
</svg>
