<svg xmlns="http://www.w3.org/2000/svg" xmlns:xlink="http://www.w3.org/1999/xlink" width="487" height="302" viewBox="0 0 487 302"><defs><style>.a{fill:#fff;stroke:rgba(139,189,67,0.5);}.b{font-size:18px;letter-spacing:0em;}.b,.c{font-family:Roboto-Bold, Roboto;font-weight:700;}.c{font-size:14px;}.d{fill:#e59011;}.e{stroke:none;}.f{fill:none;}.g{filter:url(#a);}</style><filter id="a" x="0" y="0" width="487" height="302" filterUnits="userSpaceOnUse"><feOffset dy="3" input="SourceAlpha"/><feGaussianBlur stdDeviation="10" result="b"/><feFlood flood-opacity="0.161"/><feComposite operator="in" in2="b"/><feComposite in="SourceGraphic"/></filter></defs><g transform="translate(-3044 -3796)"><g class="g" transform="matrix(1, 0, 0, 1, 3044, 3796)"><g class="a" transform="translate(30 27)"><rect class="e" width="427" height="242" rx="8"/><rect class="f" x="0.5" y="0.5" width="426" height="241" rx="7.5"/></g></g><text class="b" transform="translate(3285 3872)"><tspan x="-178.148" y="0">JOIN OUR CONTESTS AND EARN EXCITING </tspan><tspan x="-118.874" y="20">REWARDS AND GIVEAWAYS. </tspan><tspan x="0" y="40"></tspan></text><text class="c" transform="translate(3125 3946)"><tspan x="0" y="0">Gift Cards</tspan></text><text class="c" transform="translate(3252 3946)"><tspan x="0" y="0">Cash Prize </tspan></text><text class="c" transform="translate(3386 3946)"><tspan x="0" y="0">Gadgets</tspan></text><path class="d" d="M33.248,9.722H29.584a5.029,5.029,0,0,0-8.94-4.453L19.8,6.394l-.84-1.143a5.031,5.031,0,0,0-8.94,4.47H6.361a3.335,3.335,0,0,0-3.344,3.361L3,31.567a3.349,3.349,0,0,0,3.361,3.361H33.248a3.349,3.349,0,0,0,3.361-3.361V13.083A3.349,3.349,0,0,0,33.248,9.722Zm-8.4-3.361a1.68,1.68,0,1,1-1.68,1.68A1.685,1.685,0,0,1,24.846,6.361Zm-10.083,0a1.68,1.68,0,1,1-1.68,1.68A1.685,1.685,0,0,1,14.763,6.361ZM33.248,31.567H6.361V28.206H33.248Zm0-8.4H6.361V13.083H14.9l-3.5,4.756L14.124,19.8l4-5.445,1.68-2.285,1.68,2.285,4,5.445,2.722-1.966-3.5-4.756h8.537Z" transform="translate(3137.407 3961.963)"/><path class="d" d="M29.728,4.373A6.427,6.427,0,0,0,25.884.529C24.233,0,22.734,0,19.684,0H10.535C7.511,0,5.986,0,4.36.5A6.427,6.427,0,0,0,.517,4.36C0,6,0,7.511,0,10.535V19.7c0,3.037,0,4.537.5,6.175a6.427,6.427,0,0,0,3.844,3.844c1.638.517,3.15.517,6.175.517H19.7c3.037,0,4.549,0,6.175-.5a6.427,6.427,0,0,0,3.856-3.856c.517-1.638.517-3.15.517-6.175V10.56c0-3.037,0-4.549-.517-6.187Zm-7.775,5.835L20.78,11.379a.63.63,0,0,1-.844.013A6.3,6.3,0,0,0,15.878,9.9c-1.222,0-2.445.4-2.445,1.525s1.311,1.512,2.823,2.079C18.9,14.391,21.1,15.5,21.1,18.1c0,2.823-2.193,4.763-5.772,4.978L15,24.586a.617.617,0,0,1-.6.491H12.136l-.113-.013a.63.63,0,0,1-.479-.743l.353-1.6a8.242,8.242,0,0,1-3.629-1.978V20.73a.6.6,0,0,1,0-.857l1.26-1.222a.617.617,0,0,1,.844,0,6.094,6.094,0,0,0,4.272,1.663c1.638,0,2.735-.693,2.735-1.789s-1.109-1.386-3.2-2.167c-2.218-.794-4.322-1.915-4.322-4.537,0-3.05,2.533-4.537,5.532-4.675L15.7,5.6a.6.6,0,0,1,.6-.479H18.55l.126.013a.6.6,0,0,1,.466.718L18.8,7.574a9.458,9.458,0,0,1,3.125,1.752l.025.025a.6.6,0,0,1,0,.857Z" transform="translate(3273.112 3965.992)"/><path class="d" d="M10.053,18.334H9.047a4.024,4.024,0,0,0-4.021,4.029v4.006A4.025,4.025,0,0,0,9.047,30.4h1.005a2.013,2.013,0,0,0,2.011-2.014V20.348A2.012,2.012,0,0,0,10.053,18.334Zm13.068,0H22.116a2.012,2.012,0,0,0-2.01,2.014v8.034a2.013,2.013,0,0,0,2.01,2.014h1.005a4.025,4.025,0,0,0,4.021-4.029V22.362A4.025,4.025,0,0,0,23.121,18.334ZM16.084,2.25C7.094,2.25.287,9.735,0,18.334v7.037a1,1,0,0,0,1.005,1.005H2.011a1,1,0,0,0,1.005-1.005V18.334a13.068,13.068,0,0,1,26.137,0v7.037a1,1,0,0,0,1.005,1.005h1.005a1,1,0,0,0,1.005-1.005V18.334C31.881,9.735,25.074,2.25,16.084,2.25Z" transform="translate(3396.559 3964.771)"/></g></svg>