<svg xmlns="http://www.w3.org/2000/svg" width="21.004" height="21.004" viewBox="0 0 21.004 21.004"><defs><style>.a{fill:#f86f1f;}</style></defs><g transform="translate(0 0)"><path class="a" d="M8.1,7H1.532A1.533,1.533,0,0,1,0,5.47V1.532A1.533,1.533,0,0,1,1.532,0H8.1A1.533,1.533,0,0,1,9.627,1.532V5.47A1.533,1.533,0,0,1,8.1,7ZM1.532,1.313a.219.219,0,0,0-.219.219V5.47a.219.219,0,0,0,.219.219H8.1a.219.219,0,0,0,.219-.219V1.532A.219.219,0,0,0,8.1,1.313Zm0,0"/><path class="a" d="M8.1,225.585H1.532A1.533,1.533,0,0,1,0,224.053v-9.189a1.533,1.533,0,0,1,1.532-1.532H8.1a1.533,1.533,0,0,1,1.532,1.532v9.189A1.533,1.533,0,0,1,8.1,225.585Zm-6.564-10.94a.219.219,0,0,0-.219.219v9.189a.219.219,0,0,0,.219.219H8.1a.219.219,0,0,0,.219-.219v-9.189a.219.219,0,0,0-.219-.219Zm0,0" transform="translate(0 -204.58)"/><path class="a" d="M285.428,348.334h-6.564a1.533,1.533,0,0,1-1.532-1.531v-3.938a1.533,1.533,0,0,1,1.532-1.532h6.564a1.533,1.533,0,0,1,1.531,1.532V346.8A1.533,1.533,0,0,1,285.428,348.334Zm-6.564-5.689a.219.219,0,0,0-.219.219V346.8a.219.219,0,0,0,.219.219h6.564a.219.219,0,0,0,.219-.219v-3.938a.219.219,0,0,0-.219-.219Zm0,0" transform="translate(-265.955 -327.329)"/><path class="a" d="M285.428,12.253h-6.564a1.533,1.533,0,0,1-1.532-1.532V1.532A1.533,1.533,0,0,1,278.864,0h6.564a1.533,1.533,0,0,1,1.531,1.532v9.189A1.533,1.533,0,0,1,285.428,12.253Zm-6.564-10.94a.219.219,0,0,0-.219.219v9.189a.219.219,0,0,0,.219.219h6.564a.219.219,0,0,0,.219-.219V1.532a.219.219,0,0,0-.219-.219Zm0,0" transform="translate(-265.955)"/></g></svg>