<svg xmlns="http://www.w3.org/2000/svg" xmlns:xlink="http://www.w3.org/1999/xlink" width="36.397" height="36.397" viewBox="0 0 36.397 36.397"><defs><style>.a{fill:#fff;}.b{filter:url(#c);}.c{filter:url(#a);}</style><filter id="a" x="0" y="3.253" width="33.144" height="33.144" filterUnits="userSpaceOnUse"><feOffset dy="3" input="SourceAlpha"/><feGaussianBlur stdDeviation="3" result="b"/><feFlood flood-opacity="0.161"/><feComposite operator="in" in2="b"/><feComposite in="SourceGraphic"/></filter><filter id="c" x="12.394" y="0" width="24.003" height="24.003" filterUnits="userSpaceOnUse"><feOffset dy="3" input="SourceAlpha"/><feGaussianBlur stdDeviation="3" result="d"/><feFlood flood-opacity="0.161"/><feComposite operator="in" in2="d"/><feComposite in="SourceGraphic"/></filter></defs><g transform="translate(9 6)"><g class="c" transform="matrix(1, 0, 0, 1, -9, -6)"><path class="a" d="M0,79.2v3.833H3.833L15.144,71.726l-3.833-3.833Z" transform="translate(9 -58.64)"/></g><g class="b" transform="matrix(1, 0, 0, 1, -9, -6)"><path class="a" d="M264.37,2.686,261.983.3a1.024,1.024,0,0,0-1.446,0L258.666,2.17,262.5,6l1.871-1.871A1.024,1.024,0,0,0,264.37,2.686Z" transform="translate(-237.27 6)"/></g></g></svg>