<svg width="60" height="60" viewBox="0 0 60 60" fill="none" xmlns="http://www.w3.org/2000/svg">
<path d="M0 22.5L28.89 40.8863C29.22 41.13 29.61 41.25 30 41.25C30.39 41.25 30.78 41.13 31.11 40.8863L60 22.5L31.125 0.375039C30.4575 -0.123711 29.5425 -0.123711 28.875 0.375039L0 22.5Z" fill="#64B5F6"/>
<path d="M48.75 0H11.25C9.18375 0 7.5 1.68375 7.5 3.75V45C7.5 46.035 8.34 46.875 9.375 46.875H50.625C51.66 46.875 52.5 46.035 52.5 45V3.75C52.5 1.68375 50.82 0 48.75 0Z" fill="#ECEFF1"/>
<path d="M16.875 11.25H43.125C44.16 11.25 45 10.41 45 9.375C45 8.34 44.16 7.5 43.125 7.5H16.875C15.84 7.5 15 8.34 15 9.375C15 10.41 15.84 11.25 16.875 11.25Z" fill="#90A4AE"/>
<path d="M43.125 15H16.875C15.84 15 15 15.84 15 16.875C15 17.91 15.84 18.75 16.875 18.75H43.125C44.16 18.75 45 17.91 45 16.875C45 15.84 44.16 15 43.125 15Z" fill="#90A4AE"/>
<path d="M31.875 22.5H16.875C15.84 22.5 15 23.34 15 24.375C15 25.41 15.84 26.25 16.875 26.25H31.875C32.91 26.25 33.75 25.41 33.75 24.375C33.75 23.34 32.91 22.5 31.875 22.5Z" fill="#90A4AE"/>
<path d="M31.11 40.8862C30.78 41.13 30.39 41.25 30 41.25C29.61 41.25 29.22 41.13 28.89 40.8862L0 22.5V56.25C0 58.32 1.68 60 3.75 60H56.25C58.32 60 60 58.32 60 56.25V22.5L31.11 40.8862Z" fill="#1E88E5"/>
<path d="M56.25 60H3.75C1.64625 60 0 58.3538 0 56.25C0 55.6537 0.285 55.0913 0.765 54.7388L28.89 35.9888C29.22 35.745 29.61 35.625 30 35.625C30.39 35.625 30.78 35.745 31.11 35.9888L59.235 54.7388C59.715 55.0913 60 55.6537 60 56.25C60 58.3538 58.3537 60 56.25 60Z" fill="#2196F3"/>
</svg>
