<svg xmlns="http://www.w3.org/2000/svg" xmlns:xlink="http://www.w3.org/1999/xlink" width="453.667" height="301.076" viewBox="0 0 453.667 301.076"><defs><style>.a{fill:#fff;}.b{fill:#e0e0e0;opacity:0.23;}.c{fill:none;stroke:#707070;stroke-linecap:round;stroke-linejoin:round;stroke-width:3px;}.d{fill:#f86f1f;}.e{font-size:23px;}.e,.f,.l,.m{font-family:Roboto-Regular, Roboto;}.e,.f,.g{letter-spacing:0em;}.f,.g{font-size:15px;}.g,.j{font-family:Roboto-Bold, Roboto;font-weight:700;}.h{fill:#f9a000;}.i{fill:#ed0006;opacity:0.5;}.j,.l{fill:#8bbd43;}.j,.m{font-size:9px;}.k{fill:#000;}.l{font-weight:400;}.m{fill:#707070;}.n{filter:url(#a);}</style><filter id="a" x="0" y="0" width="453.667" height="301.076" filterUnits="userSpaceOnUse"><feOffset dy="3" input="SourceAlpha"/><feGaussianBlur stdDeviation="10" result="b"/><feFlood flood-opacity="0.2"/><feComposite operator="in" in2="b"/><feComposite in="SourceGraphic"/></filter></defs><g transform="translate(-4507.166 -2731.962)"><g transform="translate(4537 2758.962)"><g class="n" transform="matrix(1, 0, 0, 1, -29.83, -27)"><rect class="a" width="393.667" height="241.076" rx="36" transform="translate(30 27)"/></g><path class="b" d="M376.181,0A17.819,17.819,0,0,1,394,17.819V223.234a17.819,17.819,0,0,1-17.819,17.819H17.819A17.819,17.819,0,0,1,0,223.234Z" transform="translate(0 0.012)"/><g transform="translate(375.158 27.121)"><path class="c" d="M18.95,17.725A1.225,1.225,0,1,1,17.725,16.5,1.225,1.225,0,0,1,18.95,17.725Z" transform="translate(-16.5 -7.927)"/><path class="c" d="M18.95,7.225A1.225,1.225,0,1,1,17.725,6,1.225,1.225,0,0,1,18.95,7.225Z" transform="translate(-16.5 -6)"/><path class="c" d="M18.95,28.225A1.225,1.225,0,1,1,17.725,27,1.225,1.225,0,0,1,18.95,28.225Z" transform="translate(-16.5 -9.853)"/></g></g><path class="d" d="M0,5.754V35.166c0,3.174,2.291,5.754,5.109,5.754H25.544c2.818,0,5.109-2.58,5.109-5.754V7.507s-.015-3.617-1.625-5.493S24.214,0,24.214,0H5.109C2.291,0,0,2.58,0,5.754Zm17.881,9.591H12.772V9.591h5.109Zm7.663,0H20.435V9.591H22.99a2.727,2.727,0,0,1,2.554,2.877ZM20.435,26.854h5.109v2.877a2.727,2.727,0,0,1-2.554,2.877H20.435Zm-7.663,0h5.109v5.754H12.772Zm-7.663,0h5.109v5.754H7.663a2.727,2.727,0,0,1-2.554-2.877Zm0-8.632H25.544v5.754H5.109Zm0-5.754A2.727,2.727,0,0,1,7.663,9.591h2.554v5.754H5.109Z" transform="matrix(0.017, -1, 1, 0.017, 4559.779, 2857.442)"/><text class="e" transform="translate(4568.768 2891.117)"><tspan x="0" y="0" xml:space="preserve">* * * *    * * * *    * * * *     2 4 5 6</tspan></text><text class="f" transform="translate(4568.768 2920.136)"><tspan x="0" y="0">16/21</tspan></text><text class="g" transform="translate(4568.768 2964.378)"><tspan x="0" y="0">God&apos;swill Augustine</tspan></text><text class="f" transform="translate(4650.933 2920.136)"><tspan x="0" y="0">16/22</tspan></text><g transform="translate(4833.32 2939.543)"><circle class="h" cx="19.864" cy="19.864" r="19.864" transform="translate(26.184 0)"/><circle class="i" cx="19.864" cy="19.864" r="19.864" transform="translate(0 0)"/></g><text class="j" transform="translate(4556.127 2795.952)"><tspan class="k" x="0" y="0">GLOB</tspan><tspan class="l" y="0">FINANCIAL</tspan></text><text class="m" transform="translate(4647.321 2795.952)"><tspan x="0" y="0">Virtual Card</tspan></text></g></svg>