<svg xmlns="http://www.w3.org/2000/svg" xmlns:xlink="http://www.w3.org/1999/xlink" width="346" height="329.376" viewBox="0 0 346 329.376"><defs><style>.a{fill:#f4f7fa;}.b{fill:url(#a);}.c{opacity:0.5;clip-path:url(#b);}.d,.v,.w{opacity:0.7;}.e,.w{fill:#fff;}.f{fill:url(#c);}.g{clip-path:url(#d);}.h{fill:url(#e);}.i{clip-path:url(#f);}.j{fill:url(#g);}.k{fill:url(#h);}.l{fill:url(#i);}.m{fill:url(#j);}.n{fill:url(#k);}.o{fill:#d8dee8;}.p{opacity:0.15;}.q{fill:url(#l);}.r{fill:url(#m);}.s{fill:url(#n);}.t{fill:url(#o);}.u{fill:url(#p);}.v{fill:url(#q);}.x{fill:url(#r);}.ad,.cd,.cg,.cm,.y{opacity:0.3;}.y{fill:url(#s);}.z{fill:url(#t);}.aa{opacity:0.2;fill:url(#u);}.ab{fill:url(#v);}.ac{fill:url(#w);}.ad{fill:url(#x);}.ae{opacity:0.9;}.af{fill:url(#y);}.ag{fill:url(#z);}.ah{fill:url(#aa);}.ai{fill:url(#ab);}.aj{fill:#fcb048;}.ak{fill:url(#ac);}.al{fill:url(#ad);}.am{fill:url(#ae);}.an{fill:url(#af);}.ao{fill:url(#ag);}.ap{fill:url(#ak);}.aq{fill:url(#al);}.ar{fill:url(#am);}.as{fill:url(#an);}.at{fill:url(#ao);}.au{fill:url(#ap);}.av{fill:url(#aq);}.aw{fill:url(#ar);}.ax{fill:url(#as);}.ay{fill:url(#at);}.az{fill:url(#au);}.ba{fill:url(#av);}.bb{fill:url(#aw);}.bc{fill:url(#ay);}.bd{fill:url(#ba);}.be{fill:url(#bb);}.bf{fill:url(#bc);}.bg{fill:url(#bd);}.bh{fill:url(#be);}.bi{fill:url(#bf);}.bj{fill:url(#bg);}.bk{fill:url(#bh);}.bl{fill:url(#bi);}.bm{fill:url(#bk);}.bn{fill:url(#bl);}.bo{fill:url(#bm);}.bp{fill:url(#bn);}.bq{fill:url(#bo);}.br{fill:url(#bp);}.bs{fill:url(#bq);}.bt{fill:url(#bu);}.bu{fill:url(#bv);}.bv{fill:url(#bw);}.bw{fill:url(#bx);}.bx{fill:url(#by);}.by{fill:url(#bz);}.bz{fill:url(#ca);}.ca{fill:url(#cb);}.cb{fill:url(#cc);}.cc{fill:url(#cd);}.cd{fill:url(#ce);}.ce{fill:url(#cf);}.cf{fill:url(#cg);}.cg{fill:url(#ch);}.ch{fill:url(#ci);}.ci,.cm{fill:url(#cj);}.cj{fill:url(#ck);}.ck{fill:url(#cl);}.cl{fill:url(#cm);}.cn{fill:url(#co);}</style><linearGradient id="a" x1="0.246" y1="0.136" x2="0.486" y2="0.445" gradientUnits="objectBoundingBox"><stop offset="0" stop-color="#aa80f9"/><stop offset="0.996" stop-color="#6165d7"/></linearGradient><clipPath id="b"><path d="M459.9,515.188c3.222.685,25.913,5.5,40.651-9.933,1.713-1.8,9.869-10.34,9.911-22.017.053-12.084-8.638-17.468-5.512-24.393,2.783-6.165,10.457-3.65,16.633-10.918,6.261-7.385,8.017-21.375,1.006-27.882-4.827-4.485-13.144-4.806-19.191-2.087-10.457,4.7-7.91,15.7-18.078,25.485-11.6,11.164-21.535,3.243-33.78,13.251-14.171,11.581-19.791,37.687-9.184,50.22C447.046,512.459,453.671,513.861,459.9,515.188Z" transform="translate(-436.853 -416.224)"/></clipPath><linearGradient id="c" x1="0.531" y1="0.475" x2="0.809" y2="0.796" xlink:href="#a"/><clipPath id="d"><path d="M419.831,412.162c16.547,4.26,30.879-4.688,34.326-6.85,2.012-1.252,18.217-11.72,22.616-30.869,3.95-17.2-5.17-26.009,2.451-41.979a47.613,47.613,0,0,1,8.905-12.555c8.723-8.466,14.268-6.251,20.679-13.315,6.861-7.557,7.332-17.586,7.632-24.115.364-7.985.706-15.327-4.453-20.508-5.041-5.063-13.754-6.476-20.476-4.024-10.329,3.768-8.231,13.861-21.31,23.258-8.252,5.93-11.121,3.361-17.447,9.515-6.882,6.69-5.758,11.913-11.485,20-5.833,8.231-11.816,9.6-21.278,15.691-9.023,5.8-28.321,18.207-32.1,35.4C383.739,380.63,397.889,406.51,419.831,412.162Z" transform="translate(-387.169 -256.774)"/></clipPath><linearGradient id="e" x1="0.407" y1="0.144" x2="0.681" y2="1.218" gradientUnits="objectBoundingBox"><stop offset="0.004" stop-color="#e38ddd"/><stop offset="1" stop-color="#9571f6"/></linearGradient><clipPath id="f"><path d="M341.791,372c-7.214-12.833,5.32-36.434,17.318-48.84,7.706-7.963,12.512-8.531,17.125-17.3,6.369-12.116.974-18.217,7.128-31.04,5.6-11.677,11.4-9.558,17.928-21.289,7.674-13.807,1.188-20.144,7.2-33.951,6.765-15.509,24.9-30.269,37.473-25.752,8.488,3.05,13.839,14.642,13.615,24.5-.353,15.242-13.818,17.436-18.474,35.749a32.14,32.14,0,0,0-1.1,9.719,67.328,67.328,0,0,0,3.318,17.339c3.875,13.133-.942,26.277-2.8,31.329-4.87,13.283-11.11,12.041-20.893,28.129-10.072,16.558-5.9,21.888-13.037,30.012C391.337,387.972,350.835,388.089,341.791,372Z" transform="translate(-339.669 -193.007)"/></clipPath><linearGradient id="g" x1="1.353" y1="1.702" x2="0.383" y2="2.33" gradientUnits="objectBoundingBox"><stop offset="0" stop-color="#26264f"/><stop offset="0.004" stop-color="#f86f1f"/><stop offset="1" stop-color="#444b8c"/></linearGradient><linearGradient id="h" x1="0.02" y1="0.501" x2="1.126" y2="0.479" gradientUnits="objectBoundingBox"><stop offset="0" stop-color="#444b8c"/><stop offset="0.996" stop-color="#26264f"/></linearGradient><linearGradient id="i" x1="0.596" y1="2.315" x2="1.168" y2="1.82" xlink:href="#h"/><linearGradient id="j" x1="0.92" y1="0.933" x2="0.048" y2="0.063" gradientUnits="objectBoundingBox"><stop offset="0.494" stop-color="#ebeff2"/><stop offset="1" stop-color="#fff"/></linearGradient><linearGradient id="k" x1="0.541" y1="-1.091" x2="0.458" y2="2.151" xlink:href="#h"/><linearGradient id="l" x1="1.325" y1="1.593" x2="0.215" y2="2.222" gradientUnits="objectBoundingBox"><stop offset="0" stop-color="#e38ddd"/><stop offset="0.004" stop-color="#f86f1f"/><stop offset="1" stop-color="#9571f6"/></linearGradient><linearGradient id="m" x1="0.418" y1="0.923" x2="0.578" y2="0.097" gradientUnits="objectBoundingBox"><stop offset="0" stop-color="#311944"/><stop offset="1" stop-color="#893976"/></linearGradient><linearGradient id="n" x1="-0.38" y1="3.284" x2="0.269" y2="1.087" xlink:href="#m"/><linearGradient id="o" x1="0.856" y1="-0.267" x2="0.086" y2="1.385" gradientUnits="objectBoundingBox"><stop offset="0" stop-color="#fcb148"/><stop offset="0.052" stop-color="#f86f1f"/><stop offset="0.142" stop-color="#ffc244"/><stop offset="0.318" stop-color="#f86f1f"/><stop offset="0.485" stop-color="#fdb946"/><stop offset="0.775" stop-color="#f99c4d"/><stop offset="0.866" stop-color="#f8924f"/><stop offset="1" stop-color="#f86f1f"/></linearGradient><linearGradient id="p" x1="0.734" y1="0.208" x2="-2.546" y2="4.524" gradientUnits="objectBoundingBox"><stop offset="0" stop-color="#fcb148"/><stop offset="0.052" stop-color="#fdba46"/><stop offset="0.142" stop-color="#ffc244"/><stop offset="0.318" stop-color="#ffc444"/><stop offset="0.485" stop-color="#fdb946"/><stop offset="0.775" stop-color="#f99c4d"/><stop offset="0.866" stop-color="#f8924f"/><stop offset="1" stop-color="#f8924f"/></linearGradient><linearGradient id="q" y1="0.5" x2="1" y2="0.5" gradientUnits="objectBoundingBox"><stop offset="0" stop-color="#ff9085"/><stop offset="1" stop-color="#f86f1f"/></linearGradient><linearGradient id="r" x1="0.096" y1="0.569" x2="1.094" y2="0.569" xlink:href="#q"/><linearGradient id="s" x1="0.169" y1="0.575" x2="1.189" y2="0.575" gradientUnits="objectBoundingBox"><stop offset="0" stop-color="#ff9085"/><stop offset="1" stop-color="#fb6fbb"/></linearGradient><linearGradient id="t" x1="0.353" y1="1.855" x2="0.504" y2="0.23" xlink:href="#m"/><linearGradient id="u" x1="0.696" y1="0.523" x2="0.413" y2="2.16" gradientUnits="objectBoundingBox"><stop offset="0.004" stop-color="#6165d7"/><stop offset="1" stop-color="#aa80f9"/></linearGradient><linearGradient id="v" x1="0.147" y1="0.764" x2="1.146" y2="0.764" xlink:href="#s"/><linearGradient id="w" x1="0.251" y1="1.82" x2="1.249" y2="1.82" xlink:href="#h"/><linearGradient id="x" x1="0.166" y1="0.829" x2="1.175" y2="0.829" xlink:href="#s"/><linearGradient id="y" x1="0.515" y1="0.143" x2="0.925" y2="1.171" gradientUnits="objectBoundingBox"><stop offset="0.004" stop-color="#ebeff2"/><stop offset="1" stop-color="#fff"/></linearGradient><linearGradient id="z" x1="-0.086" y1="0.5" x2="1.065" y2="0.5" xlink:href="#p"/><linearGradient id="aa" x1="0.495" y1="0.179" x2="0.556" y2="4.091" gradientUnits="objectBoundingBox"><stop offset="0" stop-color="#ffdb44"/><stop offset="1" stop-color="#feef06"/></linearGradient><linearGradient id="ab" x1="0.492" y1="-0.777" x2="0.511" y2="1.295" xlink:href="#aa"/><linearGradient id="ac" x1="-1.984" y1="-38.782" x2="-1.965" y2="-36.345" gradientUnits="objectBoundingBox"><stop offset="0.004" stop-color="#f36f56"/><stop offset="0.306" stop-color="#f99c4c"/><stop offset="0.545" stop-color="#fdb946"/><stop offset="0.682" stop-color="#ffc444"/><stop offset="0.804" stop-color="#ffc244"/><stop offset="0.867" stop-color="#feba46"/><stop offset="0.916" stop-color="#fcad49"/><stop offset="0.958" stop-color="#f99a4d"/><stop offset="0.996" stop-color="#f58152"/><stop offset="1" stop-color="#f57e53"/></linearGradient><linearGradient id="ad" x1="-0.085" y1="0.5" x2="1.065" y2="0.5" xlink:href="#p"/><linearGradient id="ae" x1="0.495" y1="0.179" x2="0.556" y2="4.092" xlink:href="#aa"/><linearGradient id="af" x1="0.492" y1="-0.776" x2="0.511" y2="1.296" xlink:href="#aa"/><linearGradient id="ag" x1="-1.702" y1="-35.127" x2="-1.683" y2="-32.69" xlink:href="#ac"/><linearGradient id="ak" x1="-1.945" y1="-31.484" x2="-1.926" y2="-29.047" xlink:href="#ac"/><linearGradient id="al" x1="-0.085" y1="0.5" x2="1.065" y2="0.5" xlink:href="#p"/><linearGradient id="am" x1="0.495" y1="0.179" x2="0.556" y2="4.091" xlink:href="#aa"/><linearGradient id="an" x1="0.492" y1="-0.776" x2="0.511" y2="1.295" xlink:href="#aa"/><linearGradient id="ao" x1="-2.093" y1="-27.831" x2="-2.074" y2="-25.394" xlink:href="#ac"/><linearGradient id="ap" x1="-0.086" y1="0.5" x2="1.065" y2="0.5" xlink:href="#p"/><linearGradient id="aq" x1="0.495" y1="0.179" x2="0.556" y2="4.091" xlink:href="#aa"/><linearGradient id="ar" x1="0.492" y1="-0.776" x2="0.511" y2="1.295" xlink:href="#aa"/><linearGradient id="as" x1="-1.984" y1="-23.889" x2="-1.965" y2="-21.452" xlink:href="#ac"/><linearGradient id="at" x1="-0.085" y1="0.5" x2="1.065" y2="0.5" xlink:href="#p"/><linearGradient id="au" x1="0.495" y1="0.178" x2="0.556" y2="4.091" xlink:href="#aa"/><linearGradient id="av" x1="0.492" y1="-0.777" x2="0.511" y2="1.294" xlink:href="#aa"/><linearGradient id="aw" x1="-1.702" y1="-20.236" x2="-1.683" y2="-17.799" xlink:href="#ac"/><linearGradient id="ay" x1="0.495" y1="0.178" x2="0.556" y2="4.091" xlink:href="#aa"/><linearGradient id="ba" x1="-1.945" y1="-16.592" x2="-1.926" y2="-14.156" xlink:href="#ac"/><linearGradient id="bb" x1="-0.086" y1="0.5" x2="1.065" y2="0.5" xlink:href="#p"/><linearGradient id="bc" x1="0.495" y1="0.179" x2="0.556" y2="4.091" xlink:href="#aa"/><linearGradient id="bd" x1="0.492" y1="-0.776" x2="0.511" y2="1.295" xlink:href="#aa"/><linearGradient id="be" x1="-1.819" y1="-12.937" x2="-1.8" y2="-10.5" xlink:href="#ac"/><linearGradient id="bf" x1="-0.023" y1="-1.155" x2="1.682" y2="-1.155" xlink:href="#p"/><linearGradient id="bg" x1="0.805" y1="-1.399" x2="0.908" y2="-0.779" xlink:href="#aa"/><linearGradient id="bh" x1="0.804" y1="-1.425" x2="0.835" y2="-1.234" xlink:href="#aa"/><linearGradient id="bi" x1="-7.073" y1="0.074" x2="-7.04" y2="0.267" xlink:href="#ac"/><linearGradient id="bk" x1="0.495" y1="0.179" x2="0.556" y2="4.092" xlink:href="#aa"/><linearGradient id="bl" x1="0.492" y1="-0.776" x2="0.511" y2="1.296" xlink:href="#aa"/><linearGradient id="bm" x1="-0.154" y1="-47.228" x2="-0.135" y2="-44.791" xlink:href="#ac"/><linearGradient id="bn" x1="-0.085" y1="0.5" x2="1.065" y2="0.5" xlink:href="#p"/><linearGradient id="bo" x1="0.495" y1="0.179" x2="0.556" y2="4.091" xlink:href="#aa"/><linearGradient id="bp" x1="0.492" y1="-0.777" x2="0.511" y2="1.295" xlink:href="#aa"/><linearGradient id="bq" x1="0.128" y1="-43.575" x2="0.147" y2="-41.138" xlink:href="#ac"/><linearGradient id="bu" x1="-0.115" y1="-39.932" x2="-0.097" y2="-37.495" xlink:href="#ac"/><linearGradient id="bv" x1="-0.086" y1="0.5" x2="1.065" y2="0.5" xlink:href="#p"/><linearGradient id="bw" x1="0.495" y1="0.179" x2="0.556" y2="4.092" xlink:href="#aa"/><linearGradient id="bx" x1="0.492" y1="-0.776" x2="0.511" y2="1.296" xlink:href="#aa"/><linearGradient id="by" x1="-0.263" y1="-36.277" x2="-0.244" y2="-33.84" xlink:href="#ac"/><linearGradient id="bz" x1="-11.004" y1="2.459" x2="-11.654" y2="0.876" gradientUnits="objectBoundingBox"><stop offset="0" stop-color="#311944"/><stop offset="1" stop-color="#a03976"/></linearGradient><linearGradient id="ca" x1="1.024" y1="0.084" x2="1.916" y2="1.386" gradientUnits="objectBoundingBox"><stop offset="0" stop-color="#8bbd43"/><stop offset="0.004" stop-color="#e38ddd"/><stop offset="1" stop-color="#9571f6"/></linearGradient><linearGradient id="cb" x1="-0.527" y1="0.5" x2="0.473" y2="0.5" xlink:href="#a"/><linearGradient id="cc" x1="-0.527" y1="0.5" x2="0.473" y2="0.5" gradientUnits="objectBoundingBox"><stop offset="0" stop-color="#444b8c"/><stop offset="0.996" stop-color="#3e4177"/></linearGradient><linearGradient id="cd" x1="-2.541" y1="-1.041" x2="-2.117" y2="2.495" xlink:href="#h"/><linearGradient id="ce" x1="-0.616" y1="0.499" x2="0.549" y2="0.499" xlink:href="#cc"/><linearGradient id="cf" x1="-1.27" y1="1.655" x2="-0.482" y2="1.136" xlink:href="#bz"/><linearGradient id="cg" x1="0.388" y1="0.282" x2="1.252" y2="0.867" xlink:href="#cc"/><linearGradient id="ch" x1="-0.598" y1="0.501" x2="0.402" y2="0.501" xlink:href="#e"/><linearGradient id="ci" x1="2.173" y1="-0.107" x2="1.583" y2="0.612" xlink:href="#h"/><linearGradient id="cj" x1="2.148" y1="0.5" x2="3.148" y2="0.5" xlink:href="#ca"/><linearGradient id="ck" x1="1.024" y1="0.084" x2="1.916" y2="1.386" gradientUnits="objectBoundingBox"><stop offset="0" stop-color="#8bbd43"/><stop offset="0.004" stop-color="#8bbd43"/><stop offset="1" stop-color="#8bbd43"/></linearGradient><linearGradient id="cl" x1="2.936" y1="2.269" x2="2.507" y2="-0.503" xlink:href="#bz"/><linearGradient id="cm" x1="12.77" y1="-2.947" x2="8.046" y2="0.55" xlink:href="#bz"/><linearGradient id="co" x1="13.811" y1="-1.597" x2="12.342" y2="0.736" xlink:href="#bz"/></defs><g transform="translate(-54.751 -55.463)"><g transform="translate(54.751 55.463)"><g transform="translate(0)"><path class="a" d="M402.148,147.4c-2.682-3.274-50.354-59.466-126.513-54.685-10.763.671-75.818,6.005-100.66,48.762-19.345,33.289,1.134,62.822-22.465,85.5-20.563,19.759-45.82,6.677-58.46,22.656-19.247,24.34,11.4,90.082,58.5,126.751,52.183,40.637,144.932,62.81,213.936,15.12,68.334-47.22,67.809-131.355,67.724-144.674C434.1,228.813,433.828,186.056,402.148,147.4Z" transform="translate(-88.214 -92.423)"/><g transform="translate(225.908 200.325)"><path class="b" d="M459.9,515.188c3.222.685,25.913,5.5,40.651-9.933,1.713-1.8,9.869-10.34,9.911-22.017.053-12.084-8.638-17.468-5.512-24.393,2.783-6.165,10.457-3.65,16.633-10.918,6.261-7.385,8.017-21.375,1.006-27.882-4.827-4.485-13.144-4.806-19.191-2.087-10.457,4.7-7.91,15.7-18.078,25.485-11.6,11.164-21.535,3.243-33.78,13.251-14.171,11.581-19.791,37.687-9.184,50.22C447.046,512.459,453.671,513.861,459.9,515.188Z" transform="translate(-436.853 -416.224)"/><g class="c"><g class="d" transform="translate(1.822 0.077)"><path class="e" d="M440.525,510.976a.226.226,0,0,1-.193-.118.2.2,0,0,1,.1-.278c19.983-9.5,34.379-22.06,42.781-37.312a85.235,85.235,0,0,0,5.63-12.93,63.473,63.473,0,0,1,7.2-15.07C504.9,432,519.1,422.277,538.268,416.379a.216.216,0,0,1,.268.139.222.222,0,0,1-.139.268c-19.073,5.876-33.2,15.531-42,28.728a63.6,63.6,0,0,0-7.16,14.985,85.929,85.929,0,0,1-5.662,12.983c-8.445,15.338-22.895,27.947-42.963,37.494C440.589,510.965,440.557,510.976,440.525,510.976Z" transform="translate(-440.309 -416.371)"/></g><g class="d" transform="translate(61.272 19.767)"><path class="e" d="M565.76,459.88a49.031,49.031,0,0,1-12.48-1.659.208.208,0,0,1-.15-.257.2.2,0,0,1,.257-.15c20.294,5.32,32.87-3.939,33-4.035a.214.214,0,0,1,.257.342C586.546,454.2,578.829,459.88,565.76,459.88Z" transform="translate(-553.122 -453.734)"/></g><g class="d" transform="translate(23.691 30.534)"><path class="e" d="M487.106,520.77a.207.207,0,0,1-.182-.107,39.56,39.56,0,0,1-4.988-16.162c-1.22-14.888,6.615-26.127,10.04-30.258a.213.213,0,1,1,.332.268c-3.393,4.1-11.153,15.231-9.943,29.959A39.22,39.22,0,0,0,487.3,520.46a.211.211,0,0,1-.086.289A.318.318,0,0,1,487.106,520.77Z" transform="translate(-481.808 -474.165)"/></g><g class="d" transform="translate(18.511 62.858)"><path class="e" d="M493.021,562.243a59.845,59.845,0,0,1-20.9-4.174.228.228,0,0,1-.128-.278.219.219,0,0,1,.278-.129c14.161,5.3,26.684,5.512,37.216.642,15.242-7.043,20.968-22.509,21.021-22.659a.21.21,0,1,1,.4.139c-.053.161-5.844,15.788-21.246,22.905A38.924,38.924,0,0,1,493.021,562.243Z" transform="translate(-471.979 -535.503)"/></g></g></g><g transform="translate(199.725 104.57)"><path class="f" d="M419.831,412.162c16.547,4.26,30.879-4.688,34.326-6.85,2.012-1.252,18.217-11.72,22.616-30.869,3.95-17.2-5.17-26.009,2.451-41.979a47.613,47.613,0,0,1,8.905-12.555c8.723-8.466,14.268-6.251,20.679-13.315,6.861-7.557,7.332-17.586,7.632-24.115.364-7.985.706-15.327-4.453-20.508-5.041-5.063-13.754-6.476-20.476-4.024-10.329,3.768-8.231,13.861-21.31,23.258-8.252,5.93-11.121,3.361-17.447,9.515-6.882,6.69-5.758,11.913-11.485,20-5.833,8.231-11.816,9.6-21.278,15.691-9.023,5.8-28.321,18.207-32.1,35.4C383.739,380.63,397.889,406.51,419.831,412.162Z" transform="translate(-387.169 -256.774)"/><g class="g"><g class="d" transform="translate(14.991 -6.92)"><path class="e" d="M415.829,405.662a.213.213,0,0,1-.193-.118.2.2,0,0,1,.107-.278c24.81-11.6,39.078-25.421,42.385-41.08,1.327-6.283.835-12.127.353-17.789-.739-8.734-1.434-16.976,4.174-26.352,4.827-8.07,12.78-13.882,17.532-17.361,3.425-2.5,6.2-4.506,8.638-6.261,6.272-4.528,9.719-7.011,13.7-10.468,10.2-8.841,16.5-23.023,18.72-42.129a.208.208,0,0,1,.235-.182.2.2,0,0,1,.182.236c-2.237,19.223-8.584,33.491-18.87,42.4-3.992,3.468-7.45,5.962-13.732,10.489-2.44,1.766-5.213,3.768-8.638,6.262-4.731,3.457-12.641,9.237-17.425,17.233-5.544,9.258-4.849,17.436-4.121,26.106.482,5.684.974,11.57-.364,17.907-3.339,15.8-17.682,29.713-42.621,41.369C415.894,405.651,415.861,405.662,415.829,405.662Z" transform="translate(-415.616 -243.643)"/></g><g class="d" transform="translate(96.681 31.363)"><path class="e" d="M585.484,328.056a52.16,52.16,0,0,1-14.707-2.387.213.213,0,0,1,.128-.407c8.188,2.462,19.78,4.249,28.492-1.209a17.707,17.707,0,0,0,6.925-7.632.214.214,0,1,1,.4.161,18.274,18.274,0,0,1-7.1,7.846A26.475,26.475,0,0,1,585.484,328.056Z" transform="translate(-570.63 -316.289)"/></g><g class="d" transform="translate(68.548 22.178)"><path class="e" d="M521.56,334.475a.211.211,0,0,1-.15-.064c-5.277-5.138-5.544-12.908-.781-22.488a64.261,64.261,0,0,1,8.841-12.994.212.212,0,0,1,.31.289A64.262,64.262,0,0,0,521,312.126c-3.254,6.55-5.78,15.68.7,21.985a.207.207,0,0,1,0,.3A.172.172,0,0,1,521.56,334.475Z" transform="translate(-517.245 -298.859)"/></g><g class="d" transform="translate(58.178 82.044)"><path class="e" d="M497.781,439.682a.218.218,0,0,1-.214-.182.208.208,0,0,1,.182-.235c15.209-1.894,23.762-9.044,28.257-14.706a32.7,32.7,0,0,0,6.176-11.934.214.214,0,1,1,.417.1,33.3,33.3,0,0,1-6.251,12.105c-4.549,5.726-13.187,12.951-28.535,14.867C497.8,439.671,497.792,439.682,497.781,439.682Z" transform="translate(-497.566 -412.459)"/></g><g class="d" transform="translate(18.723 71.651)"><path class="e" d="M441.228,463.256a.207.207,0,0,1-.107-.032,34.176,34.176,0,0,1-15.766-18.945c-2.323-6.615-3.125-14.46-2.4-23.3a104.868,104.868,0,0,1,6.636-28.107.214.214,0,1,1,.4.161,104.286,104.286,0,0,0-6.6,27.989c-.728,8.788.075,16.569,2.376,23.13a33.8,33.8,0,0,0,15.573,18.71.21.21,0,0,1,.075.289A.188.188,0,0,1,441.228,463.256Z" transform="translate(-422.698 -392.737)"/></g></g></g><g transform="translate(162.907 67.464)"><path class="h" d="M341.791,372c-7.214-12.833,5.32-36.434,17.318-48.84,7.706-7.963,12.512-8.531,17.125-17.3,6.369-12.116.974-18.217,7.128-31.04,5.6-11.677,11.4-9.558,17.928-21.289,7.674-13.807,1.188-20.144,7.2-33.951,6.765-15.509,24.9-30.269,37.473-25.752,8.488,3.05,13.839,14.642,13.615,24.5-.353,15.242-13.818,17.436-18.474,35.749a32.14,32.14,0,0,0-1.1,9.719,67.328,67.328,0,0,0,3.318,17.339c3.875,13.133-.942,26.277-2.8,31.329-4.87,13.283-11.11,12.041-20.893,28.129-10.072,16.558-5.9,21.888-13.037,30.012C391.337,387.972,350.835,388.089,341.791,372Z" transform="translate(-339.669 -193.007)"/><g class="i"><g class="d" transform="translate(4.981 -0.43)"><path class="e" d="M349.334,384.139a.215.215,0,0,1-.2-.15.213.213,0,0,1,.139-.268c19.694-6.572,32.838-16.344,39.057-29.049,3.093-6.326,3.725-11.388,4.4-16.751.749-5.973,1.52-12.159,5.662-20.8,4.239-8.841,8.605-12,12.823-15.06,4.035-2.922,7.846-5.684,11.528-13.09,5.437-10.95,5.48-19.427,5.534-28.418.043-7.4.086-15.049,3.018-24.789,4.881-16.226,16.708-30.879,35.139-43.541a.221.221,0,0,1,.3.054.211.211,0,0,1-.054.3c-18.346,12.609-30.119,27.176-34.968,43.306-2.911,9.676-2.954,17.3-3,24.661-.053,9.034-.1,17.564-5.576,28.6-3.725,7.5-7.76,10.425-11.656,13.251-4.174,3.029-8.5,6.154-12.694,14.9-4.121,8.584-4.881,14.728-5.63,20.668-.674,5.395-1.306,10.489-4.431,16.879-6.272,12.812-19.491,22.659-39.3,29.274A.162.162,0,0,1,349.334,384.139Z" transform="translate(-349.121 -192.19)"/></g><g class="d" transform="translate(87.128 19.063)"><path class="e" d="M505.216,253.544a.212.212,0,0,1-.214-.2.206.206,0,0,1,.2-.214,44.333,44.333,0,0,0,29.2-12.245,46.465,46.465,0,0,0,9.119-11.581.215.215,0,0,1,.385.193,47.4,47.4,0,0,1-9.216,11.7,44.781,44.781,0,0,1-29.477,12.352Z" transform="translate(-505.002 -229.181)"/></g><g class="d" transform="translate(57.852 46.865)"><path class="e" d="M466.4,337.313a.181.181,0,0,1-.107-.032c-12.416-7.557-15.916-22.167-16.665-33.095a89.365,89.365,0,0,1,1.349-22.081.214.214,0,1,1,.417.1,88.865,88.865,0,0,0-1.338,21.974c.749,10.821,4.206,25.292,16.462,32.752a.223.223,0,0,1,.075.289A.26.26,0,0,1,466.4,337.313Z" transform="translate(-449.448 -281.937)"/></g><g class="d" transform="translate(50.778 100.401)"><path class="e" d="M445.381,417.187a59.067,59.067,0,0,1-9.173-.739.216.216,0,0,1,.064-.428,50.817,50.817,0,0,0,44.676-13.732,63.9,63.9,0,0,0,13.54-18.635.211.211,0,1,1,.385.171A64.4,64.4,0,0,1,481.237,402.6,51.2,51.2,0,0,1,445.381,417.187Z" transform="translate(-436.025 -383.525)"/></g><g class="d" transform="translate(16.389 119.934)"><path class="e" d="M386.374,478.261a.207.207,0,0,1-.107-.032c-14.268-8.627-16.2-23.815-15.317-35.043a79.884,79.884,0,0,1,5.384-22.466.211.211,0,0,1,.385.171,79.058,79.058,0,0,0-5.352,22.338,45.01,45.01,0,0,0,2.087,18.806,29.949,29.949,0,0,0,13.026,15.83.223.223,0,0,1,.075.289A.188.188,0,0,1,386.374,478.261Z" transform="translate(-370.768 -420.592)"/></g></g></g><g transform="translate(12.799 35.962)"><g transform="translate(0 0.001)"><path class="j" d="M274.089,398.033c0,4.914-3.083,9.127-6.893,9.369l-146.776,9.684c-4.356.29-7.921-3.777-7.921-9.066V169.908c0-5.29,3.554-9.43,7.921-9.236L267.2,167.4c3.8.169,6.893,4.321,6.893,9.236Z" transform="translate(-112.5 -160.666)"/><path class="k" d="M282.254,398.033c0,4.914-3.083,9.127-6.893,9.369l-146.776,9.684c-4.356.29-7.921-3.777-7.921-9.066V169.908c0-5.29,3.554-9.43,7.921-9.236l146.776,6.73c3.8.169,6.893,4.321,6.893,9.236Z" transform="translate(-116.362 -160.666)"/><path class="l" d="M127.692,173.108V411.833c0,2.844,1.895,5.02,4.228,4.874L248,409.244l30.687-1.969c2.034-.134,3.693-2.382,3.693-5.032V179.575c0-2.65-1.648-4.862-3.693-4.959l-31.8-1.4L131.92,168.149C129.587,168.052,127.692,170.264,127.692,173.108Z" transform="translate(-119.686 -164.204)"/><path class="m" d="M282.429,396.008a1.812,1.812,0,0,1-1.552,1.889l-147,8.61a1.735,1.735,0,0,1-1.777-1.827V175.2a1.764,1.764,0,0,1,1.777-1.852l147,6.329a1.779,1.779,0,0,1,1.552,1.864Z" transform="translate(-121.771 -166.665)"/><path class="n" d="M278.317,562.047l-29.852,1.638a2.6,2.6,0,0,1-2.89-2.473V561.1a2.953,2.953,0,0,1,2.89-2.783l29.852-1.574a2.532,2.532,0,0,1,2.8,2.44v.107A2.892,2.892,0,0,1,278.317,562.047Z" transform="translate(-175.446 -318.33)"/></g><path class="o" d="M282.608,489.058,149.811,494v4.71l132.8-5.213Z" transform="translate(-130.149 -292.334)"/><path class="o" d="M282.608,502.382l-132.8,5.384v4.7l132.8-5.651Z" transform="translate(-130.149 -297.628)"/><path class="o" d="M221.106,520.8l-71.3,3.125v4.71l71.3-3.275Z" transform="translate(-130.149 -301.329)"/><g class="p" transform="translate(4.313)"><path class="q" d="M243.421,382.442c-.6-14.513,13.668-23.023,12.3-43.492-.128-1.852-1.4-17.685-12.673-28.422-10.125-9.635-18.635-6.016-37.366-13.7-13.133-5.387-27.893-11.451-33.866-23.6-11.859-24.137,22.028-48.249,15.092-79.5-1.991-8.957-7.6-19.936-22.413-31.4l-35.888-1.646c-4.356-.206-7.92,3.946-7.92,9.236V408.019c0,5.29,3.554,9.357,7.92,9.066l133.728-8.824C248.088,398.953,243.732,390.007,243.421,382.442Z" transform="translate(-120.685 -160.664)"/></g><g transform="translate(26.753 9.618)"><path class="r" d="M185.167,358.312a25.694,25.694,0,0,1-14.308-3.639c-9.187-5.758-10.178-16.237-2.2-23.323l116.7-104.262a22.186,22.186,0,0,1,15.121-5.116,22.689,22.689,0,0,1,14.943,5.748l39.074,36.7L398.9,223.3c6.646-6.154,18.146-6.529,25.681-.9,7.5,5.6,8.3,15.049,1.8,21.193l-57.563,54.395a22.159,22.159,0,0,1-28.807.193l-39.531-36.392L201.5,352.19A25.656,25.656,0,0,1,185.167,358.312Z" transform="translate(-163.267 -197.601)"/><g transform="translate(233.069)"><path class="s" d="M566.318,232.475l-40.823-35.814,52.854-17.746h3.693l-11.934,53.142Z" transform="translate(-525.495 -178.916)"/></g></g><g transform="translate(30.446 9.618)"><path class="t" d="M192.174,358.312a25.694,25.694,0,0,1-14.308-3.639c-9.187-5.758-10.178-16.237-2.2-23.323l116.7-104.262a22.185,22.185,0,0,1,15.121-5.116,22.689,22.689,0,0,1,14.943,5.748l39.074,36.7,44.4-41.122c6.646-6.154,18.146-6.529,25.681-.9,7.5,5.6,8.3,15.049,1.8,21.193l-57.563,54.395a22.159,22.159,0,0,1-28.807.193L307.49,261.789,208.5,352.19A25.683,25.683,0,0,1,192.174,358.312Z" transform="translate(-170.274 -197.601)"/><g transform="translate(233.069)"><path class="u" d="M573.325,232.475,532.5,196.662l52.853-17.746Z" transform="translate(-532.502 -178.916)"/></g></g></g><g transform="translate(58.987 22.439)"><path class="v" d="M286.544,196.034H180.826a.647.647,0,0,1-.417-1.145L192.7,184.475V138.3a3.347,3.347,0,0,1,3.5-3.3l90.358,2.066a3.36,3.36,0,0,1,3.254,3.329V192.78A3.282,3.282,0,0,1,286.544,196.034Z" transform="translate(-180.172 -135.003)"/><g transform="translate(21.151 8.168)"><path class="e" d="M240.966,153.316l-20.658-.385V150.5l20.658.407Z" transform="translate(-220.309 -150.501)"/><path class="e" d="M240.966,162.485l-20.658-.353V159.7l20.658.375Z" transform="translate(-220.309 -154.853)"/><path class="e" d="M240.966,176.953l-20.658-.3v-2.43l20.658.321Z" transform="translate(-220.309 -161.722)"/><path class="e" d="M240.966,186.131l-20.658-.257v-2.43l20.658.278Z" transform="translate(-220.309 -166.084)"/><path class="e" d="M300.7,224.525l-80.393-.385v-2.43l80.393.46Z" transform="translate(-220.309 -184.184)"/><path class="e" d="M300.7,233.607l-80.393-.246v-2.43l80.393.321Z" transform="translate(-220.309 -188.546)"/><path class="e" d="M240.966,200.6l-20.658-.2v-2.43l20.658.214Z" transform="translate(-220.309 -172.953)"/><path class="e" d="M240.966,209.778l-20.658-.161v-2.43l20.658.182Z" transform="translate(-220.309 -177.315)"/><g transform="translate(28.375 0.557)"><path class="e" d="M326.17,184.171l-52.018-.4V151.557l.5.011v31.714l51.515.4Z" transform="translate(-274.152 -151.557)"/><path class="e" d="M287.575,181.64l-.364-.353,10.736-10.575,10.446,3.725,10.211-8.52,10.2,5.33-.214.428-9.911-5.159L308.5,175l-10.425-3.725Z" transform="translate(-280.329 -158.35)"/><path class="w" d="M287.737,193.892a1.712,1.712,0,0,1-1.755,1.7,1.766,1.766,0,0,1-1.755-1.734,1.712,1.712,0,0,1,1.755-1.7A1.766,1.766,0,0,1,287.737,193.892Z" transform="translate(-278.917 -170.762)"/><path class="w" d="M307.873,174.048a1.689,1.689,0,0,1-1.734,1.68,1.757,1.757,0,0,1-1.745-1.734,1.691,1.691,0,0,1,1.745-1.68A1.747,1.747,0,0,1,307.873,174.048Z" transform="translate(-288.457 -161.375)"/><path class="w" d="M327.684,181.126a1.686,1.686,0,0,1-1.723,1.68,1.736,1.736,0,0,1-1.723-1.723,1.686,1.686,0,0,1,1.723-1.68A1.736,1.736,0,0,1,327.684,181.126Z" transform="translate(-297.843 -164.729)"/><path class="w" d="M347.039,165a1.675,1.675,0,0,1-1.713,1.67,1.741,1.741,0,0,1-1.713-1.723,1.675,1.675,0,0,1,1.713-1.67A1.734,1.734,0,0,1,347.039,165Z" transform="translate(-307.008 -157.101)"/><path class="w" d="M366.11,174.941a1.672,1.672,0,0,1-1.7,1.67,1.722,1.722,0,0,1-1.7-1.713,1.672,1.672,0,0,1,1.7-1.67A1.722,1.722,0,0,1,366.11,174.941Z" transform="translate(-316.039 -161.808)"/></g></g></g><g transform="translate(193.726 194.617)"><path class="x" d="M444.995,536.119c-.31,0-.6,0-.888-.011-11.174-.343-39.431.953-47.009-23.5-6.968-22.456,22.606-55.658,27.465-60.924.428-.471.674-.717.674-.717s-1.209-.953,23.954-1.145c28.193,23.034,32.217,40.694,32.217,40.694C489.489,526.711,456.983,535.991,444.995,536.119Z" transform="translate(-396.04 -426.406)"/><path class="y" d="M444.995,537.73c-.31,0-.6,0-.888-.011-11.174-.343-39.431.953-47.009-23.5-6.968-22.456,22.606-55.658,27.465-60.924a7.6,7.6,0,0,1,3.446.321C428.426,453.752,367.16,527.369,444.995,537.73Z" transform="translate(-396.04 -428.017)"/><path class="z" d="M443.481,410.823s4.934-7.824,11.463-4.688,11.8,5.512,15.349,3.521,5.437-3.6,6.262,1.038S463.8,426.257,463.8,426.257,443.577,425.625,443.481,410.823Z" transform="translate(-418.48 -405.393)"/><path class="aa" d="M443.278,417.444s4.934-7.824,11.463-4.688,11.8,5.512,15.349,3.521,5.437-3.6,6.261,1.038-12.758,15.563-12.758,15.563S443.374,432.257,443.278,417.444Z" transform="translate(-418.384 -408.525)"/><path class="ab" d="M474.533,425.277c-1.959,2.729-4.228,5.052-6.176,5.973-2.451,1.156-6.775,1.777-11.078,1.959a44.118,44.118,0,0,1-10.9-.664h0a5.567,5.567,0,0,1-1.349-.492s-7.2-12.266-7.139-17.875c.021-1.787.771-2.9,2.719-2.74,8.081.664,8.124,5.18,13.679,4.1s9.858-9.355,13.369-3.789,7.7-2.077,10.928.546C480.677,413.985,478.1,420.311,474.533,425.277Z" transform="translate(-415.838 -407.496)"/><path class="ac" d="M450.064,450.082s14.76,4.731,24.671-.589a9.012,9.012,0,0,0,1.231,1.434s-7.353,6.315-26.555,1.049C449.4,451.976,449.914,450.606,450.064,450.082Z" transform="translate(-421.285 -426.253)"/><path class="ad" d="M474.533,428.49c-1.959,2.729-4.228,5.052-6.176,5.973-2.451,1.156-6.775,1.777-11.078,1.959l-10.9-.664h0a5.57,5.57,0,0,1-1.349-.492s-7.2-12.266-7.139-17.875c.1-.1,3.168-3.147,6.529,3.7,3.414,6.957,4.549,12.973,8.937,10.232s11.367-13.839,12.373-8.477-3.457,10.34-.3,9.59C467.9,431.851,472.724,428.341,474.533,428.49Z" transform="translate(-415.838 -410.709)"/><g class="ae" transform="translate(31.433 43.191)"><path class="af" d="M471.646,487.352h0a1.594,1.594,0,0,1,1.68,1.466l.032,2.794a50.31,50.31,0,0,1,5.523.343c1.359.16,2.708.364,4.046.631a1.518,1.518,0,0,1,1.3,1.563L483.9,497.7a1.621,1.621,0,0,1-2.109,1.3,23.026,23.026,0,0,0-2.729-.642,26.811,26.811,0,0,0-5.159-.364l-.471.011.1,8.145q7.289,1.092,10.768,3.821a9.061,9.061,0,0,1,3.586,7.3,10.709,10.709,0,0,1-3.628,8.466c-2.537,2.333-6.133,3.9-10.843,4.656l.043,3.3a1.808,1.808,0,0,1-1.713,1.723h-.032a1.55,1.55,0,0,1-1.755-1.466l-.032-3.254-.771.054a56.079,56.079,0,0,1-6.4.086,42.431,42.431,0,0,1-4.442-.439,1.517,1.517,0,0,1-1.391-1.627l.492-4.859a1.9,1.9,0,0,1,2.365-1.5,34.042,34.042,0,0,0,3.885.728,36.045,36.045,0,0,0,6.187.268l-.054-9.333c-4.72-.567-8.274-1.745-10.607-3.554a8.873,8.873,0,0,1-3.5-7.46,9.509,9.509,0,0,1,3.8-7.835c2.483-1.948,6.015-3.125,10.543-3.532l-.021-2.858A1.548,1.548,0,0,1,471.646,487.352Zm-1.573,10.875a6.681,6.681,0,0,0-3.361,1.359,3.228,3.228,0,0,0-1.2,2.558,2.808,2.808,0,0,0,1.135,2.333,7.621,7.621,0,0,0,3.489,1.231Zm3.168,16.248.1,8.541a6.181,6.181,0,0,0,3.639-1.4,3.813,3.813,0,0,0,1.22-3.008,3.373,3.373,0,0,0-1.209-2.676A7.974,7.974,0,0,0,473.241,514.474Z" transform="translate(-455.688 -487.352)"/></g></g><g transform="translate(108.94 227.715)"><g transform="translate(10.596 62.797)"><path class="ag" d="M273.563,596.744V605.2c0,2.729,17.061,4.945,38.1,4.945s38.1-2.216,38.1-4.945v-8.456Z" transform="translate(-273.541 -591.799)"/><ellipse class="ah" cx="38.104" cy="4.945" rx="38.104" ry="4.945" transform="translate(0.021)"/><path class="ai" d="M311.648,601.628c-18.635,0-38.125-1.777-38.125-5.212,0-.193.064-.524.257-.524s.107.257.107.45c0,2.173,15.509,4.6,37.762,4.6s37.762-2.43,37.762-4.6c0-.193.032-.364.225-.364s.139.257.139.439C349.773,599.852,330.282,601.628,311.648,601.628Z" transform="translate(-273.522 -591.396)"/><g transform="translate(14.171 3.071)"><path class="aj" d="M320.771,595.34c.375-.257.771-.514,1.2-.771a7.246,7.246,0,0,1,1.638-.685,15.854,15.854,0,0,1,2.515-.493,32.524,32.524,0,0,1,3.768-.2c1.477-.011,2.858.043,4.142.139a27.161,27.161,0,0,1,3.414.449,11.225,11.225,0,0,1,2.4.739,1.9,1.9,0,0,1,1.092,1.017l4.292.043a4.606,4.606,0,0,1,.824.075c.235.053.353.107.353.182v.353l-5.512-.054a2.818,2.818,0,0,1-1.477,1.188,14.4,14.4,0,0,1-3.029.931l-2.012-.278a2.384,2.384,0,0,1-.439-.107c-.118-.043-.171-.086-.171-.139s.15-.15.471-.235.664-.193,1.049-.321a10.372,10.372,0,0,0,1.156-.46,1.588,1.588,0,0,0,.76-.632l-13.015-.128a10.576,10.576,0,0,1-1.145.739,7.26,7.26,0,0,1-1.691.653,17.5,17.5,0,0,1-2.622.471,38.815,38.815,0,0,1-3.95.193c-1.188.011-2.355-.043-3.489-.139a23.721,23.721,0,0,1-3.029-.428,9.219,9.219,0,0,1-2.173-.717c-.567-.278-.878-.61-.942-.974l-3.532-.032a3.97,3.97,0,0,1-.835-.075c-.246-.043-.364-.107-.364-.193v-.353l4.827.043a2.609,2.609,0,0,1,1.317-.974,15,15,0,0,1,2.451-.739l1.616.225c.492.064.739.15.739.246,0,.053-.1.107-.3.182s-.45.161-.728.267a6.831,6.831,0,0,0-.8.364,1.7,1.7,0,0,0-.589.471Zm-11.924.482a1.264,1.264,0,0,0,.642.6,5,5,0,0,0,1.231.417,11.526,11.526,0,0,0,1.648.235c.61.053,1.252.075,1.927.075.781,0,1.466-.043,2.044-.1a12.282,12.282,0,0,0,1.531-.257,6.64,6.64,0,0,0,1.156-.385,6.1,6.1,0,0,0,.878-.471Zm28.343-.321a1.336,1.336,0,0,0-.706-.621,6.893,6.893,0,0,0-1.413-.449,15.172,15.172,0,0,0-2-.268c-.76-.054-1.595-.086-2.515-.086a19.57,19.57,0,0,0-2.109.107,10.131,10.131,0,0,0-1.531.278,6.165,6.165,0,0,0-1.1.407,7.985,7.985,0,0,0-.846.492Z" transform="translate(-300.413 -593.188)"/></g><path class="ak" d="M312.2,588.376c-16.986,0-34.679,1.5-37.515,4.388.107.107.214.214.31.321,2.387-2.012,17-4.035,37.205-4.035,20.732,0,35.567,2.13,37.366,4.185a2.051,2.051,0,0,1,.289-.321C347.517,589.928,329.492,588.376,312.2,588.376Z" transform="translate(-274.07 -587.841)"/></g><g transform="translate(0 53.913)"><path class="al" d="M253.455,579.887v8.456c0,2.729,17.061,4.945,38.1,4.945s38.1-2.216,38.1-4.945v-8.456Z" transform="translate(-253.434 -574.942)"/><ellipse class="am" cx="38.104" cy="4.945" rx="38.104" ry="4.945" transform="translate(0.021)"/><path class="an" d="M291.54,584.771c-18.635,0-38.125-1.777-38.125-5.213,0-.193.064-.524.257-.524s.107.257.107.45c0,2.173,15.509,4.6,37.762,4.6s37.762-2.43,37.762-4.6c0-.193.032-.364.225-.364s.139.257.139.439C329.676,582.994,310.186,584.771,291.54,584.771Z" transform="translate(-253.415 -574.538)"/><g transform="translate(14.171 3.071)"><path class="aj" d="M300.664,578.482c.375-.257.771-.514,1.2-.771a7.246,7.246,0,0,1,1.638-.685,15.848,15.848,0,0,1,2.515-.492,32.5,32.5,0,0,1,3.768-.2c1.477-.011,2.858.043,4.142.139a27.118,27.118,0,0,1,3.414.449,11.222,11.222,0,0,1,2.4.739,1.9,1.9,0,0,1,1.092,1.017l4.292.043a4.613,4.613,0,0,1,.824.075c.235.054.353.107.353.182v.353l-5.512-.054a2.818,2.818,0,0,1-1.477,1.188,14.4,14.4,0,0,1-3.029.931l-2.012-.278a2.386,2.386,0,0,1-.439-.107c-.118-.043-.171-.086-.171-.139s.15-.15.471-.235.664-.193,1.049-.321a10.354,10.354,0,0,0,1.156-.46,1.588,1.588,0,0,0,.76-.631l-13.015-.128a10.549,10.549,0,0,1-1.145.738,7.249,7.249,0,0,1-1.691.653,17.514,17.514,0,0,1-2.622.471,38.815,38.815,0,0,1-3.95.193c-1.188.011-2.355-.043-3.489-.139a23.715,23.715,0,0,1-3.029-.428,9.217,9.217,0,0,1-2.173-.717c-.567-.278-.878-.61-.942-.974l-3.532-.032a3.971,3.971,0,0,1-.835-.075c-.246-.043-.364-.107-.364-.193v-.353l4.827.043a2.609,2.609,0,0,1,1.317-.974,15.013,15.013,0,0,1,2.451-.739l1.616.225c.492.064.738.15.738.246,0,.054-.1.107-.3.182s-.45.16-.728.268a6.793,6.793,0,0,0-.8.364,1.7,1.7,0,0,0-.589.471Zm-11.913.482a1.264,1.264,0,0,0,.642.6,5,5,0,0,0,1.231.417,11.493,11.493,0,0,0,1.648.235c.61.054,1.252.075,1.927.075.781,0,1.466-.043,2.044-.1a12.274,12.274,0,0,0,1.531-.257,6.647,6.647,0,0,0,1.156-.385,5.2,5.2,0,0,0,.878-.471Zm28.343-.31a1.335,1.335,0,0,0-.706-.621,6.9,6.9,0,0,0-1.413-.45,15.194,15.194,0,0,0-2-.268c-.76-.054-1.595-.086-2.515-.086a19.586,19.586,0,0,0-2.109.107,10.135,10.135,0,0,0-1.531.278,6.15,6.15,0,0,0-1.1.407,7.961,7.961,0,0,0-.846.492Z" transform="translate(-280.306 -576.33)"/></g><path class="ao" d="M292.108,571.519c-16.986,0-34.679,1.5-37.515,4.388.107.107.214.214.31.321,2.387-2.012,17-4.035,37.205-4.035,20.732,0,35.567,2.13,37.366,4.185a2.061,2.061,0,0,1,.289-.321C327.419,573.071,309.394,571.519,292.108,571.519Z" transform="translate(-253.972 -570.983)"/></g><g transform="translate(9.141 45.061)"><path class="al" d="M270.8,563.09v8.456c0,2.729,17.061,4.945,38.1,4.945s38.1-2.216,38.1-4.945V563.09Z" transform="translate(-270.779 -558.145)"/><ellipse class="am" cx="38.104" cy="4.945" rx="38.104" ry="4.945" transform="translate(0.021)"/><path class="an" d="M308.886,567.974c-18.635,0-38.126-1.777-38.126-5.213,0-.193.064-.525.257-.525s.107.257.107.45c0,2.173,15.509,4.6,37.762,4.6s37.762-2.43,37.762-4.6c0-.193.032-.364.225-.364s.139.257.139.439C347.022,566.2,327.531,567.974,308.886,567.974Z" transform="translate(-270.76 -557.741)"/><g transform="translate(14.171 3.071)"><path class="aj" d="M318.009,561.686c.375-.257.771-.514,1.2-.771a7.242,7.242,0,0,1,1.638-.685,15.821,15.821,0,0,1,2.515-.492,32.48,32.48,0,0,1,3.768-.2c1.477-.011,2.858.043,4.142.139a27.131,27.131,0,0,1,3.414.449,11.234,11.234,0,0,1,2.4.739,1.9,1.9,0,0,1,1.092,1.017l4.292.043a4.6,4.6,0,0,1,.824.075c.235.053.353.107.353.182v.353l-5.512-.053a2.817,2.817,0,0,1-1.477,1.188,14.393,14.393,0,0,1-3.029.931l-2.012-.278a2.385,2.385,0,0,1-.439-.107c-.118-.043-.171-.086-.171-.139s.15-.15.471-.236.664-.193,1.049-.321a10.378,10.378,0,0,0,1.156-.46,1.588,1.588,0,0,0,.76-.631l-13.015-.128a10.561,10.561,0,0,1-1.145.739,7.258,7.258,0,0,1-1.691.653,17.5,17.5,0,0,1-2.622.471,38.82,38.82,0,0,1-3.95.193c-1.188.011-2.355-.043-3.489-.139a23.686,23.686,0,0,1-3.029-.428,9.22,9.22,0,0,1-2.173-.717c-.567-.278-.878-.61-.942-.974l-3.532-.032a3.971,3.971,0,0,1-.835-.075c-.246-.043-.364-.107-.364-.193v-.353l4.827.043a2.611,2.611,0,0,1,1.317-.974,15.025,15.025,0,0,1,2.451-.739l1.616.225c.492.064.738.15.738.246,0,.054-.1.107-.3.182s-.45.161-.728.268a6.8,6.8,0,0,0-.8.364,1.7,1.7,0,0,0-.589.471Zm-11.913.482a1.264,1.264,0,0,0,.642.6,5,5,0,0,0,1.231.417,11.483,11.483,0,0,0,1.648.235c.61.054,1.252.075,1.927.075.781,0,1.466-.043,2.044-.1a12.276,12.276,0,0,0,1.531-.257,6.641,6.641,0,0,0,1.156-.385,6.087,6.087,0,0,0,.878-.471Zm28.343-.31a1.335,1.335,0,0,0-.706-.621,6.891,6.891,0,0,0-1.413-.45,15.191,15.191,0,0,0-2-.268c-.76-.054-1.595-.086-2.515-.086a19.554,19.554,0,0,0-2.109.107,10.138,10.138,0,0,0-1.531.278,6.161,6.161,0,0,0-1.1.407,8,8,0,0,0-.846.492Z" transform="translate(-297.651 -559.533)"/></g><path class="ap" d="M309.453,554.722c-16.986,0-34.679,1.5-37.515,4.388.107.107.214.214.31.321,2.387-2.012,17-4.035,37.205-4.035,20.732,0,35.567,2.13,37.366,4.185a2.064,2.064,0,0,1,.289-.321C344.764,556.274,326.739,554.722,309.453,554.722Z" transform="translate(-271.317 -554.187)"/></g><g transform="translate(14.685 36.188)"><path class="aq" d="M281.321,546.252v8.456c0,2.729,17.061,4.945,38.1,4.945s38.1-2.216,38.1-4.945v-8.456Z" transform="translate(-281.3 -541.307)"/><ellipse class="ar" cx="38.104" cy="4.945" rx="38.104" ry="4.945" transform="translate(0.021)"/><path class="as" d="M319.406,551.136c-18.635,0-38.125-1.777-38.125-5.212,0-.193.064-.525.257-.525s.107.257.107.45c0,2.173,15.509,4.6,37.762,4.6s37.762-2.43,37.762-4.6c0-.193.032-.364.225-.364s.139.257.139.439C357.543,549.36,338.052,551.136,319.406,551.136Z" transform="translate(-281.281 -540.904)"/><g transform="translate(14.171 3.071)"><path class="aj" d="M328.53,544.848c.375-.257.771-.514,1.2-.771a7.245,7.245,0,0,1,1.638-.685,15.843,15.843,0,0,1,2.515-.492,32.507,32.507,0,0,1,3.768-.2c1.477-.011,2.858.043,4.142.139a27.141,27.141,0,0,1,3.414.45,11.226,11.226,0,0,1,2.4.738,1.9,1.9,0,0,1,1.092,1.017l4.292.043a4.613,4.613,0,0,1,.824.075c.235.054.353.107.353.182v.353l-5.512-.054a2.817,2.817,0,0,1-1.477,1.188,14.4,14.4,0,0,1-3.029.931l-2.012-.278a2.4,2.4,0,0,1-.439-.107c-.118-.043-.171-.086-.171-.139s.15-.15.471-.236.664-.193,1.049-.321a10.407,10.407,0,0,0,1.156-.46,1.588,1.588,0,0,0,.76-.631l-13.015-.129a10.571,10.571,0,0,1-1.145.739,7.252,7.252,0,0,1-1.691.653,17.488,17.488,0,0,1-2.622.471,38.837,38.837,0,0,1-3.95.193c-1.188.011-2.355-.043-3.489-.139a23.688,23.688,0,0,1-3.029-.428,9.223,9.223,0,0,1-2.173-.717c-.567-.278-.878-.61-.942-.974l-3.532-.032a3.961,3.961,0,0,1-.835-.075c-.246-.043-.364-.107-.364-.193V544.6l4.827.043a2.61,2.61,0,0,1,1.316-.974,15.018,15.018,0,0,1,2.451-.739l1.616.225c.492.064.739.15.739.246,0,.053-.1.107-.3.182s-.449.161-.728.268a6.818,6.818,0,0,0-.8.364,1.7,1.7,0,0,0-.589.471Zm-11.913.482a1.264,1.264,0,0,0,.642.6,5,5,0,0,0,1.231.417,11.5,11.5,0,0,0,1.648.235c.61.054,1.252.075,1.927.075.781,0,1.466-.043,2.044-.1a12.262,12.262,0,0,0,1.531-.257,6.632,6.632,0,0,0,1.156-.385,6.1,6.1,0,0,0,.878-.471Zm28.343-.321a1.336,1.336,0,0,0-.706-.621,6.89,6.89,0,0,0-1.413-.45,15.2,15.2,0,0,0-2-.268c-.76-.054-1.595-.086-2.515-.086a19.567,19.567,0,0,0-2.109.107,10.129,10.129,0,0,0-1.531.278,6.158,6.158,0,0,0-1.1.407,7.96,7.96,0,0,0-.846.492Z" transform="translate(-308.172 -542.695)"/></g><path class="at" d="M319.974,537.884c-16.986,0-34.679,1.5-37.515,4.388.107.107.214.214.31.321,2.387-2.012,17-4.035,37.2-4.035,20.732,0,35.567,2.13,37.366,4.185a2.065,2.065,0,0,1,.289-.321C355.285,539.436,337.271,537.884,319.974,537.884Z" transform="translate(-281.838 -537.349)"/></g><g transform="translate(10.596 26.609)"><path class="au" d="M273.563,528.074v8.456c0,2.729,17.061,4.945,38.1,4.945s38.1-2.216,38.1-4.945v-8.456Z" transform="translate(-273.541 -523.13)"/><ellipse class="av" cx="38.104" cy="4.945" rx="38.104" ry="4.945" transform="translate(0.021)"/><path class="aw" d="M311.648,532.958c-18.635,0-38.125-1.777-38.125-5.213,0-.193.064-.524.257-.524s.107.257.107.449c0,2.173,15.509,4.6,37.762,4.6s37.762-2.43,37.762-4.6c0-.193.032-.364.225-.364s.139.257.139.439C349.773,531.182,330.282,532.958,311.648,532.958Z" transform="translate(-273.522 -522.726)"/><g transform="translate(14.171 3.071)"><path class="aj" d="M320.771,526.67c.375-.257.771-.514,1.2-.771a7.246,7.246,0,0,1,1.638-.685,15.836,15.836,0,0,1,2.515-.492,32.49,32.49,0,0,1,3.768-.2c1.477-.011,2.858.043,4.142.139a27.126,27.126,0,0,1,3.414.45,11.222,11.222,0,0,1,2.4.738,1.9,1.9,0,0,1,1.092,1.017l4.292.043a4.612,4.612,0,0,1,.824.075c.235.054.353.107.353.182v.353l-5.512-.053a2.818,2.818,0,0,1-1.477,1.188,14.4,14.4,0,0,1-3.029.931l-2.012-.278a2.373,2.373,0,0,1-.439-.107c-.118-.043-.171-.085-.171-.139s.15-.15.471-.236.664-.193,1.049-.321a10.4,10.4,0,0,0,1.156-.46,1.588,1.588,0,0,0,.76-.631l-13.015-.128a10.6,10.6,0,0,1-1.145.739,7.266,7.266,0,0,1-1.691.653,17.513,17.513,0,0,1-2.622.471,38.84,38.84,0,0,1-3.95.193c-1.188.011-2.355-.043-3.489-.139a23.645,23.645,0,0,1-3.029-.428,9.205,9.205,0,0,1-2.173-.717c-.567-.278-.878-.61-.942-.974l-3.532-.032a3.97,3.97,0,0,1-.835-.075c-.246-.043-.364-.107-.364-.193v-.353l4.827.043a2.61,2.61,0,0,1,1.317-.974,15.026,15.026,0,0,1,2.451-.738l1.616.225c.492.064.739.15.739.246,0,.054-.1.107-.3.182s-.45.16-.728.268a6.8,6.8,0,0,0-.8.364,1.7,1.7,0,0,0-.589.471Zm-11.924.482a1.264,1.264,0,0,0,.642.6,5,5,0,0,0,1.231.417,11.491,11.491,0,0,0,1.648.236c.61.053,1.252.075,1.927.075.781,0,1.466-.043,2.044-.1a12.248,12.248,0,0,0,1.531-.257,6.64,6.64,0,0,0,1.156-.385,6.1,6.1,0,0,0,.878-.471Zm28.343-.321a1.335,1.335,0,0,0-.706-.621,6.889,6.889,0,0,0-1.413-.449,15.222,15.222,0,0,0-2-.268c-.76-.053-1.595-.086-2.515-.086a19.551,19.551,0,0,0-2.109.107,10.132,10.132,0,0,0-1.531.278,6.17,6.17,0,0,0-1.1.407,8,8,0,0,0-.846.492Z" transform="translate(-300.413 -524.518)"/></g><path class="ax" d="M312.2,519.706c-16.986,0-34.679,1.5-37.515,4.388.107.107.214.214.31.321,2.387-2.012,17-4.035,37.205-4.035,20.732,0,35.567,2.13,37.366,4.185a2.058,2.058,0,0,1,.289-.321C347.517,521.258,329.492,519.706,312.2,519.706Z" transform="translate(-274.07 -519.171)"/></g><g transform="translate(0 17.736)"><path class="ay" d="M253.455,511.237v8.456c0,2.729,17.061,4.945,38.1,4.945s38.1-2.216,38.1-4.945v-8.456Z" transform="translate(-253.434 -506.292)"/><ellipse class="az" cx="38.104" cy="4.945" rx="38.104" ry="4.945" transform="translate(0.021)"/><path class="ba" d="M291.54,516.121c-18.635,0-38.125-1.777-38.125-5.213,0-.193.064-.524.257-.524s.107.257.107.449c0,2.173,15.509,4.6,37.762,4.6s37.762-2.43,37.762-4.6c0-.193.032-.364.225-.364s.139.257.139.439C329.676,514.333,310.186,516.121,291.54,516.121Z" transform="translate(-253.415 -505.889)"/><g transform="translate(14.171 3.06)"><path class="aj" d="M300.664,509.812c.375-.257.771-.514,1.2-.771a7.24,7.24,0,0,1,1.638-.685,15.842,15.842,0,0,1,2.515-.492,32.5,32.5,0,0,1,3.768-.2c1.477-.011,2.858.043,4.142.139a27.145,27.145,0,0,1,3.414.45,11.232,11.232,0,0,1,2.4.738,1.9,1.9,0,0,1,1.092,1.017l4.292.043a4.613,4.613,0,0,1,.824.075c.235.054.353.107.353.182v.353l-5.512-.053a2.818,2.818,0,0,1-1.477,1.188,14.4,14.4,0,0,1-3.029.931l-2.012-.278a2.386,2.386,0,0,1-.439-.107c-.118-.043-.171-.086-.171-.139s.15-.15.471-.235.664-.193,1.049-.321a10.389,10.389,0,0,0,1.156-.46,1.588,1.588,0,0,0,.76-.631l-13.015-.129a10.545,10.545,0,0,1-1.145.739,7.25,7.25,0,0,1-1.691.653,17.5,17.5,0,0,1-2.622.471,38.82,38.82,0,0,1-3.95.193c-1.188.011-2.355-.043-3.489-.139a23.7,23.7,0,0,1-3.029-.428,9.21,9.21,0,0,1-2.173-.717c-.567-.278-.878-.61-.942-.974l-3.532-.032a3.977,3.977,0,0,1-.835-.075c-.246-.043-.364-.107-.364-.193v-.353l4.827.043a2.609,2.609,0,0,1,1.317-.974,15.019,15.019,0,0,1,2.451-.739l1.616.225c.492.064.738.15.738.246,0,.054-.1.107-.3.182s-.45.161-.728.268a6.823,6.823,0,0,0-.8.364,1.7,1.7,0,0,0-.589.471Zm-11.913.482a1.264,1.264,0,0,0,.642.6,5,5,0,0,0,1.231.417,11.518,11.518,0,0,0,1.648.236c.61.053,1.252.075,1.927.075.781,0,1.466-.043,2.044-.1a12.278,12.278,0,0,0,1.531-.257,6.642,6.642,0,0,0,1.156-.385,6.093,6.093,0,0,0,.878-.471Zm28.343-.31a1.335,1.335,0,0,0-.706-.621,6.891,6.891,0,0,0-1.413-.45,15.194,15.194,0,0,0-2-.268c-.76-.054-1.595-.086-2.515-.086a19.533,19.533,0,0,0-2.109.107,10.109,10.109,0,0,0-1.531.278,6.143,6.143,0,0,0-1.1.407,7.956,7.956,0,0,0-.846.492Z" transform="translate(-280.306 -507.66)"/></g><path class="bb" d="M292.108,502.869c-16.986,0-34.679,1.5-37.515,4.388.107.107.214.214.31.321,2.387-2.012,17-4.035,37.205-4.035,20.732,0,35.567,2.13,37.366,4.185a2.066,2.066,0,0,1,.289-.321C327.419,504.41,309.394,502.869,292.108,502.869Z" transform="translate(-253.972 -502.334)"/></g><g transform="translate(9.141 8.884)"><path class="ay" d="M270.8,494.44V502.9c0,2.729,17.061,4.945,38.1,4.945s38.1-2.216,38.1-4.945V494.44Z" transform="translate(-270.779 -489.495)"/><ellipse class="bc" cx="38.104" cy="4.945" rx="38.104" ry="4.945" transform="translate(0.021)"/><path class="ba" d="M308.886,499.324c-18.635,0-38.126-1.777-38.126-5.213,0-.193.064-.524.257-.524s.107.257.107.45c0,2.173,15.509,4.6,37.762,4.6s37.762-2.43,37.762-4.6c0-.193.032-.364.225-.364s.139.257.139.439C347.022,497.537,327.531,499.324,308.886,499.324Z" transform="translate(-270.76 -489.092)"/><g transform="translate(14.171 3.06)"><path class="aj" d="M318.009,493.016c.375-.257.771-.514,1.2-.771a7.251,7.251,0,0,1,1.638-.685,15.842,15.842,0,0,1,2.515-.492,32.513,32.513,0,0,1,3.768-.2c1.477-.011,2.858.043,4.142.139a27.17,27.17,0,0,1,3.414.449,11.229,11.229,0,0,1,2.4.739,1.9,1.9,0,0,1,1.092,1.017l4.292.043a4.609,4.609,0,0,1,.824.075c.235.053.353.107.353.182v.353l-5.512-.054A2.818,2.818,0,0,1,336.654,495a14.4,14.4,0,0,1-3.029.931l-2.012-.278a2.391,2.391,0,0,1-.439-.107c-.118-.043-.171-.086-.171-.139s.15-.15.471-.235.664-.193,1.049-.321a10.419,10.419,0,0,0,1.156-.46,1.588,1.588,0,0,0,.76-.632l-13.015-.128a10.542,10.542,0,0,1-1.145.738,7.248,7.248,0,0,1-1.691.653,17.494,17.494,0,0,1-2.622.471,38.844,38.844,0,0,1-3.95.193c-1.188.011-2.355-.043-3.489-.139a23.706,23.706,0,0,1-3.029-.428,9.213,9.213,0,0,1-2.173-.717c-.567-.278-.878-.61-.942-.974l-3.532-.032a3.965,3.965,0,0,1-.835-.075c-.246-.043-.364-.107-.364-.193v-.353l4.827.043a2.611,2.611,0,0,1,1.317-.974,15.029,15.029,0,0,1,2.451-.738l1.616.225c.492.064.738.15.738.246,0,.053-.1.107-.3.182s-.45.16-.728.268a6.815,6.815,0,0,0-.8.364,1.7,1.7,0,0,0-.589.471ZM306.1,493.5a1.265,1.265,0,0,0,.642.6,5,5,0,0,0,1.231.417,11.5,11.5,0,0,0,1.648.235c.61.054,1.252.075,1.927.075.781,0,1.466-.043,2.044-.1a12.272,12.272,0,0,0,1.531-.257,6.638,6.638,0,0,0,1.156-.385,6.093,6.093,0,0,0,.878-.471Zm28.343-.31a1.335,1.335,0,0,0-.706-.621,6.887,6.887,0,0,0-1.413-.449,15.19,15.19,0,0,0-2-.268c-.76-.053-1.595-.086-2.515-.086a19.571,19.571,0,0,0-2.109.107,10.131,10.131,0,0,0-1.531.278,6.158,6.158,0,0,0-1.1.407,7.958,7.958,0,0,0-.846.492Z" transform="translate(-297.651 -490.863)"/></g><path class="bd" d="M309.453,486.072c-16.986,0-34.679,1.5-37.515,4.388.107.107.214.214.31.321,2.387-2.012,17-4.035,37.205-4.035,20.732,0,35.567,2.13,37.366,4.185a2.065,2.065,0,0,1,.289-.321C344.764,487.613,326.739,486.072,309.453,486.072Z" transform="translate(-271.317 -485.537)"/></g><g transform="translate(4.388)"><path class="be" d="M261.783,477.582v8.456c0,2.729,17.061,4.945,38.1,4.945s38.1-2.216,38.1-4.945v-8.456Z" transform="translate(-261.761 -472.637)"/><ellipse class="bf" cx="38.104" cy="4.945" rx="38.104" ry="4.945" transform="translate(0.021)"/><path class="bg" d="M299.868,482.466c-18.635,0-38.126-1.777-38.126-5.213,0-.193.064-.524.257-.524s.107.257.107.45c0,2.173,15.509,4.6,37.762,4.6s37.762-2.43,37.762-4.6c0-.193.032-.364.225-.364s.139.257.139.439C337.993,480.69,318.5,482.466,299.868,482.466Z" transform="translate(-261.742 -472.234)"/><g transform="translate(14.171 3.071)"><path class="aj" d="M308.991,476.178c.375-.257.771-.514,1.2-.771a7.253,7.253,0,0,1,1.638-.685,15.856,15.856,0,0,1,2.515-.492,32.5,32.5,0,0,1,3.768-.2c1.477-.011,2.858.043,4.142.139a27.141,27.141,0,0,1,3.414.45,11.223,11.223,0,0,1,2.4.738,1.9,1.9,0,0,1,1.092,1.017l4.292.043a4.609,4.609,0,0,1,.824.075c.235.054.353.107.353.182v.353l-5.512-.054a2.818,2.818,0,0,1-1.477,1.188,14.4,14.4,0,0,1-3.029.931l-2.012-.278a2.393,2.393,0,0,1-.439-.107c-.118-.043-.171-.086-.171-.139s.15-.15.471-.235.664-.193,1.049-.321a10.417,10.417,0,0,0,1.156-.46,1.588,1.588,0,0,0,.76-.632l-13.015-.128a10.565,10.565,0,0,1-1.145.738,7.25,7.25,0,0,1-1.691.653,17.5,17.5,0,0,1-2.622.471,38.824,38.824,0,0,1-3.95.193c-1.188.011-2.355-.043-3.489-.139a23.675,23.675,0,0,1-3.029-.428,9.205,9.205,0,0,1-2.173-.717c-.567-.278-.878-.61-.942-.974l-3.532-.032a3.968,3.968,0,0,1-.835-.075c-.246-.043-.364-.107-.364-.193v-.353l4.827.043a2.609,2.609,0,0,1,1.317-.974,15.025,15.025,0,0,1,2.451-.739l1.616.225c.492.064.738.15.738.246,0,.053-.1.107-.3.182s-.45.161-.728.268a6.818,6.818,0,0,0-.8.364,1.7,1.7,0,0,0-.589.471Zm-11.924.482a1.265,1.265,0,0,0,.642.6,5.006,5.006,0,0,0,1.231.417,11.518,11.518,0,0,0,1.648.235c.61.054,1.252.075,1.927.075.781,0,1.466-.043,2.044-.1a12.28,12.28,0,0,0,1.531-.257,6.64,6.64,0,0,0,1.156-.385,6.089,6.089,0,0,0,.878-.471Zm28.353-.321a1.335,1.335,0,0,0-.706-.621,6.9,6.9,0,0,0-1.413-.45,15.206,15.206,0,0,0-2-.268c-.76-.054-1.595-.086-2.515-.086a19.567,19.567,0,0,0-2.108.107,10.124,10.124,0,0,0-1.531.278,6.151,6.151,0,0,0-1.1.407,7.96,7.96,0,0,0-.846.492Z" transform="translate(-288.633 -474.025)"/></g><path class="bh" d="M300.436,469.214c-16.986,0-34.679,1.5-37.515,4.388.107.107.214.214.31.321,2.387-2.012,17-4.035,37.205-4.035,20.732,0,35.567,2.13,37.366,4.185a2.063,2.063,0,0,1,.289-.321C335.746,470.766,317.721,469.214,300.436,469.214Z" transform="translate(-262.299 -468.679)"/></g><g transform="translate(84.209 10.766)"><path class="bi" d="M420.46,488.9l-6.882,4.9c-2.226,1.584,5.855,16.772,18.057,33.919s23.89,29.766,26.116,28.182l6.882-4.9Z" transform="translate(-413.209 -488.755)"/><path class="bj" d="M470.81,550.876c-2.226,1.584-13.914-11.035-26.116-28.182s-20.283-32.335-18.057-33.919,13.914,11.035,26.116,28.182S473.037,549.292,470.81,550.876Z" transform="translate(-419.386 -488.634)"/><path class="bk" d="M444.249,522.881c-10.8-15.188-20.647-32.1-17.853-34.09.15-.107.46-.246.567-.1s-.15.235-.3.343c-1.777,1.263,5.234,15.306,18.142,33.437s23.869,29.37,25.645,28.107c.15-.107.321-.182.428-.032s-.118.268-.278.375C467.8,552.925,455.048,538.069,444.249,522.881Z" transform="translate(-419.219 -488.629)"/><g transform="translate(15.028 11.689)"><path class="aj" d="M453.729,527.54c.428.15.867.332,1.316.535a7.338,7.338,0,0,1,1.509.942,15.74,15.74,0,0,1,1.862,1.755,34.389,34.389,0,0,1,2.344,2.943c.856,1.2,1.627,2.344,2.29,3.457a28.631,28.631,0,0,1,1.606,3.04,10.39,10.39,0,0,1,.781,2.387,1.849,1.849,0,0,1-.193,1.477L467.7,547.6a3.959,3.959,0,0,1,.417.717c.1.225.118.353.054.4l-.289.2-3.157-4.528a2.739,2.739,0,0,1-1.82-.514,15.679,15.679,0,0,1-2.515-1.927l-.942-1.8a2.024,2.024,0,0,1-.171-.417c-.032-.118-.032-.193.011-.225s.2.043.46.246.546.428.878.674a9.582,9.582,0,0,0,1.038.674,1.6,1.6,0,0,0,.953.257l-7.439-10.682a11.575,11.575,0,0,1-1.274-.5,6.977,6.977,0,0,1-1.509-1,17.766,17.766,0,0,1-1.905-1.862,38.149,38.149,0,0,1-2.451-3.1c-.7-.974-1.338-1.937-1.916-2.922a24.7,24.7,0,0,1-1.4-2.719,10.173,10.173,0,0,1-.685-2.184,1.544,1.544,0,0,1,.246-1.338l-2.023-2.9a4.427,4.427,0,0,1-.428-.728c-.107-.225-.128-.364-.064-.407l.289-.2,2.761,3.96a2.616,2.616,0,0,1,1.563.514,15.456,15.456,0,0,1,2.023,1.573l.76,1.445q.337.658.225.739c-.043.032-.15-.011-.332-.139s-.4-.268-.631-.439-.5-.31-.76-.45a1.57,1.57,0,0,0-.728-.2Zm-7.3-9.43a1.3,1.3,0,0,0-.118.867,5.307,5.307,0,0,0,.375,1.241,12.271,12.271,0,0,0,.76,1.488,18.941,18.941,0,0,0,1.06,1.616,20.1,20.1,0,0,0,1.274,1.605,10.672,10.672,0,0,0,1.1,1.1,7.983,7.983,0,0,0,.974.717,6.926,6.926,0,0,0,.888.45Zm16.687,22.905a1.335,1.335,0,0,0,.1-.931,6.494,6.494,0,0,0-.46-1.413,15.527,15.527,0,0,0-.942-1.787c-.4-.653-.856-1.349-1.391-2.1a16.733,16.733,0,0,0-1.306-1.648A11.611,11.611,0,0,0,458,532.046a6.819,6.819,0,0,0-.963-.664,6.584,6.584,0,0,0-.9-.4Z" transform="translate(-441.727 -510.81)"/></g><path class="bl" d="M452.906,517.831c-9.847-13.85-21.321-27.39-25.324-28.021a2.878,2.878,0,0,1-.086.439c3.018.781,13.133,11.506,24.853,27.979,12.02,16.89,18.881,30.216,18.249,32.881.139.011.289.021.428.043C472.108,547.5,462.925,531.917,452.906,517.831Z" transform="translate(-419.967 -489.187)"/></g></g><g transform="translate(18.3 284.421)"><g transform="translate(10.586 26.609)"><path class="al" d="M143.068,635.68v8.456c0,2.729,17.061,4.945,38.1,4.945s38.1-2.216,38.1-4.945V635.68Z" transform="translate(-143.046 -630.735)"/><ellipse class="bm" cx="38.104" cy="4.945" rx="38.104" ry="4.945" transform="translate(0.021)"/><path class="bn" d="M181.152,640.564c-18.635,0-38.126-1.777-38.126-5.213,0-.193.064-.524.257-.524s.107.257.107.45c0,2.173,15.509,4.6,37.762,4.6s37.762-2.43,37.762-4.6c0-.193.032-.364.225-.364s.139.257.139.439C219.289,638.787,199.8,640.564,181.152,640.564Z" transform="translate(-143.027 -630.331)"/><g transform="translate(14.171 3.071)"><path class="aj" d="M190.276,634.275c.375-.257.771-.514,1.2-.771a7.238,7.238,0,0,1,1.638-.685,15.848,15.848,0,0,1,2.515-.492,32.551,32.551,0,0,1,3.768-.2c1.477-.011,2.858.043,4.142.139a27.14,27.14,0,0,1,3.414.45,11.235,11.235,0,0,1,2.4.738,1.9,1.9,0,0,1,1.092,1.017l4.292.043a4.618,4.618,0,0,1,.824.075c.235.054.353.107.353.182v.353l-5.512-.053a2.818,2.818,0,0,1-1.477,1.188,14.4,14.4,0,0,1-3.029.931l-2.012-.278a2.382,2.382,0,0,1-.439-.107c-.118-.043-.171-.086-.171-.139s.15-.15.471-.235.664-.193,1.049-.321a10.377,10.377,0,0,0,1.156-.46,1.587,1.587,0,0,0,.76-.631l-13.015-.129a10.552,10.552,0,0,1-1.145.739,7.246,7.246,0,0,1-1.691.653,17.487,17.487,0,0,1-2.622.471,38.853,38.853,0,0,1-3.95.193c-1.188.011-2.355-.043-3.489-.139a23.685,23.685,0,0,1-3.029-.428,9.212,9.212,0,0,1-2.173-.717c-.567-.278-.878-.61-.942-.974l-3.532-.032a3.961,3.961,0,0,1-.835-.075c-.246-.043-.364-.107-.364-.193v-.353l4.827.043a2.611,2.611,0,0,1,1.317-.974,15.029,15.029,0,0,1,2.451-.738l1.616.225c.492.064.739.15.739.246,0,.054-.1.107-.3.182s-.45.161-.728.268a6.8,6.8,0,0,0-.8.364,1.7,1.7,0,0,0-.589.471Zm-11.913.482a1.264,1.264,0,0,0,.642.6,5,5,0,0,0,1.231.417,11.493,11.493,0,0,0,1.648.235c.61.054,1.252.075,1.927.075.781,0,1.466-.043,2.044-.1a12.252,12.252,0,0,0,1.531-.257,6.642,6.642,0,0,0,1.156-.385,5.193,5.193,0,0,0,.878-.471Zm28.343-.31a1.334,1.334,0,0,0-.706-.621,6.871,6.871,0,0,0-1.413-.45,15.2,15.2,0,0,0-2-.268c-.76-.053-1.595-.086-2.515-.086a19.549,19.549,0,0,0-2.109.107,10.106,10.106,0,0,0-1.531.278,6.147,6.147,0,0,0-1.1.407,7.929,7.929,0,0,0-.846.492Z" transform="translate(-169.918 -632.123)"/></g><path class="bo" d="M181.72,627.312c-16.986,0-34.679,1.5-37.515,4.388.107.107.214.214.31.321,2.387-2.012,17-4.035,37.205-4.035,20.732,0,35.567,2.13,37.366,4.185a2.06,2.06,0,0,1,.289-.321C217.031,628.864,199.006,627.312,181.72,627.312Z" transform="translate(-143.584 -626.777)"/></g><g transform="translate(0 17.736)"><path class="bp" d="M122.96,618.842V627.3c0,2.729,17.061,4.945,38.1,4.945s38.1-2.216,38.1-4.945v-8.456Z" transform="translate(-122.949 -613.897)"/><ellipse class="bq" cx="38.104" cy="4.945" rx="38.104" ry="4.945" transform="translate(0.021)"/><path class="br" d="M161.065,623.726c-18.635,0-38.125-1.777-38.125-5.212,0-.193.064-.525.257-.525s.107.257.107.449c0,2.173,15.509,4.6,37.762,4.6s37.762-2.43,37.762-4.6c0-.193.032-.364.225-.364s.139.257.139.439C199.191,621.95,179.7,623.726,161.065,623.726Z" transform="translate(-122.94 -613.494)"/><g transform="translate(14.161 3.071)"><path class="aj" d="M170.169,617.438c.375-.257.771-.514,1.2-.771a7.25,7.25,0,0,1,1.638-.685,15.835,15.835,0,0,1,2.515-.492,32.507,32.507,0,0,1,3.768-.2c1.477-.011,2.858.043,4.142.139a27.174,27.174,0,0,1,3.414.45,11.231,11.231,0,0,1,2.4.738,1.9,1.9,0,0,1,1.092,1.017l4.292.043a4.607,4.607,0,0,1,.824.075c.235.054.353.107.353.182v.353l-5.512-.053a2.818,2.818,0,0,1-1.477,1.188,14.4,14.4,0,0,1-3.029.931l-2.012-.278a2.389,2.389,0,0,1-.439-.107c-.118-.043-.171-.086-.171-.139s.15-.15.471-.236.664-.193,1.049-.321a10.379,10.379,0,0,0,1.156-.46,1.587,1.587,0,0,0,.76-.632l-13.015-.128a10.51,10.51,0,0,1-1.145.739,7.249,7.249,0,0,1-1.691.653,17.489,17.489,0,0,1-2.622.471,38.868,38.868,0,0,1-3.95.193c-1.188.011-2.355-.043-3.489-.139a23.72,23.72,0,0,1-3.029-.428,9.217,9.217,0,0,1-2.173-.717c-.567-.278-.878-.61-.942-.974l-3.532-.032a3.974,3.974,0,0,1-.835-.075c-.246-.043-.364-.107-.364-.193v-.353l4.827.043a2.609,2.609,0,0,1,1.316-.974,15,15,0,0,1,2.451-.739l1.616.225c.492.064.739.15.739.246,0,.054-.1.107-.3.182s-.45.161-.728.268a6.779,6.779,0,0,0-.8.364,1.7,1.7,0,0,0-.589.471Zm-11.913.482a1.264,1.264,0,0,0,.642.6,5,5,0,0,0,1.231.417,11.5,11.5,0,0,0,1.648.236c.61.054,1.252.075,1.927.075.781,0,1.466-.043,2.044-.1a12.226,12.226,0,0,0,1.531-.257,6.619,6.619,0,0,0,1.156-.385,6.1,6.1,0,0,0,.878-.471ZM186.6,617.6a1.335,1.335,0,0,0-.706-.621,6.881,6.881,0,0,0-1.413-.449,15.179,15.179,0,0,0-2-.268c-.76-.054-1.595-.086-2.515-.086a19.535,19.535,0,0,0-2.109.107,10.107,10.107,0,0,0-1.531.278,6.161,6.161,0,0,0-1.1.407,8.005,8.005,0,0,0-.846.492Z" transform="translate(-149.811 -615.285)"/></g><path class="bs" d="M161.613,610.474c-16.986,0-34.679,1.5-37.515,4.388.107.107.214.214.31.321,2.387-2.012,17-4.035,37.205-4.035,20.732,0,35.567,2.13,37.366,4.185a2.061,2.061,0,0,1,.289-.321C196.934,612.026,178.91,610.474,161.613,610.474Z" transform="translate(-123.487 -609.939)"/></g><g transform="translate(9.141 8.884)"><path class="bp" d="M140.305,602.045V610.5c0,2.729,17.061,4.945,38.1,4.945s38.1-2.215,38.1-4.945v-8.456Z" transform="translate(-140.295 -597.1)"/><ellipse class="bq" cx="38.104" cy="4.945" rx="38.104" ry="4.945" transform="translate(0.021)"/><path class="br" d="M178.411,606.929c-18.635,0-38.125-1.777-38.125-5.213,0-.193.064-.524.257-.524s.107.257.107.449c0,2.173,15.509,4.6,37.762,4.6s37.762-2.43,37.762-4.6c0-.193.032-.364.225-.364s.139.257.139.439C216.536,605.153,197.045,606.929,178.411,606.929Z" transform="translate(-140.285 -596.697)"/><g transform="translate(14.161 3.071)"><path class="aj" d="M187.514,600.641c.375-.257.771-.514,1.2-.771a7.245,7.245,0,0,1,1.638-.685,15.845,15.845,0,0,1,2.515-.492,32.44,32.44,0,0,1,3.768-.2c1.477-.011,2.858.043,4.142.139a27.14,27.14,0,0,1,3.414.45,11.216,11.216,0,0,1,2.4.739,1.9,1.9,0,0,1,1.092,1.017l4.292.043a4.606,4.606,0,0,1,.824.075c.235.054.353.107.353.182v.353l-5.512-.053a2.819,2.819,0,0,1-1.477,1.188,14.418,14.418,0,0,1-3.029.931l-2.012-.278a2.385,2.385,0,0,1-.439-.107c-.118-.043-.171-.086-.171-.139s.15-.15.471-.235.664-.193,1.049-.321a10.372,10.372,0,0,0,1.156-.46,1.589,1.589,0,0,0,.76-.631l-13.015-.128a10.609,10.609,0,0,1-1.145.738,7.259,7.259,0,0,1-1.691.653,17.51,17.51,0,0,1-2.622.471,38.9,38.9,0,0,1-3.95.193c-1.188.011-2.355-.043-3.489-.139a23.7,23.7,0,0,1-3.029-.428,9.207,9.207,0,0,1-2.173-.717c-.567-.278-.878-.61-.942-.974l-3.532-.032a3.97,3.97,0,0,1-.835-.075c-.246-.043-.364-.107-.364-.193V600.4l4.827.043a2.61,2.61,0,0,1,1.317-.974,15.019,15.019,0,0,1,2.451-.739l1.616.225c.492.064.739.15.739.246,0,.054-.1.107-.3.182s-.45.161-.728.268a6.809,6.809,0,0,0-.8.364,1.7,1.7,0,0,0-.589.471Zm-11.913.482a1.264,1.264,0,0,0,.642.6,5,5,0,0,0,1.231.417,11.544,11.544,0,0,0,1.648.236c.61.053,1.252.075,1.927.075.781,0,1.466-.043,2.044-.1a12.262,12.262,0,0,0,1.531-.257,6.648,6.648,0,0,0,1.156-.385,6.1,6.1,0,0,0,.878-.471Zm28.343-.321a1.334,1.334,0,0,0-.706-.621,6.886,6.886,0,0,0-1.413-.45,15.209,15.209,0,0,0-2-.268c-.76-.053-1.595-.086-2.515-.086a19.536,19.536,0,0,0-2.109.107,10.145,10.145,0,0,0-1.531.278,6.165,6.165,0,0,0-1.1.407,7.985,7.985,0,0,0-.846.492Z" transform="translate(-167.156 -598.489)"/></g><path class="bt" d="M178.958,593.677c-16.986,0-34.679,1.5-37.515,4.388.107.107.214.214.31.321,2.387-2.012,17-4.035,37.2-4.035,20.732,0,35.567,2.13,37.366,4.185a2.064,2.064,0,0,1,.289-.321C214.279,595.229,196.255,593.677,178.958,593.677Z" transform="translate(-140.833 -593.142)"/></g><g transform="translate(14.685)"><path class="bu" d="M150.846,585.188v8.456c0,2.729,17.061,4.945,38.1,4.945s38.1-2.216,38.1-4.945v-8.456Z" transform="translate(-150.825 -580.243)"/><ellipse class="bv" cx="38.104" cy="4.945" rx="38.104" ry="4.945" transform="translate(0.021)"/><path class="bw" d="M188.931,590.072c-18.635,0-38.125-1.777-38.125-5.212,0-.193.064-.524.257-.524s.107.257.107.449c0,2.173,15.509,4.6,37.762,4.6s37.762-2.43,37.762-4.6c0-.193.032-.364.225-.364s.139.257.139.439C227.057,588.295,207.566,590.072,188.931,590.072Z" transform="translate(-150.806 -579.839)"/><g transform="translate(14.161 3.071)"><path class="aj" d="M198.035,583.784c.375-.257.771-.514,1.2-.771a7.248,7.248,0,0,1,1.638-.685,15.837,15.837,0,0,1,2.515-.492,32.464,32.464,0,0,1,3.768-.2c1.477-.011,2.858.043,4.142.139a27.174,27.174,0,0,1,3.414.45,11.232,11.232,0,0,1,2.4.739,1.9,1.9,0,0,1,1.092,1.017l4.292.043a4.607,4.607,0,0,1,.824.075c.235.054.353.107.353.182v.353l-5.512-.054a2.818,2.818,0,0,1-1.477,1.188,14.4,14.4,0,0,1-3.029.931l-2.012-.278a2.4,2.4,0,0,1-.439-.107c-.118-.043-.171-.086-.171-.139s.15-.15.471-.235.664-.193,1.049-.321a10.416,10.416,0,0,0,1.156-.46,1.588,1.588,0,0,0,.76-.632l-13.015-.128a10.553,10.553,0,0,1-1.145.739,7.256,7.256,0,0,1-1.691.653,17.5,17.5,0,0,1-2.622.471,38.82,38.82,0,0,1-3.95.193c-1.188.011-2.355-.043-3.489-.139a23.707,23.707,0,0,1-3.029-.428,9.21,9.21,0,0,1-2.173-.717c-.567-.278-.878-.61-.942-.974l-3.532-.032a3.966,3.966,0,0,1-.835-.075c-.246-.043-.364-.107-.364-.193v-.353l4.827.043a2.61,2.61,0,0,1,1.317-.974,15.021,15.021,0,0,1,2.451-.738l1.616.225c.492.064.738.15.738.246,0,.054-.1.107-.3.182s-.45.161-.728.268a6.821,6.821,0,0,0-.8.364,1.7,1.7,0,0,0-.589.471Zm-11.913.482a1.264,1.264,0,0,0,.642.6,5,5,0,0,0,1.231.417,11.492,11.492,0,0,0,1.648.236c.61.054,1.252.075,1.927.075.781,0,1.466-.043,2.044-.1a12.248,12.248,0,0,0,1.531-.257,6.638,6.638,0,0,0,1.156-.385,6.094,6.094,0,0,0,.878-.471Zm28.343-.31a1.335,1.335,0,0,0-.706-.621,6.89,6.89,0,0,0-1.413-.45,15.18,15.18,0,0,0-2-.268c-.76-.054-1.595-.086-2.515-.086a19.553,19.553,0,0,0-2.109.107,10.121,10.121,0,0,0-1.531.278,6.163,6.163,0,0,0-1.1.407,7.994,7.994,0,0,0-.846.492Z" transform="translate(-177.677 -581.631)"/></g><path class="bx" d="M189.479,576.82c-16.986,0-34.679,1.5-37.515,4.388.107.107.214.214.31.321,2.387-2.012,17-4.035,37.2-4.035,20.732,0,35.567,2.13,37.366,4.185a2.06,2.06,0,0,1,.289-.321C224.8,578.372,206.776,576.82,189.479,576.82Z" transform="translate(-151.353 -576.284)"/></g></g><g transform="translate(85.13 181.936)"><path class="by" d="M431.193,406.084s.482-1.873,1.274-2.365,1.916-1.028,2.173-1.242.557.428-.182.931l-.738.492a.894.894,0,0,0,.032.321,1.127,1.127,0,0,0,1.017.642,8.121,8.121,0,0,0,2.933.332c.043-.011.2-.064.278.011.107.118-.086.492-.171.621-.514.781-2.3,1.124-3.639.514-.492-.225-.674-.46-1.028-.407-.567.1-.91.846-1.124,1.456Z" transform="translate(-319.815 -391.312)"/><path class="bz" d="M389.9,406.023c-.707-.5-1.413-1.006-2.119-1.52-3.96,4.174-7.557,5.459-10.061,5.876-8.092,1.349-12.983-5-25.763-8.017a52.382,52.382,0,0,0-12.223-1.391c.257,3.8,1.413,10.661,6.668,15.82,9.28,9.109,25.838,7.471,35.46-.128A27.3,27.3,0,0,0,389.9,406.023Z" transform="translate(-276.554 -390.62)"/><path class="ca" d="M350.073,459.973a61.057,61.057,0,0,1,21.482,9.547c2.194,1.573,3.2,2.547,3.746,3.982,3.115,8.135-12.887,20.444-14.589,21.728-.749-1.734-1.488-3.479-2.237-5.213,1.648-9.076,4.41-11.923,6.711-12.769.642-.236,1.723-.492,1.7-.792-.053-.717-6.133.31-11.934-1.82s-11.613-7.482-10.575-11.024C344.571,462.97,345.363,461.1,350.073,459.973Z" transform="translate(-278.693 -418.529)"/><path class="cb" d="M350.073,459.973a61.057,61.057,0,0,1,21.482,9.547c2.194,1.573,3.2,2.547,3.746,3.982,3.115,8.135-12.887,20.444-14.589,21.728-.749-1.734-1.488-3.479-2.237-5.213,1.648-9.076,4.41-11.923,6.711-12.769.642-.236,1.723-.492,1.7-.792-.053-.717-6.133.31-11.934-1.82s-11.613-7.482-10.575-11.024C344.571,462.97,345.363,461.1,350.073,459.973Z" transform="translate(-278.693 -418.529)"/><path class="cc" d="M373.744,572.859s-.974.353-.985,1.124a13.107,13.107,0,0,0,2.076,5.395c1.081,1.209,1.177-.6,1.113-1.755a20.727,20.727,0,0,0-.621-4.271C375.061,572.838,373.744,572.859,373.744,572.859Z" transform="translate(-292.175 -471.925)"/><path class="cd" d="M363.441,476.045c1.905-.032,6.39-.4,7.578,1.82,1,1.841-.749,4.645-1.82,6.369-2.911,4.677-5.737,5.159-7.728,8.038a10.157,10.157,0,0,0-1.691,4.891c-.417-.985-.846-1.969-1.263-2.954,1.648-9.076,4.41-11.924,6.711-12.769.642-.235,1.723-.492,1.7-.792-.054-.717-6.133.31-11.934-1.82-5.277-1.937-10.564-6.55-10.671-10.04C352.673,474.76,358.967,476.13,363.441,476.045Z" transform="translate(-278.725 -422.698)"/><path class="ce" d="M373.552,566.624c.054,1.188.161,2.194.246,2.933a9.715,9.715,0,0,0,.642,2.879c.225.514.781,1.638,1.038,1.563s-.011-1.327-.214-4.785c-.032-.5-.118-2.1-.118-2.1h0Z" transform="translate(-292.549 -468.976)"/><path class="cf" d="M333.356,460.915a47.289,47.289,0,0,1,12.277,10.607c2.7,3.307,6.807,8.349,8.3,15.852.792,4,.407,7.589-.407,14.61a144.975,144.975,0,0,1-2.868,16.515c-.471.182-.931.375-1.4.557a29.892,29.892,0,0,1-3.468-10.564c-.953-7.589,1.884-10.008.525-15.392-1.177-4.667-4.6-7.524-11.453-13.251-5.619-4.7-10.81-7.492-12.737-13.347a4.489,4.489,0,0,1-.075-3.339C323.2,460.776,327.6,459.941,333.356,460.915Z" transform="translate(-268.045 -418.786)"/><path class="cg" d="M360.06,423.944c1.2-.225,1.766-.824,4.827-1.841a14.37,14.37,0,0,1,2.6-.589c6.615-.91,9.3,2.269,14.1,1.359a10.284,10.284,0,0,0,2.8-.985c-.417.375-.846.749-1.306,1.113-9.622,7.589-26.181,9.237-35.46.128a21.454,21.454,0,0,1-5.309-8.734,21.833,21.833,0,0,1,6.657,2.28C354.837,419.866,356.742,424.554,360.06,423.944Z" transform="translate(-277.774 -396.97)"/><path class="ch" d="M273.67,394.227c1.552-.417,4.142-.482,6.508-2.547.706-.621,3.232-2.826,2.762-5.769a5.949,5.949,0,0,0-3.265-4.014c-1.8-.878-3.532-.567-5.448-.2-2.483.471-3.286,1.2-5,1.755-4.249,1.381-5.833-.963-10.158-.546-5.534.546-5.8,4.667-10.457,5-5.234.385-6.5-4.688-11.71-5.3-7.235-.835-17.7,7.439-17.029,16.333.385,5.138,4.517,10.832,9.5,12.352,2.9.888,5.962.407,6.936,2.216.7,1.284-.664,2.376-.407,4.667.321,2.954,2.976,4.9,3.4,5.223,3.982,2.922,12.48.91,18.11-3.8C267.569,411.107,265.225,396.5,273.67,394.227Z" transform="translate(-219.844 -381.329)"/><path class="ci" d="M296.515,401.8a113.2,113.2,0,0,1,12.234-.835c9.644-.128,11.025,1.092,11.378,2,.664,1.691-1.895,3.2-1.252,6.144.385,1.755,1.445,1.895,2.183,3.789.717,1.841.161,2.836-.482,7.15-.813,5.523-1.188,8.327.353,10.564,1.07,1.552,2.28,1.68,2.162,2.408-.246,1.563-5.662.706-12.512,3.714a50.857,50.857,0,0,0-5.341,2.847c-3.586,2.109-4.249,2.911-5.908,3.864-5.255,3.018-13.144,3.307-17.275-.343-1.541-1.359-2.665-3.361-2.162-4.089.685-1,3.768,1.263,6.593-.118,1.873-.91,1.52-2.4,3.682-4.142,2.6-2.1,4.421-1,6.187-2.365,2.762-2.13,1.509-7.236.728-15.788A144.511,144.511,0,0,1,296.515,401.8Z" transform="translate(-248.19 -390.612)"/><path class="cj" d="M296.071,416.107a15.1,15.1,0,0,0-15.691,20.229l-2.954,1.477a20.345,20.345,0,0,1-5.341-11.025c-1.5-11.442,8.177-23.141,18.87-25.121a19.635,19.635,0,0,1,8.027.235Q297.537,409.017,296.071,416.107Z" transform="translate(-244.481 -390.804)"/><path class="ck" d="M325.919,391.669s-.439,3.511-1.734,4.313-3.393.771-3.628,1.06,6.636,2.869,10.736.8l1.713-1.2a10.156,10.156,0,0,1-3.757-.482,5.786,5.786,0,0,1-1.905-1.766l.011-1.948Z" transform="translate(-267.479 -386.22)"/><path class="cl" d="M329.664,391.117a1.95,1.95,0,0,0,2.173.674c1.188-.428.482-3.5-.46-3.853a1.676,1.676,0,0,0-1.274.171,1.851,1.851,0,0,0-.578,2.077c-.3-.086-.567-.011-.632.139-.086.193.171.449.225.5A.963.963,0,0,0,329.664,391.117Z" transform="translate(-271.417 -384.427)"/><path class="cm" d="M280.57,428.549c1.67-6.1,7.086-11.806,13.411-12.159,2.751-.161,7.236.664,8.862,3.639,1.477,2.7-.888,4.4-.45,9.323.546,6.2,4.817,9.184,3.414,11.142-1.188,1.659-4.292-.428-7.385,1.7-2.376,1.627-1.531,3.521-3.982,5.684a10.581,10.581,0,0,1-9.323,2.044,10.955,10.955,0,0,1-5.341-3.168.81.81,0,0,1,.107-.471c.685-1,3.768,1.263,6.593-.118,1.873-.91,1.52-2.4,3.682-4.142,2.6-2.1,4.421-1,6.187-2.365,2.761-2.13,1.509-7.236.728-15.788-.021-.2-.032-.428-.053-.642a15.09,15.09,0,0,0-8.948,3.853,15.821,15.821,0,0,0-3.982,16.344c-.15.075-.3.15-.439.225C281.886,441.115,278.718,435.335,280.57,428.549Z" transform="translate(-248.193 -397.904)"/><path class="cn" d="M285.054,468.524l.45.985s4.774.6,4,2.612-1.327.835-1.616.3a5.112,5.112,0,0,0-2.612-1.445c-.664-.064-1.723-1.713-1.723-1.713Z" transform="translate(-249.98 -422.573)"/></g></g></g></g></svg>