<svg width="31" height="31" viewBox="0 0 31 31" fill="none" xmlns="http://www.w3.org/2000/svg">
<g clip-path="url(#clip0)">
<path d="M8.26736 6.16191H14.8289C15.7685 4.05598 17.4208 2.3531 17.4346 2.32539C17.6982 2.07939 17.7685 1.71038 17.6279 1.37651C17.4874 1.04265 17.1711 0.831787 16.8197 0.831787C15.2382 0.831787 14.3772 1.39409 13.6919 1.85095C13.0769 2.27268 12.6024 2.58897 11.5481 2.58897C10.4938 2.58897 10.0194 2.27268 9.40438 1.85095C8.71908 1.39409 7.85806 0.831787 6.27659 0.831787C5.92516 0.831787 5.60887 1.04265 5.46829 1.37651C5.32772 1.71038 5.398 2.07939 5.66158 2.32539C5.67546 2.3531 7.32774 4.05598 8.26736 6.16191Z" fill="white"/>
<path d="M17.7562 28.1843V29.9414C17.7562 30.4267 18.1496 30.82 18.6348 30.82H29.2365C29.7217 30.82 30.1151 30.4267 30.1151 29.9414V28.1843C30.1151 27.699 29.7217 27.3057 29.2365 27.3057H18.6348C18.1496 27.3057 17.7562 27.699 17.7562 28.1843Z" fill="white"/>
<path d="M30.1151 24.6702V22.913C30.1151 22.4278 29.7217 22.0344 29.2365 22.0344H18.6348C18.1496 22.0344 17.7562 22.4278 17.7562 22.913V24.6702C17.7562 25.1554 18.1496 25.5488 18.6348 25.5488H29.2365C29.7217 25.5488 30.1151 25.1554 30.1151 24.6702Z" fill="white"/>
<path d="M17.6449 15.0414C15.923 13.3545 14.5173 11.9254 14.2361 9.6763H15.062C15.554 9.6763 15.9405 9.28974 15.9405 8.79775C15.9405 8.30575 15.554 7.91919 15.062 7.91919H8.03353C7.54154 7.91919 7.15498 8.30575 7.15498 8.79775C7.15498 9.28974 7.54154 9.6763 8.03353 9.6763H8.85938C8.57824 11.9254 7.17255 13.3545 5.45058 15.0414C2.95548 17.4837 0.126526 20.26 0.126526 26.6032C0.161668 28.9225 2.14721 30.8202 4.51931 30.8202H16.1022C16.0038 30.5444 15.9405 30.2509 15.9405 29.9417V22.9132C15.9405 21.4601 17.1231 20.2775 18.5762 20.2775H21.7232C20.6601 17.9992 19.0834 16.4529 17.6449 15.0414ZM11.5478 20.2775C13.0011 20.2775 14.1834 21.4599 14.1834 22.9132C14.1834 24.0571 13.4467 25.0232 12.4263 25.3871V26.4274C12.4263 26.9131 12.0334 27.306 11.5478 27.306C11.0622 27.306 10.6692 26.9131 10.6692 26.4274V25.3871C9.64879 25.0232 8.91209 24.0571 8.91209 22.9132C8.91209 22.4276 9.30504 22.0347 9.79065 22.0347C10.2763 22.0347 10.6692 22.4276 10.6692 22.9132C10.6692 23.3979 11.063 23.7918 11.5478 23.7918C12.0325 23.7918 12.4263 23.3979 12.4263 22.9132C12.4263 22.4285 12.0325 22.0347 11.5478 22.0347C10.0944 22.0347 8.91209 20.8524 8.91209 19.399C8.91209 18.2551 9.64879 17.2891 10.6692 16.9252V15.8848C10.6692 15.3992 11.0622 15.0062 11.5478 15.0062C12.0334 15.0062 12.4263 15.3992 12.4263 15.8848V16.9252C13.4467 17.289 14.1834 18.2551 14.1834 19.399C14.1834 19.8846 13.7905 20.2775 13.3049 20.2775C12.8193 20.2775 12.4263 19.8846 12.4263 19.399C12.4263 18.9143 12.0325 18.5204 11.5478 18.5204C11.063 18.5204 10.6692 18.9143 10.6692 19.399C10.6692 19.8837 11.063 20.2775 11.5478 20.2775Z" fill="white"/>
</g>
<defs>
<clipPath id="clip0">
<rect width="29.9881" height="29.9881" fill="white" transform="translate(0.126526 0.831787)"/>
</clipPath>
</defs>
</svg>
