<svg width="32" height="22" viewBox="0 0 32 22" fill="none" xmlns="http://www.w3.org/2000/svg">
<path fill-rule="evenodd" clip-rule="evenodd" d="M7.67752 19.8767L0.593018 13.3747L2.59222 11.5754L7.92343 14.5742L23.2506 0.179932L25.2498 1.37946L9.68939 19.764C9.4549 20.0409 9.09825 20.2125 8.71209 20.2342C8.32593 20.2558 7.94838 20.1254 7.67752 19.8767Z" fill="white"/>
<path opacity="0.497489" fill-rule="evenodd" clip-rule="evenodd" d="M30.5813 5.57799H27.2491C26.8811 5.57799 26.5827 5.30946 26.5827 4.9782C26.5827 4.64695 26.8811 4.37842 27.2491 4.37842H30.5813C30.9494 4.37842 31.2477 4.64695 31.2477 4.9782C31.2477 5.30946 30.9494 5.57799 30.5813 5.57799Z" fill="white"/>
<path opacity="0.497489" fill-rule="evenodd" clip-rule="evenodd" d="M30.5816 10.9757H22.5845C22.2165 10.9757 21.9181 10.7072 21.9181 10.3759C21.9181 10.0447 22.2165 9.77612 22.5845 9.77612H30.5816C30.9497 9.77612 31.2481 10.0447 31.2481 10.3759C31.2481 10.7072 30.9497 10.9757 30.5816 10.9757Z" fill="white"/>
<path opacity="0.497489" fill-rule="evenodd" clip-rule="evenodd" d="M30.5823 16.3741H17.9202C17.5522 16.3741 17.2538 16.1056 17.2538 15.7743C17.2538 15.4431 17.5522 15.1746 17.9202 15.1746H30.5823C30.9503 15.1746 31.2487 15.4431 31.2487 15.7743C31.2487 16.1056 30.9503 16.3741 30.5823 16.3741Z" fill="white"/>
<path opacity="0.497489" fill-rule="evenodd" clip-rule="evenodd" d="M30.5812 21.7715H13.2547C12.8867 21.7715 12.5883 21.503 12.5883 21.1718C12.5883 20.8405 12.8867 20.572 13.2547 20.572H30.5812C30.9493 20.572 31.2476 20.8405 31.2476 21.1718C31.2476 21.503 30.9493 21.7715 30.5812 21.7715Z" fill="white"/>
</svg>
