<svg width="28" height="28" viewBox="0 0 28 28" fill="none" xmlns="http://www.w3.org/2000/svg">
<g clip-path="url(#clip0)">
<path d="M14.3854 3.13489H13.143C12.7703 1.83601 11.5731 0.875977 10.15 0.875977C8.72688 0.875977 7.52965 1.83601 7.15693 3.13489H5.91453C5.45146 3.13489 5.06744 3.5189 5.06744 3.98198V5.67616C5.06744 6.76044 5.95971 7.65271 7.04399 7.65271H13.256C14.3403 7.65271 15.2325 6.76044 15.2325 5.67616V3.98198C15.2325 3.5189 14.8485 3.13489 14.3854 3.13489Z" fill="white"/>
<path d="M16.6444 4.2644H16.362V5.67622C16.362 7.39299 14.9728 8.78222 13.256 8.78222H7.04399C5.32722 8.78222 3.93799 7.39299 3.93799 5.67622V4.2644H3.65562C1.93885 4.2644 0.549622 5.65363 0.549622 7.3704V21.4886C0.549622 23.2054 1.93885 24.5946 3.65562 24.5946H11.0987C10.534 23.3861 10.1952 22.0533 10.1613 20.6415H4.78508C4.322 20.6415 3.93799 20.2575 3.93799 19.7944C3.93799 19.3313 4.322 18.9473 4.78508 18.9473H10.2516C10.3533 18.2583 10.5227 17.6033 10.7486 16.9708H4.78508C4.322 16.9708 3.93799 16.5868 3.93799 16.1237C3.93799 15.6606 4.322 15.2766 4.78508 15.2766H11.5618C12.0023 14.5537 12.5218 13.8874 13.1317 13.3H4.78508C4.322 13.3 3.93799 12.916 3.93799 12.453C3.93799 11.9899 4.322 11.6059 4.78508 11.6059H15.4471C16.746 10.9282 18.203 10.5216 19.7504 10.4877V7.3704C19.7504 5.65363 18.3611 4.2644 16.6444 4.2644Z" fill="white"/>
<path d="M20.0327 12.7354C15.8289 12.7354 12.4089 16.1553 12.4089 20.3592C12.4089 24.563 15.8289 27.983 20.0327 27.983C24.2365 27.983 27.6565 24.563 27.6565 20.3592C27.6565 16.1553 24.2365 12.7354 20.0327 12.7354ZM23.7057 18.8446L19.7526 23.3624C19.547 23.5973 19.2534 23.7374 18.9405 23.7475C18.9281 23.7475 18.9157 23.7475 18.9032 23.7475C18.6039 23.7475 18.3171 23.6289 18.1047 23.4166L15.8458 21.1577C15.4042 20.7161 15.4042 20.0023 15.8458 19.5606C16.2874 19.119 17.0012 19.119 17.4429 19.5606L18.8479 20.9657L22.0058 17.3559C22.417 16.8884 23.1297 16.8387 23.5995 17.2498C24.0694 17.6609 24.1168 18.3747 23.7057 18.8446Z" fill="white"/>
</g>
<defs>
<clipPath id="clip0">
<rect width="27.1069" height="27.1069" fill="white" transform="translate(0.549622 0.875977)"/>
</clipPath>
</defs>
</svg>
