<svg width="28" height="28" viewBox="0 0 28 28" fill="none" xmlns="http://www.w3.org/2000/svg">
<g clip-path="url(#clip0)">
<path d="M14.3283 5.69381C14.7673 5.69381 15.1225 5.33861 15.1225 4.89966V1.67012C15.1225 1.23117 14.7673 0.875977 14.3283 0.875977C13.8894 0.875977 13.5342 1.23117 13.5342 1.67012V4.89966C13.5342 5.33861 13.8894 5.69381 14.3283 5.69381Z" fill="white"/>
<path d="M23.8875 4.88328C23.5773 4.57309 23.0747 4.57309 22.7645 4.88328L20.5185 7.12923C20.2083 7.43943 20.2083 7.94202 20.5185 8.25221C20.8287 8.5624 21.3313 8.5624 21.6415 8.25221L23.8875 6.00626C24.1976 5.69601 24.1976 5.19347 23.8875 4.88328Z" fill="white"/>
<path d="M27.0347 13.6353H23.8051C23.3662 13.6353 23.011 13.9904 23.011 14.4294C23.011 14.8684 23.3662 15.2235 23.8051 15.2235H27.0347C27.4736 15.2235 27.8288 14.8684 27.8288 14.4294C27.8288 13.9904 27.4736 13.6353 27.0347 13.6353Z" fill="white"/>
<path d="M21.6415 20.6067C21.3313 20.2965 20.8287 20.2965 20.5185 20.6067C20.2083 20.9169 20.2083 21.4195 20.5185 21.7297L22.7645 23.9756C23.0747 24.2858 23.5773 24.2858 23.8875 23.9756C24.1976 23.6654 24.1976 23.1628 23.8875 22.8526L21.6415 20.6067Z" fill="white"/>
<path d="M4.79533 4.88332C4.48513 5.19351 4.48513 5.6961 4.79533 6.0063L7.04128 8.25225C7.35148 8.56245 7.85407 8.56245 8.16426 8.25225C8.47446 7.94206 8.47446 7.43947 8.16426 7.12928L5.91831 4.88332C5.60811 4.57307 5.10558 4.57307 4.79533 4.88332Z" fill="white"/>
<path d="M2.07762 27.7503C2.38765 28.0603 2.89029 28.0606 3.20059 27.7503L5.89143 25.0602L7.84731 27.0154C8.03812 27.2062 8.31263 27.2837 8.57634 27.2302C8.84159 27.1728 9.05717 26.9851 9.15178 26.7331L12.9227 16.7649C13.0328 16.4733 12.9614 16.1445 12.7412 15.9243C12.5209 15.7032 12.1952 15.6334 11.9005 15.742L1.93155 19.5128C1.67874 19.6075 1.49106 19.8246 1.4352 20.0883C1.37781 20.3519 1.45845 20.6273 1.64925 20.8181L3.64394 22.8135L0.954691 25.5035C0.644497 25.8137 0.644497 26.3163 0.954691 26.6265L2.07762 27.7503Z" fill="white"/>
<path d="M16.6579 14.4293C16.6579 13.1156 15.5892 12.0469 14.2755 12.0469C13.065 12.0469 12.0735 12.9576 11.9235 14.1278C12.6257 14.0506 13.3392 14.2736 13.866 14.8023C14.3926 15.3282 14.6197 16.0649 14.5274 16.7862C15.7215 16.6585 16.6579 15.6568 16.6579 14.4293Z" fill="white"/>
<path d="M14.2754 21.5766C18.2166 21.5766 21.4227 18.3706 21.4227 14.4293C21.4227 10.4881 18.2166 7.28198 14.2754 7.28198C10.3341 7.28198 7.12805 10.4881 7.12805 14.4293C7.12805 14.893 7.1802 15.3441 7.26491 15.7834L10.3254 14.6359C10.3217 14.5661 10.3046 14.5001 10.3046 14.4293C10.3046 12.24 12.0852 10.4586 14.2753 10.4586C16.4654 10.4586 18.2461 12.24 18.2461 14.4293C18.2461 16.6187 16.4654 18.4001 14.2753 18.4001C14.1864 18.4001 14.1033 18.3796 14.0158 18.3738L12.8682 21.4344C13.3236 21.5258 13.7936 21.5766 14.2754 21.5766Z" fill="white"/>
</g>
<defs>
<clipPath id="clip0">
<rect width="27.1069" height="27.1069" fill="white" transform="translate(0.721924 0.875977)"/>
</clipPath>
</defs>
</svg>
