<svg width="86" height="86" viewBox="0 0 86 86" fill="none" xmlns="http://www.w3.org/2000/svg">
<g filter="url(#filter0_d)">
<circle cx="42.9999" cy="29.9999" r="24.9999" fill="#F86F1F"/>
</g>
<path d="M50.8125 30C50.8125 32.072 49.9894 34.0591 48.5243 35.5243C47.0591 36.9894 45.072 37.8125 43 37.8125C40.928 37.8125 38.9409 36.9894 37.4757 35.5243C36.0106 34.0591 35.1875 32.072 35.1875 30C35.1875 29.5547 35.2344 29.1198 35.3151 28.6979H32.5833V39.1068C32.5833 39.8307 33.1693 40.4167 33.8932 40.4167H52.1094C52.4563 40.416 52.7888 40.2777 53.0339 40.0321C53.279 39.7865 53.4167 39.4537 53.4167 39.1068V28.6979H50.6849C50.7656 29.1198 50.8125 29.5547 50.8125 30ZM43 35.2083C43.6841 35.2082 44.3615 35.0732 44.9935 34.8113C45.6255 34.5493 46.1997 34.1654 46.6834 33.6815C47.167 33.1977 47.5506 32.6233 47.8123 31.9911C48.0739 31.359 48.2085 30.6815 48.2083 29.9974C48.2082 29.3133 48.0732 28.6358 47.8113 28.0039C47.5493 27.3719 47.1654 26.7976 46.6815 26.314C46.1977 25.8304 45.6233 25.4468 44.9911 25.1851C44.359 24.9235 43.6815 24.7889 42.9974 24.7891C41.6157 24.7894 40.2908 25.3386 39.314 26.3158C38.3373 27.2931 37.7887 28.6183 37.7891 30C37.7894 31.3817 38.3386 32.7066 39.3158 33.6834C40.2931 34.6601 41.6183 35.2087 43 35.2083ZM49.25 24.5312H52.3724C52.5798 24.5312 52.7788 24.449 52.9257 24.3026C53.0727 24.1561 53.1556 23.9574 53.1562 23.75V20.6276C53.1562 20.4197 53.0737 20.2203 52.9267 20.0733C52.7797 19.9263 52.5803 19.8437 52.3724 19.8437H49.25C49.0421 19.8437 48.8427 19.9263 48.6957 20.0733C48.5487 20.2203 48.4661 20.4197 48.4661 20.6276V23.75C48.4688 24.1797 48.8203 24.5312 49.25 24.5312ZM43 5C36.3696 5 30.0107 7.63392 25.3223 12.3223C20.6339 17.0107 18 23.3696 18 30C18 36.6304 20.6339 42.9893 25.3223 47.6777C30.0107 52.3661 36.3696 55 43 55C46.283 55 49.5339 54.3534 52.5671 53.097C55.6002 51.8406 58.3562 49.9991 60.6777 47.6777C62.9991 45.3562 64.8406 42.6002 66.097 39.5671C67.3534 36.5339 68 33.283 68 30C68 26.717 67.3534 23.4661 66.097 20.4329C64.8406 17.3998 62.9991 14.6438 60.6777 12.3223C58.3562 10.0009 55.6002 8.15938 52.5671 6.90301C49.5339 5.64664 46.283 5 43 5ZM56.0208 40.1276C56.0208 41.7188 54.7188 43.0208 53.1276 43.0208H32.8724C31.2812 43.0208 29.9792 41.7188 29.9792 40.1276V19.8724C29.9792 18.2812 31.2812 16.9792 32.8724 16.9792H53.1276C54.7188 16.9792 56.0208 18.2812 56.0208 19.8724V40.1276Z" fill="white"/>
<defs>
<filter id="filter0_d" x="0" y="0" width="85.9998" height="85.9998" filterUnits="userSpaceOnUse" color-interpolation-filters="sRGB">
<feFlood flood-opacity="0" result="BackgroundImageFix"/>
<feColorMatrix in="SourceAlpha" type="matrix" values="0 0 0 0 0 0 0 0 0 0 0 0 0 0 0 0 0 0 127 0"/>
<feOffset dy="13"/>
<feGaussianBlur stdDeviation="9"/>
<feColorMatrix type="matrix" values="0 0 0 0 0.0658854 0 0 0 0 0.0730469 0 0 0 0 0.1375 0 0 0 0.08 0"/>
<feBlend mode="normal" in2="BackgroundImageFix" result="effect1_dropShadow"/>
<feBlend mode="normal" in="SourceGraphic" in2="effect1_dropShadow" result="shape"/>
</filter>
</defs>
</svg>
