<svg xmlns="http://www.w3.org/2000/svg" width="21.796" height="25.396" viewBox="0 0 21.796 25.396"><defs><style>.a{fill:#f86f1f;}</style></defs><g transform="translate(-35.038)"><g transform="translate(46.646 6.52)"><path class="a" d="M268.936,136.477v-9.1a.486.486,0,0,0-.514-.478h-1.988a.5.5,0,0,0-.529.478v8.21a4.8,4.8,0,0,0-.976.128V130.06a.5.5,0,0,0-.524-.488h-1.988a.5.5,0,0,0-.519.488v7.671a5.043,5.043,0,0,0-.935,2.949,5.094,5.094,0,1,0,7.974-4.2Zm-2-8.549h.976v8a4.581,4.581,0,0,0-.976-.267Zm-4.008,2.672h.976v5.472a5.234,5.234,0,0,0-.976.586Zm6.633,12.151a4.065,4.065,0,1,1-5.051-5.826.487.487,0,0,0,.17-.067,3.988,3.988,0,0,1,1.387-.247c.108,0,.211.005.319.015h.005a3.969,3.969,0,0,1,1.747.555A4.063,4.063,0,0,1,269.557,142.75Z" transform="translate(-260.962 -126.9)"/></g><g transform="translate(50.078 16.729)"><path class="a" d="M329.431,328.755a.65.65,0,1,1,.642-.653.515.515,0,0,0,.514.514.521.521,0,0,0,.524-.514,1.678,1.678,0,0,0-1.064-1.562v-.426a.514.514,0,0,0-1.028,0v.37a1.676,1.676,0,0,0-1.2,2.04,1.654,1.654,0,0,0,1.608,1.254.645.645,0,1,1-.647.642.515.515,0,0,0-.514-.514.5.5,0,0,0-.5.509v.005a1.682,1.682,0,0,0,1.254,1.618v.231a.514.514,0,0,0,1.028,0v-.283a1.673,1.673,0,0,0-.611-3.232Z" transform="translate(-327.761 -325.6)"/></g><g transform="translate(39.514 13.302)"><path class="a" d="M124.681,258.9h-2a.515.515,0,0,0-.514.514v8.066a.515.515,0,0,0,.514.514h2a.515.515,0,0,0,.514-.514v-8.066A.515.515,0,0,0,124.681,258.9Zm-.514,8.118h-.976v-7.09h.976Z" transform="translate(-122.163 -258.9)"/></g><g transform="translate(43.573 12.12)"><path class="a" d="M203.68,235.9h-2a.515.515,0,0,0-.514.514v9.3a.515.515,0,0,0,.514.514h2a.515.515,0,0,0,.514-.514v-9.3A.515.515,0,0,0,203.68,235.9Zm-.514,9.3h-.976v-8.272h.976Z" transform="translate(-201.163 -235.9)"/></g><g transform="translate(35.455 17.72)"><path class="a" d="M45.681,344.9h-2a.515.515,0,0,0-.514.514v3.648a.515.515,0,0,0,.514.514h2a.515.515,0,0,0,.514-.514v-3.648A.515.515,0,0,0,45.681,344.9Zm-.514,3.7h-.976v-2.672h.976Z" transform="translate(-43.163 -344.9)"/></g><g transform="translate(35.038)"><path class="a" d="M54.543,0,51.028.005a.514.514,0,1,0-.01,1.028h.01L53.3,1.028,47.73,6.582,45.782,4.65a.565.565,0,0,0-.73,0l-9.865,9.865a.512.512,0,0,0,.73.719l9.505-9.505L47.37,7.691a.514.514,0,0,0,.365.164.546.546,0,0,0,.365-.164l5.929-5.934-.005,2.286a.514.514,0,1,0,1.028,0L55.056.519A.52.52,0,0,0,54.543,0Z" transform="translate(-35.038)"/></g></g></svg>