<svg xmlns="http://www.w3.org/2000/svg" width="32" height="32" viewBox="0 0 32 32"><defs><style>.a{fill:#f86f1f;}</style></defs><g transform="translate(0 0)"><path class="a" d="M27.7,180.579a3.154,3.154,0,0,0,.651-1.922V177.55a3.171,3.171,0,1,0-6.342,0v1.107a3.154,3.154,0,0,0,.65,1.921H19.108a4.486,4.486,0,0,0,1.392-3.25V174.45a4.5,4.5,0,1,0-9,0v2.878a4.486,4.486,0,0,0,1.392,3.25H9.345a3.154,3.154,0,0,0,.65-1.921V177.55a3.171,3.171,0,1,0-6.342,0v1.107a3.154,3.154,0,0,0,.651,1.922A4.351,4.351,0,0,0,0,184.925v2.367a.625.625,0,0,0,.625.625h5V190.7a.625.625,0,0,0,.625.625H8a.625.625,0,0,0,0-1.25H6.875v-3.045a5.211,5.211,0,0,1,4.794-5.187l3.4,8.232H13.625a.625.625,0,0,0,0,1.25H25.75a.625.625,0,0,0,.625-.625v-2.786h5a.625.625,0,0,0,.625-.625v-2.367A4.351,4.351,0,0,0,27.7,180.579Zm-4.441-1.922V177.55a1.921,1.921,0,1,1,3.842,0v1.107a1.921,1.921,0,1,1-3.842,0ZM16,171.2a3.254,3.254,0,0,1,3.25,3.25v.006h0a5.293,5.293,0,0,1-2.905-.866.625.625,0,0,0-.684,0,5.293,5.293,0,0,1-2.905.866h0v-.006A3.254,3.254,0,0,1,16,171.2Zm-3.25,6.128v-1.622h0A6.536,6.536,0,0,0,16,174.845a6.536,6.536,0,0,0,3.247.861h0v1.622a3.25,3.25,0,0,1-6.5,0ZM4.9,177.55a1.921,1.921,0,1,1,3.842,0v1.107a1.921,1.921,0,1,1-3.842,0Zm.733,9.117H1.25v-1.742a3.1,3.1,0,0,1,3.1-3.1h3.92A6.453,6.453,0,0,0,5.636,186.667Zm7.388-4.839h2.352v1.5a.625.625,0,0,0,1.25,0v-1.5h2.361L16,189.065l-2.986-7.236Zm12.1,8.25H16.934l3.4-8.232a5.211,5.211,0,0,1,4.794,5.187Zm5.625-3.411H26.364a6.453,6.453,0,0,0-2.631-4.839h3.92a3.1,3.1,0,0,1,3.1,3.1Z" transform="translate(0 -159.328)"/><path class="a" d="M179.641,4.815l1.492,1.079-.571,1.743a1.228,1.228,0,0,0,1.891,1.374l1.482-1.081,1.482,1.081a1.209,1.209,0,0,0,1.445,0,1.209,1.209,0,0,0,.445-1.375l-.571-1.743,1.492-1.079a1.228,1.228,0,0,0-.719-2.223h-1.842L185.1.85a1.228,1.228,0,0,0-2.337,0L182.2,2.593H180.36a1.228,1.228,0,0,0-.719,2.223Zm3.017-.973a.625.625,0,0,0,.595-.433l.682-2.11.682,2.11a.625.625,0,0,0,.595.433h2.229l-1.806,1.306a.625.625,0,0,0-.228.7l.691,2.111L184.3,6.651a.625.625,0,0,0-.737,0l-1.794,1.309.691-2.111a.625.625,0,0,0-.228-.7l-1.806-1.306h2.229Z" transform="translate(-167.934 0)"/><path class="a" d="M163.625,492a.625.625,0,1,0,.442.183A.629.629,0,0,0,163.625,492Z" transform="translate(-152.813 -461.25)"/></g></svg>