<svg width="60" height="54" viewBox="0 0 60 54" fill="none" xmlns="http://www.w3.org/2000/svg">
<path d="M8.73582 53.4141H4.48448L7.49061 50.408C9.11148 48.7871 10.1237 46.6789 10.3958 44.3919C3.45458 39.8368 0 33.2378 0 26.3197C0 13.5567 11.7304 0.586426 30.1017 0.586426C49.564 0.586426 60 12.5215 60 25.2015C60 37.9652 49.4537 49.8922 30.1017 49.8922C26.7117 49.8922 23.1742 49.4397 20.0159 48.6093C17.0262 51.6758 12.9754 53.4141 8.73582 53.4141Z" fill="#7ED8F6"/>
<path d="M59.996 25.2015C59.996 12.5215 49.56 0.586426 30.0977 0.586426V49.8922C49.4497 49.8922 59.996 37.9652 59.996 25.2015Z" fill="#6AA9FF"/>
</svg>
