<svg xmlns="http://www.w3.org/2000/svg" width="21.344" height="21.342" viewBox="0 0 21.344 21.342"><defs><style>.a{fill:#f86f1f;}</style></defs><g transform="translate(0 -0.029)"><g transform="translate(13.162 2.519)"><path class="a" d="M299.23,57.452h0a1.068,1.068,0,0,1-1.067-1.067.356.356,0,0,0-.711,0,1.068,1.068,0,0,1-1.067,1.067.356.356,0,1,0,0,.711,1.068,1.068,0,0,1,1.067,1.067.356.356,0,1,0,.711,0,1.068,1.068,0,0,1,1.067-1.067.356.356,0,0,0,.356-.356h0A.356.356,0,0,0,299.23,57.452Zm-1.423.712a1.792,1.792,0,0,0-.357-.357.357.357,0,0,1,.713,0A1.793,1.793,0,0,0,297.807,58.164Z" transform="translate(-296.029 -56.029)"/></g><g transform="translate(4.626 2.519)"><path class="a" d="M107.23,57.452a1.068,1.068,0,0,1-1.067-1.067.356.356,0,0,0-.711,0,1.068,1.068,0,0,1-1.067,1.067.356.356,0,1,0,0,.711,1.068,1.068,0,0,1,1.067,1.067.356.356,0,1,0,.711,0,1.068,1.068,0,0,1,1.067-1.067.356.356,0,1,0,0-.711Zm-1.423.712a1.793,1.793,0,0,0-.357-.357,1.793,1.793,0,0,0,.357-.357,1.793,1.793,0,0,0,.357.357A1.792,1.792,0,0,0,105.807,58.164Z" transform="translate(-104.029 -56.029)"/></g><g transform="translate(8.894 0.029)"><g transform="translate(0 0)"><path class="a" d="M203.23,1.452A1.068,1.068,0,0,1,202.163.385a.356.356,0,0,0-.356-.356h0a.356.356,0,0,0-.356.356h0a1.068,1.068,0,0,1-1.067,1.067.356.356,0,0,0,0,.711,1.068,1.068,0,0,1,1.067,1.067.356.356,0,1,0,.711,0,1.068,1.068,0,0,1,1.067-1.067.356.356,0,0,0,0-.711Zm-1.423.712a1.793,1.793,0,0,0-.357-.357,1.793,1.793,0,0,0,.357-.357,1.793,1.793,0,0,0,.357.357A1.792,1.792,0,0,0,201.807,2.164Z" transform="translate(-200.029 -0.029)"/></g></g><g transform="translate(4.981 5.364)"><path class="a" d="M117.72,120.029a5.691,5.691,0,1,0,5.691,5.691A5.691,5.691,0,0,0,117.72,120.029Zm0,10.671a4.98,4.98,0,1,1,4.98-4.98A4.98,4.98,0,0,1,117.72,130.7Z" transform="translate(-112.029 -120.029)"/></g><g transform="translate(7.116 7.143)"><path class="a" d="M160.029,163.586h.711a2.849,2.849,0,0,1,2.846-2.846v-.711A3.561,3.561,0,0,0,160.029,163.586Z" transform="translate(-160.029 -160.029)"/></g><g transform="translate(13.518 8.566)"><path class="a" d="M311.854,200.031l-.006-6.284a1.555,1.555,0,0,0-1.417-1.718h-.068a1.552,1.552,0,0,0-1.466,1.45l-.875,4.5a1.173,1.173,0,0,0-.85.2l-2.684,1.888a1.086,1.086,0,0,0-.46.886v3.522a.356.356,0,0,0,.356.356h3.557a.356.356,0,0,0,.356-.356h0v-.45l2.342-1.491A3.009,3.009,0,0,0,311.854,200.031Zm-1.6,1.911-2.5,1.591a.356.356,0,0,0-.165.3v.29H304.74v-3.167a.373.373,0,0,1,.158-.3l2.684-1.888a.464.464,0,0,1,.731.379.454.454,0,0,1-.114.308l-2.266,1.91.458.544,2.288-1.931a1.175,1.175,0,0,0,0-1.66l.917-4.724a.878.878,0,0,1,.764-.85h.068c.4,0,.7.433.706,1.007l.006,6.284A2.293,2.293,0,0,1,310.25,201.942Z" transform="translate(-304.029 -192.029)"/></g><g transform="translate(0 8.566)"><path class="a" d="M7.367,200.069l-2.684-1.888a1.174,1.174,0,0,0-.85-.2L2.962,193.5a1.562,1.562,0,0,0-1.47-1.474H1.424a1.555,1.555,0,0,0-1.417,1.718L0,200.031a3.011,3.011,0,0,0,1.222,2.511l2.335,1.486v.45a.356.356,0,0,0,.356.356H7.471a.356.356,0,0,0,.356-.356h0v-3.522A1.086,1.086,0,0,0,7.367,200.069Zm-.251,4.053H4.27v-.29a.356.356,0,0,0-.165-.3l-2.492-1.586a2.294,2.294,0,0,1-.9-1.915l.006-6.284c0-.574.3-1.007.705-1.007h.068a.891.891,0,0,1,.768.874l.913,4.7a1.175,1.175,0,0,0,0,1.66.362.362,0,0,0,.042.036l2.622,1.91.419-.575-2.6-1.892a.464.464,0,0,1,.612-.69l2.684,1.888a.373.373,0,0,1,.158.3v3.167Z" transform="translate(0 -192.029)"/></g></g></svg>