<svg width="86" height="86" viewBox="0 0 86 86" fill="none" xmlns="http://www.w3.org/2000/svg">
<g filter="url(#filter0_d)">
<circle cx="43" cy="29.9999" r="24.9999" fill="#F86F1F"/>
</g>
<path d="M43 5C29.1927 5 18 16.1927 18 30C18 43.8073 29.1927 55 43 55C56.8073 55 68 43.8073 68 30C68 16.1927 56.8073 5 43 5ZM53.1693 25.4792C53.1797 25.6927 53.1823 25.9062 53.1823 26.1146C53.1823 32.625 48.2318 40.1276 39.1745 40.1276C36.4982 40.132 33.8775 39.3634 31.6276 37.9141C32.0104 37.9609 32.4036 37.9792 32.8021 37.9792C35.1094 37.9792 37.2318 37.1953 38.9167 35.8724C37.8899 35.8522 36.895 35.5122 36.0706 34.8998C35.2462 34.2873 34.6335 33.433 34.3177 32.4557C35.0551 32.5959 35.8147 32.5666 36.5391 32.3698C35.4246 32.1444 34.4224 31.5406 33.7024 30.6606C32.9823 29.7806 32.5888 28.6787 32.5885 27.5417V27.4818C33.2526 27.849 34.013 28.0729 34.8203 28.099C33.7755 27.4035 33.0359 26.3351 32.7527 25.1123C32.4695 23.8896 32.6642 22.6048 33.2969 21.5208C34.5337 23.0417 36.0762 24.2858 37.8244 25.1727C39.5726 26.0596 41.4876 26.5694 43.4453 26.6693C43.1964 25.6128 43.3035 24.5037 43.75 23.5143C44.1965 22.525 44.9573 21.7109 45.9142 21.1986C46.8711 20.6863 47.9705 20.5045 49.0414 20.6814C50.1123 20.8584 51.0947 21.3842 51.8359 22.1771C52.9379 21.9591 53.9947 21.5548 54.9609 20.9818C54.5937 22.1227 53.8247 23.0916 52.7969 23.7083C53.773 23.5908 54.7262 23.3283 55.625 22.9297C54.9648 23.919 54.1332 24.7824 53.1693 25.4792Z" fill="white"/>
<defs>
<filter id="filter0_d" x="0.00012207" y="0" width="85.9998" height="85.9998" filterUnits="userSpaceOnUse" color-interpolation-filters="sRGB">
<feFlood flood-opacity="0" result="BackgroundImageFix"/>
<feColorMatrix in="SourceAlpha" type="matrix" values="0 0 0 0 0 0 0 0 0 0 0 0 0 0 0 0 0 0 127 0"/>
<feOffset dy="13"/>
<feGaussianBlur stdDeviation="9"/>
<feColorMatrix type="matrix" values="0 0 0 0 0.0658854 0 0 0 0 0.0730469 0 0 0 0 0.1375 0 0 0 0.08 0"/>
<feBlend mode="normal" in2="BackgroundImageFix" result="effect1_dropShadow"/>
<feBlend mode="normal" in="SourceGraphic" in2="effect1_dropShadow" result="shape"/>
</filter>
</defs>
</svg>
