<svg xmlns="http://www.w3.org/2000/svg" width="23.128" height="23.127" viewBox="0 0 23.128 23.127"><defs><style>.a{fill:#f86f1f;}</style></defs><g transform="translate(0 -0.01)"><g transform="translate(0 0.011)"><path class="a" d="M21.773,12.477h-.452V9.315A2.624,2.624,0,0,0,19.277,6.76L17.221,3.2a2.257,2.257,0,0,0-2.6-1.033L13.124.67a2.259,2.259,0,0,0-3.191,0L3.909,6.695H2.62A2.623,2.623,0,0,0,0,9.315v11.2a2.623,2.623,0,0,0,2.62,2.62H8.628a.452.452,0,1,0,0-.9H2.62A1.718,1.718,0,0,1,.9,20.517V9.315A1.718,1.718,0,0,1,2.62,7.6H18.7a1.718,1.718,0,0,1,1.717,1.717v3.162H17.075a2.439,2.439,0,1,0,0,4.878h3.343v3.162A1.718,1.718,0,0,1,18.7,22.234H12.693a.452.452,0,1,0,0,.9H18.7a2.623,2.623,0,0,0,2.62-2.62V17.355h.452A1.357,1.357,0,0,0,23.128,16V13.832A1.357,1.357,0,0,0,21.773,12.477ZM15.618,3.02a1.344,1.344,0,0,1,.821.63L18.2,6.695H8.46l6.131-3.54a1.344,1.344,0,0,1,1.026-.135ZM10.573,1.309a1.353,1.353,0,0,1,1.913,0l1.28,1.28L6.653,6.695H5.187ZM22.224,16a.452.452,0,0,1-.452.452h-4.7a1.536,1.536,0,1,1,0-3.072h4.7a.452.452,0,0,1,.452.452Z" transform="translate(0 -0.011)"/><path class="a" d="M366.782,319.988a.452.452,0,1,0,.319.132A.455.455,0,0,0,366.782,319.988Z" transform="translate(-349.782 -305.534)"/><path class="a" d="M226.452,491.988a.452.452,0,1,0,.319.132A.455.455,0,0,0,226.452,491.988Z" transform="translate(-215.791 -469.765)"/></g></g></svg>