<svg xmlns="http://www.w3.org/2000/svg" width="15.952" height="19.94" viewBox="0 0 15.952 19.94"><defs><style>.a{fill:#f86f1f;}</style></defs><g transform="translate(0 -0.001)"><path class="a" d="M.665,5.318H3.988V7.839L2.756,9.071a.332.332,0,0,0-.1.235v4.32a.327.327,0,0,0,.02.112l1.642,4.6v1.272a.332.332,0,0,0,.332.332H8.64a.332.332,0,0,0,.332-.332V14.623a.328.328,0,0,0-.027-.131l-.8-1.863h3.484a.332.332,0,0,0,.332-.332V5.318h3.323V2.659h.665V0H0V2.659H.665ZM8.308,19.275H4.985v-.665H8.308Zm0-1.329H4.885L3.323,13.568V9.443l.665-.665V12.3a.332.332,0,0,0,.332.332H5.649v1.329h.665V10.635a.332.332,0,0,1,.332-.332h.332a.332.332,0,0,1,.332.332V12.3a.328.328,0,0,0,.027.131l.97,2.263ZM11.3,11.964H7.976V10.635a1,1,0,0,0-1-1H6.646a.991.991,0,0,0-.665.259V9.306H5.317V11.3h.332v.665h-1V3.988h.665V8.641h.665V5.409a2.647,2.647,0,0,0,3.988,0V8.641h.665V3.988H11.3ZM6.009,3.988H9.942a1.994,1.994,0,0,1-3.933,0Zm8.613.665H11.964V3.988h.665V3.324H3.323v.665h.665v.665H1.329V2.659H14.622ZM.665.665H15.287V1.994H.665Zm0,0"/><path class="a" d="M48,80h.665v.665H48Zm0,0" transform="translate(-46.006 -76.676)"/><path class="a" d="M320,80h.665v.665H320Zm0,0" transform="translate(-306.707 -76.676)"/><path class="a" d="M209.329,225.329H208v.665h1.994V224h-.665Zm0,0" transform="translate(-199.36 -214.694)"/><path class="a" d="M169.994,169a1,1,0,1,0-1,1A1,1,0,0,0,169.994,169Zm-1,.332a.332.332,0,1,1,.332-.332A.332.332,0,0,1,169,169.329Zm0,0" transform="translate(-161.021 -161.021)"/></g></svg>