<svg width="80" height="80" viewBox="0 0 80 80" fill="none" xmlns="http://www.w3.org/2000/svg">
<path d="M52.9032 45.1613H63.2258C64.6452 45.1613 65.8064 46.3226 65.8064 47.7419V55.4839V72.2581C65.8064 75.8194 62.9161 78.7097 59.3548 78.7097H58.0645V65.8065V51.2645C58.0645 49.5742 57.3806 48.0516 56.271 46.9549C55.2 45.871 53.729 45.2 52.1032 45.1613V45.1355C52.3742 45.1484 52.6322 45.1613 52.9032 45.1613Z" fill="#B27946"/>
<path d="M58.0645 65.8065V78.7097H34.8387V68.3871H43.8709C44.5806 68.3871 45.1613 67.8065 45.1613 67.0968V65.8065H58.0645Z" fill="#D3A06C"/>
<path d="M3.87097 68.3871H34.8387V78.7097H3.87097V68.3871Z" fill="#DFB28B"/>
<path d="M45.1613 65.8064V67.0968C45.1613 67.8064 44.5807 68.3871 43.871 68.3871H34.8387H3.87099H2.58067C1.87099 68.3871 1.29034 67.8064 1.29034 67.0968V64.5161C1.29034 63.8065 1.87099 63.2258 2.58067 63.2258H3.87099H18.0645H30.9678H32.2581H34.8387H43.871C44.5807 63.2258 45.1613 63.8065 45.1613 64.5161V65.8064Z" fill="#CF9E76"/>
<path d="M46.1032 63.2258C52.7097 63.2258 58.0645 57.871 58.0645 51.2645V65.8064H45.1613V64.5161C45.1613 63.8064 44.5806 63.2258 43.871 63.2258H46.1032Z" fill="#FCD770"/>
<path d="M51.9613 45.1613H52.1032C53.729 45.2 55.2 45.871 56.271 46.9548C57.3806 48.0516 58.0645 49.5742 58.0645 51.2645C58.0645 57.871 52.7097 63.2258 46.1032 63.2258H43.8709H34.8387V55.4839H38.7097H43.8709L46.258 49.1226C46.7097 47.9226 47.4968 46.9419 48.4903 46.2452C49.4839 45.5484 50.6839 45.1613 51.9613 45.1613Z" fill="#FCD770"/>
<path d="M41.9484 40.6323C44.2322 42.9032 47.2129 44.4774 52.1032 45.1355V45.1613C52.0516 45.1613 52.0129 45.1613 51.9613 45.1613C50.6839 45.1613 49.4839 45.5484 48.4903 46.2452C47.4968 46.9419 46.7097 47.9226 46.2581 49.1226L43.871 55.4839H38.7097L34.0645 41.5355C33.7548 40.6194 32.9032 40 31.9355 40H30.9677L29.7548 38.1677C28.8645 36.8387 28.3871 35.2774 28.3871 33.6774C28.3871 31.9226 28.9548 30.2065 30.0129 28.8C31.471 26.8645 32.2581 24.4903 32.2581 22.0645V21.9355C32.2581 16.2323 34.5677 11.071 38.2968 7.32903C42.0387 3.6 47.2 1.29033 52.9032 1.29033C58.6064 1.29033 63.7677 3.6 67.5097 7.32903C71.2387 11.071 73.5484 16.2323 73.5484 21.9355C73.5484 24.4645 74.2968 26.929 75.6903 29.0323L76.8258 30.7097C78.0516 32.5677 78.7097 34.7355 78.7097 36.9548C78.7097 40.4903 77.0451 43.8323 74.2064 45.9613L73.5484 46.4516C73.5484 50.9161 70.3226 54.7355 65.9097 55.471L65.8064 55.4839V47.7419C65.8064 46.3226 64.6451 45.1613 63.2258 45.1613H52.9032C61.4581 45.1613 68.3871 38.2323 68.3871 29.6774V20.6452L50.8129 19.7161C48.4 19.5871 46.1419 18.671 44.3742 17.1742L39.5613 19.5742C38.2451 20.2323 37.4193 21.5742 37.4193 23.0323V29.6774C37.4193 33.9613 39.1484 37.8323 41.9484 40.6323Z" fill="#656D78"/>
<path d="M17.5097 60.9935L18.0645 63.2258H3.87097L4.58065 58.0645H13.7548C15.5226 58.0645 17.071 59.2774 17.5097 60.9935Z" fill="#AAB2BD"/>
<path d="M16.7355 50.1032C16.7613 50.2452 16.7742 50.4 16.7742 50.5419C16.7742 51.8452 15.7161 52.9032 14.4129 52.9032H12.271C11.1355 52.9032 10.1677 52.1032 9.96129 50.9936L7.36775 37.5613L3.90968 19.5742C3.88387 19.4323 3.87097 19.2774 3.87097 19.1355C3.87097 17.8323 4.92904 16.7742 6.23226 16.7742H8.3742C9.50968 16.7742 10.4774 17.5742 10.6839 18.6839L16.7355 50.1032Z" fill="#CCD1D9"/>
<path d="M34.0645 41.5355L38.7096 55.4839H34.8387H30.9677C28.8258 55.4839 27.0967 57.2129 27.0967 59.3548L22.0387 42.9032C21.9741 42.6839 21.9354 42.4645 21.9354 42.2452C21.9354 41.0065 22.9419 40 24.1806 40H30.9677H31.9354C32.9032 40 33.7548 40.6194 34.0645 41.5355Z" fill="#E6E9ED"/>
<path d="M34.8387 55.4839V63.2258H32.258H30.9677C29.8967 63.2258 28.929 62.7871 28.2322 62.0903C27.5354 61.3935 27.0967 60.4258 27.0967 59.3548C27.0967 57.2129 28.8258 55.4839 30.9677 55.4839H34.8387Z" fill="#F0D0B4"/>
<path d="M68.3871 20.6452V29.6774C68.3871 38.2323 61.4581 45.1613 52.9032 45.1613C52.6323 45.1613 52.3742 45.1484 52.1032 45.1355C47.2129 44.4774 44.2323 42.9032 41.9484 40.6323C39.1484 37.8323 37.4194 33.9613 37.4194 29.6774V23.0323C37.4194 21.5742 38.2452 20.2323 39.5613 19.5742L44.3742 17.1742C46.142 18.671 48.4 19.5871 50.8129 19.7161L68.3871 20.6452Z" fill="#F0D0B4"/>
<path d="M58.0646 34.8387L57.7162 36.2452C57.1614 38.4516 55.1743 40 52.9033 40C50.6323 40 48.6452 38.4516 48.0904 36.2452L47.742 34.8387H58.0646Z" fill="#FF826E"/>
<path d="M46.8427 36.5574C47.5394 39.3445 50.031 41.2903 52.9033 41.2903C55.7756 41.2903 58.2672 39.3445 58.9639 36.5574L59.7175 33.5484H46.0891L46.8427 36.5574ZM56.4065 36.129C55.933 37.6594 54.5201 38.7097 52.9033 38.7097C51.2865 38.7097 49.8736 37.6594 49.4001 36.129H56.4065Z" fill="black"/>
<path d="M43.871 27.0968C43.871 26.3845 44.449 25.8065 45.1613 25.8065C45.8736 25.8065 46.4516 26.3845 46.4516 27.0968V28.3871H49.0323V27.0968C49.0323 24.9626 47.2955 23.2258 45.1613 23.2258C43.0271 23.2258 41.2903 24.9626 41.2903 27.0968V28.3871H43.871V27.0968Z" fill="black"/>
<path d="M59.3549 27.0968C59.3549 26.3845 59.933 25.8065 60.6453 25.8065C61.3575 25.8065 61.9356 26.3845 61.9356 27.0968V28.3871H64.5162V27.0968C64.5162 24.9626 62.7794 23.2258 60.6453 23.2258C58.5111 23.2258 56.7743 24.9626 56.7743 27.0968V28.3871H59.3549V27.0968Z" fill="black"/>
<path d="M27.0967 43.871H32.258V46.4516H27.0967V43.871Z" fill="black"/>
<path d="M28.387 49.0323H33.5483V51.6129H28.387V49.0323Z" fill="black"/>
<path d="M7.742 7.74193H10.3226V10.3226H7.742V7.74193Z" fill="black"/>
<path d="M12.9033 7.74193H15.484V10.3226H12.9033V7.74193Z" fill="black"/>
<path d="M18.0646 7.74193H20.6453V10.3226H18.0646V7.74193Z" fill="black"/>
<path d="M77.8929 29.9987L76.769 28.311C75.5071 26.4168 74.8387 24.2116 74.8387 21.9355C74.8387 9.84 64.9987 0 52.9032 0C40.8077 0 30.9677 9.84 30.9677 22.0594C30.9677 24.1987 30.2606 26.32 28.9781 28.0297C27.7652 29.6465 27.0968 31.649 27.0968 33.6723C27.0968 35.4658 27.6142 37.2 28.5742 38.7097H24.1781C22.231 38.7097 20.6452 40.2955 20.6452 42.2426C20.6452 42.5923 20.6981 42.9419 20.8013 43.2826L25.8361 59.6452C25.8839 60.4787 26.1264 61.2529 26.5239 61.9355H19.071L18.7587 60.6839C18.1845 58.3819 16.1239 56.7742 13.751 56.7742H6.0529L7.5871 45.52L8.68645 51.2348L8.68774 51.2361C9.01806 52.9497 10.5239 54.1935 12.2697 54.1935H14.4181C16.4284 54.1935 18.0645 52.5574 18.0645 50.5471C18.0645 50.3135 18.0413 50.08 17.9987 49.8594L11.9574 18.4413C11.6271 16.7277 10.1213 15.4839 8.37548 15.4839H6.2271C4.21677 15.4839 2.58065 17.12 2.58065 19.1303C2.58065 19.3639 2.60387 19.5974 2.64645 19.8181L6.06452 37.5923L2.74452 61.9355H2.58065C1.15742 61.9355 0 63.0929 0 64.5161V67.0968C0 68.52 1.15742 69.6774 2.58065 69.6774V80H59.3548C63.6245 80 67.0968 76.5277 67.0968 72.2581V56.5264C71.4271 55.3794 74.5394 51.609 74.8181 47.1123L74.9819 46.9884C78.1252 44.6323 80 40.8813 80 36.9548C80 34.4697 79.2723 32.0658 77.8929 29.9987ZM5.16129 19.1303C5.16129 18.5432 5.64 18.0645 6.2271 18.0645H8.37548C8.88645 18.0645 9.32645 18.4284 9.42323 18.929L15.4671 50.3535C15.48 50.4181 15.4852 50.4839 15.4852 50.5471C15.4839 51.1342 15.0052 51.6129 14.4181 51.6129H12.2697C11.7587 51.6129 11.3187 51.249 11.2206 50.7471L11.2219 50.7484L5.17935 19.3252C5.16645 19.2606 5.16129 19.1948 5.16129 19.1303ZM23.2258 42.2426C23.2258 41.7174 23.6529 41.2903 24.1781 41.2903H31.9316C32.3419 41.2903 32.7058 41.5523 32.8361 41.9419L36.92 54.1935H30.9677C29.5458 54.1935 28.2581 54.7716 27.3239 55.7032L23.2684 42.5252C23.2413 42.4323 23.2258 42.3381 23.2258 42.2426ZM43.3368 56.7742L45.5394 58.9768L47.3639 57.1523L45.3716 55.16L47.4671 49.5703C48.1664 47.7058 49.9742 46.4516 51.9664 46.4516C54.6181 46.4516 56.7742 48.6077 56.7742 51.2594C56.7742 57.1458 51.9845 61.9355 46.0981 61.9355H43.871H36.129V56.7742H43.3368ZM44.2297 18.6826C46.0994 20.0452 48.3497 20.8826 50.7419 21.009L67.0968 21.8697V29.6774C67.0968 37.5032 60.729 43.871 52.9032 43.871C45.0774 43.871 38.7097 37.5032 38.7097 29.6774V23.0374C38.7097 22.0529 39.2568 21.169 40.1355 20.729L44.2297 18.6826ZM43.871 69.6774C45.2942 69.6774 46.4516 68.52 46.4516 67.0968H56.7742V77.4193H36.129V69.6774H43.871ZM56.7742 64.5161H46.4516C46.4516 64.5097 46.4503 64.5045 46.4503 64.4981C50.6865 64.3858 54.4245 62.2813 56.7742 59.0839V64.5161ZM28.3871 59.3548C28.3871 57.9316 29.5445 56.7742 30.9677 56.7742H33.5484V61.9355H32.2581H30.9677C29.5445 61.9355 28.3871 60.7781 28.3871 59.3548ZM5.70194 59.3548H13.7523C14.9394 59.3548 15.969 60.1587 16.2568 61.3097L16.4129 61.9355H5.34968L5.70194 59.3548ZM2.58065 64.5161H30.9677H32.2581H43.871L43.8735 67.0968H2.58065V64.5161ZM5.16129 69.6774H33.5484V77.4193H5.16129V69.6774ZM64.5161 72.2581C64.5161 75.1045 62.2013 77.4193 59.3548 77.4193V51.2594C59.3548 49.4232 58.6774 47.7458 57.5652 46.4516H63.2258C63.9381 46.4516 64.5161 47.0297 64.5161 47.7419V72.2581ZM73.4348 44.9239L72.2581 45.8064V46.4516C72.2581 49.8129 70.1561 52.7187 67.0968 53.8258V47.7419C67.0968 45.6077 65.36 43.871 63.2258 43.871H61.8013C66.5226 40.8994 69.6774 35.6555 69.6774 29.6774V22.0052V20.6452C69.6774 17.0413 67.1135 13.9135 63.5793 13.2065L62.1884 12.9277L61.6813 15.4581L63.0723 15.7368C64.9406 16.111 66.3974 17.5097 66.9032 19.2748L50.8774 18.431C47.1626 18.2361 43.8684 15.8774 42.4877 12.4245L40.0916 13.3819C40.6026 14.6581 41.3381 15.7987 42.2129 16.8052L38.9819 18.4206C37.2232 19.3006 36.129 21.0697 36.129 23.0374V29.6774C36.129 36.991 40.8426 43.2103 47.3845 45.4994C46.3574 46.3161 45.529 47.3897 45.0503 48.6645L42.9768 54.1935H39.6387L35.2826 41.1239C34.8013 39.68 33.4542 38.7097 31.9316 38.7097H31.6581L30.8232 37.4568C30.0735 36.3329 29.6774 35.0245 29.6774 33.6723C29.6774 32.2052 30.1626 30.751 31.0426 29.5781C32.6594 27.4232 33.5484 24.7535 33.5484 21.9355C33.5484 11.2632 42.231 2.58065 52.9032 2.58065C63.5755 2.58065 72.2581 11.2632 72.2581 21.9355C72.2581 24.7226 73.0761 27.4232 74.6219 29.7432L75.7458 31.431C76.8413 33.071 77.4193 34.9806 77.4193 36.9548C77.4193 40.0735 75.9303 43.0516 73.4348 44.9239Z" fill="black"/>
</svg>
