<svg width="50" height="62" viewBox="0 0 50 62" fill="none" xmlns="http://www.w3.org/2000/svg">
<path d="M49.337 19.5296C48.5817 17.5136 47.2109 15.7646 45.2222 14.276C44.0691 13.4131 42.5611 12.6397 40.7693 11.9361L42.7528 4.31291L36.4835 2.68057L34.566 10.0459L30.5355 8.9978L32.4516 1.63247L26.1823 0L24.2649 7.36533L10.9554 3.90101L9.34237 10.0991L11.1057 10.559C12.2795 10.8635 13.0503 11.1795 13.4144 11.5022C13.7732 11.8234 13.9935 12.1901 14.0687 12.5983C14.1503 13.0077 14.0104 13.8731 13.6657 15.2011L7.16323 40.1812C6.82374 41.4859 6.51934 42.3059 6.25115 42.635C5.98295 42.9679 5.61631 43.1792 5.14477 43.2737C4.67187 43.3669 3.27139 43.113 2.09756 42.8086L0 47.2213C0.480714 47.9287 0.988583 48.6154 1.52361 49.2787L12.6061 52.1626L11.2508 57.3683C13.1566 58.3944 15.179 59.23 17.2947 59.8519L18.8714 53.7938L22.7659 54.8083C22.8113 54.8188 22.8579 54.8278 22.9033 54.8395L21.3628 60.7615C22.9615 61.0103 24.5991 61.1385 26.2678 61.1385C26.8392 61.1385 27.4067 61.123 27.9702 61.0931L29.2684 56.1064C31.3634 56.3708 33.1668 56.4109 34.6671 56.2191C37.5576 55.8512 39.9829 54.8536 41.9353 53.2225C43.8891 51.5952 45.1756 49.5923 45.7949 47.2136C46.308 45.2262 46.3041 43.301 45.7859 41.4379C45.2651 39.5814 44.3206 37.9865 42.9472 36.6728C42.0066 35.7438 40.5517 34.7333 38.5954 33.6579C40.7253 33.5012 42.5119 33.0697 43.9746 32.3649C45.4269 31.6562 46.6448 30.7234 47.6282 29.5574C48.6037 28.3966 49.2891 27.0751 49.6725 25.5981C50.2023 23.5666 50.0884 21.5429 49.337 19.5296ZM34.4727 43.0093C34.0697 44.5679 33.282 45.7896 32.1186 46.6771C30.9526 47.5594 29.6972 48.0181 28.3562 48.0466C27.0166 48.0751 25.3945 47.8445 23.4939 47.3495L20.2251 46.4983C19.133 46.2146 18.4851 45.9814 18.2688 45.8C18.0536 45.616 17.9332 45.3647 17.9021 45.0356C17.875 44.7752 18.0317 43.9654 18.3672 42.5844L20.891 32.8869L26.6862 34.3951C29.2307 35.0584 31.0587 35.7865 32.1769 36.5794C33.2924 37.3697 34.0412 38.3103 34.4209 39.3921C34.8005 40.4766 34.8186 41.6802 34.4727 43.0093ZM38.3801 24.4502C38.086 25.5839 37.5147 26.5037 36.6661 27.2085C35.8213 27.9159 34.7253 28.3227 33.3844 28.429C32.0422 28.5365 30.0871 28.258 27.5168 27.5894L22.6065 26.3107L25.449 15.3889L30.3593 16.6664C33.2303 17.4139 35.1736 18.1097 36.1945 18.7523C37.2141 19.395 37.9086 20.2137 38.2831 21.1984C38.6523 22.1867 38.6885 23.2699 38.3801 24.4502Z" fill="white"/>
</svg>
