<svg width="80" height="80" viewBox="0 0 80 80" fill="none" xmlns="http://www.w3.org/2000/svg">
<g clip-path="url(#clip0)">
<path d="M39.9341 35.9802C38.6243 35.9802 37.5629 37.0422 37.5629 38.3514V77.6288C37.5629 78.9386 38.6243 80 39.9341 80C41.2433 80 42.3047 78.9386 42.3047 77.6288V38.3514C42.3047 37.0422 41.2433 35.9802 39.9341 35.9802Z" fill="#45686E"/>
<path d="M39.9603 35.9814V79.9988C41.2573 79.9841 42.3047 78.9294 42.3047 77.6288V38.3514C42.3047 37.0508 41.2573 35.9961 39.9603 35.9814Z" fill="#2A3B3B"/>
<path d="M49.9323 80H29.9353C28.6261 80 27.5641 78.9386 27.5641 77.6288C27.5641 76.3196 28.6261 75.2582 29.9353 75.2582H49.9323C51.2421 75.2582 52.3035 76.3196 52.3035 77.6288C52.3035 78.9386 51.2421 80 49.9323 80Z" fill="#45686E"/>
<path d="M49.9323 75.2582H39.9603V80H49.9323C51.2421 80 52.3035 78.9386 52.3035 77.6288C52.3035 76.3196 51.2421 75.2582 49.9323 75.2582Z" fill="#2A3B3B"/>
<path d="M39.9341 0C28.7067 0 19.5728 9.13391 19.5728 20.3613C19.5728 31.5881 28.7067 40.722 39.9341 40.722C51.1609 40.722 60.2954 31.5881 60.2954 20.3613C60.2954 9.13391 51.1609 0 39.9341 0V0Z" fill="#FFE795"/>
<path d="M39.9603 0.000610352V40.722C51.1755 40.7074 60.2954 31.5796 60.2954 20.3613C60.2954 9.14307 51.1755 0.0146484 39.9603 0.000610352Z" fill="#FFD330"/>
<path d="M39.9341 17.9901C39.491 17.9901 39.1022 17.4609 39.1022 16.8573C39.1022 16.2543 39.491 15.7251 39.9341 15.7251H43.1366C44.4458 15.7251 45.5078 14.6631 45.5078 13.3539C45.5078 12.0447 44.4458 10.9827 43.1366 10.9827H42.3047V10.3394C42.3047 9.02954 41.2433 7.96814 39.9341 7.96814C38.6243 7.96814 37.5629 9.02954 37.5629 10.3394V11.5424C35.672 12.4835 34.3604 14.5111 34.3604 16.8573C34.3604 20.0964 36.8604 22.7319 39.9341 22.7319C40.3772 22.7319 40.7654 23.2611 40.7654 23.8647C40.7654 24.4684 40.3772 24.9976 39.9341 24.9976H36.731C35.4218 24.9976 34.3604 26.059 34.3604 27.3682C34.3604 28.678 35.4218 29.7394 36.731 29.7394H37.5629V30.3833C37.5629 31.6925 38.6243 32.7539 39.9341 32.7539C41.2433 32.7539 42.3047 31.6925 42.3047 30.3833V29.1797C44.1956 28.2391 45.5078 26.2109 45.5078 23.8647C45.5072 20.6256 43.0072 17.9901 39.9341 17.9901Z" fill="#FC5356"/>
<path d="M42.3047 30.3833V29.1803C44.1956 28.2391 45.5078 26.2109 45.5078 23.8647C45.5078 20.6354 43.0219 18.006 39.9603 17.9907V22.7344C40.3925 22.7551 40.7654 23.2739 40.7654 23.8654C40.7654 24.4562 40.3925 24.975 39.9603 24.9957V32.7533C41.2573 32.7386 42.3047 31.684 42.3047 30.3833Z" fill="#F70B57"/>
<path d="M43.1366 10.9827H42.3047V10.3394C42.3047 9.0387 41.2573 7.98401 39.9603 7.96936V15.7251H43.1366C44.4458 15.7251 45.5072 14.6637 45.5072 13.3539C45.5072 12.0447 44.4458 10.9827 43.1366 10.9827Z" fill="#F70B57"/>
<path d="M59.5184 49.5874H49.4293C45.6085 49.5874 42.1948 51.3586 39.9622 54.1211C38.1152 51.2677 35.1202 49.5874 31.4093 49.5874H19.7394C18.4302 49.5874 17.3688 50.6488 17.3688 51.958C17.3688 58.6694 22.8284 64.129 29.5398 64.129H51.2994C57.6337 64.129 61.8896 59.2383 61.8896 51.958C61.8896 50.6488 60.8282 49.5874 59.5184 49.5874Z" fill="#85EEF2"/>
<path d="M59.5184 49.5874H49.4293C45.6085 49.5874 42.1948 51.3586 39.9622 54.1211C39.9615 54.1205 39.9609 54.1199 39.9603 54.1187V64.129H51.2994C57.6337 64.129 61.8896 59.2383 61.8896 51.958C61.8896 50.6488 60.8282 49.5874 59.5184 49.5874Z" fill="#00C8C8"/>
<path d="M70.5987 33.8007C70.3296 33.8007 70.0555 33.7549 69.7876 33.6572L64.8865 31.8732C63.656 31.4258 63.0212 30.0653 63.4692 28.8342C63.9166 27.6038 65.2777 26.9696 66.5082 27.417L71.4093 29.2011C72.6398 29.6491 73.2745 31.0095 72.8265 32.24C72.4762 33.2031 71.5668 33.8007 70.5987 33.8007Z" fill="#F70B57"/>
<path d="M72.55 22.7319H67.334C66.0248 22.7319 64.9634 21.6705 64.9634 20.3613C64.9634 19.0515 66.0248 17.9901 67.334 17.9901H72.55C73.8593 17.9901 74.9213 19.0515 74.9213 20.3613C74.9213 21.6705 73.8593 22.7319 72.55 22.7319Z" fill="#F70B57"/>
<path d="M65.6976 13.4485C64.729 13.4485 63.8196 12.8509 63.4692 11.8878C63.0212 10.6573 63.656 9.29686 64.8865 8.84886L69.7876 7.06481C71.018 6.61681 72.3785 7.25158 72.8265 8.48204C73.2745 9.71251 72.6398 11.073 71.4093 11.521L66.5082 13.305C66.2402 13.4027 65.9668 13.4485 65.6976 13.4485Z" fill="#F70B57"/>
<path d="M14.2236 13.4485C13.9545 13.4485 13.6804 13.4027 13.4131 13.3051L8.51195 11.521C7.28148 11.073 6.64672 9.71254 7.09472 8.48208C7.54271 7.25161 8.90319 6.61745 10.1337 7.06484L15.0348 8.8489C16.2652 9.29689 16.9 10.6574 16.452 11.8878C16.1017 12.851 15.1922 13.4485 14.2236 13.4485Z" fill="#FC5356"/>
<path d="M12.5867 22.7319H7.37122C6.0614 22.7319 5 21.6705 5 20.3613C5 19.0515 6.0614 17.9901 7.37122 17.9901H12.5867C13.8965 17.9901 14.9579 19.0515 14.9579 20.3613C14.9579 21.6705 13.8965 22.7319 12.5867 22.7319Z" fill="#FC5356"/>
<path d="M9.3225 33.8007C8.35448 33.8007 7.44506 33.2031 7.09472 32.24C6.64672 31.0095 7.28148 29.6491 8.51195 29.2011L13.4131 27.417C14.6435 26.9696 16.004 27.6038 16.452 28.8342C16.9 30.0647 16.2652 31.4258 15.0348 31.8732L10.1337 33.6572C9.86571 33.7549 9.59227 33.8007 9.3225 33.8007Z" fill="#FC5356"/>
</g>
<defs>
<clipPath id="clip0">
<rect width="80" height="80" fill="white"/>
</clipPath>
</defs>
</svg>
