<svg width="52" height="37" viewBox="0 0 52 37" fill="none" xmlns="http://www.w3.org/2000/svg">
<path fill-rule="evenodd" clip-rule="evenodd" d="M12.1456 33.091L0.333374 22.25L3.66671 19.25L12.5556 24.25L38.1111 0.25L41.4445 2.25L15.5 32.903C15.1091 33.3649 14.5144 33.651 13.8706 33.687C13.2267 33.7231 12.5972 33.5056 12.1456 33.091Z" fill="white"/>
<path opacity="0.497489" fill-rule="evenodd" clip-rule="evenodd" d="M50.3333 9.25H44.7777C44.1641 9.25 43.6666 8.80228 43.6666 8.25C43.6666 7.69772 44.1641 7.25 44.7777 7.25H50.3333C50.947 7.25 51.4445 7.69772 51.4445 8.25C51.4445 8.80228 50.947 9.25 50.3333 9.25Z" fill="white"/>
<path opacity="0.497489" fill-rule="evenodd" clip-rule="evenodd" d="M50.3333 18.25H37C36.3864 18.25 35.8889 17.8023 35.8889 17.25C35.8889 16.6977 36.3864 16.25 37 16.25H50.3333C50.947 16.25 51.4445 16.6977 51.4445 17.25C51.4445 17.8023 50.947 18.25 50.3333 18.25Z" fill="white"/>
<path opacity="0.497489" fill-rule="evenodd" clip-rule="evenodd" d="M50.3332 27.25H29.2222C28.6085 27.25 28.1111 26.8023 28.1111 26.25C28.1111 25.6977 28.6085 25.25 29.2222 25.25H50.3332C50.9469 25.25 51.4443 25.6977 51.4443 26.25C51.4443 26.8023 50.9469 27.25 50.3332 27.25Z" fill="white"/>
<path opacity="0.497489" fill-rule="evenodd" clip-rule="evenodd" d="M50.3333 36.25H21.4444C20.8307 36.25 20.3333 35.8023 20.3333 35.25C20.3333 34.6977 20.8307 34.25 21.4444 34.25H50.3333C50.947 34.25 51.4445 34.6977 51.4445 35.25C51.4445 35.8023 50.947 36.25 50.3333 36.25Z" fill="white"/>
</svg>
