<svg width="80" height="80" viewBox="0 0 80 80" fill="none" xmlns="http://www.w3.org/2000/svg">
<path d="M45 41.25V16.25H51.25L40 3.75L28.75 16.25H35V41.25H45Z" fill="#FFC431"/>
<path d="M52.5 45C53.4946 45 54.4484 44.6049 55.1516 43.9017C55.8549 43.1984 56.25 42.2446 56.25 41.25V37.5C56.25 36.837 56.5134 36.2011 56.9822 35.7322C57.4511 35.2634 58.087 35 58.75 35H63.75V41.25L76.25 30L63.75 18.75V25H57.5C55.1793 25 52.9538 25.9219 51.3128 27.5628C49.6719 29.2038 48.75 31.4294 48.75 33.75V37.5L31.25 37.4996V33.7496C31.25 32.6005 31.0237 31.4627 30.5839 30.4011C30.1442 29.3395 29.4997 28.3749 28.6872 27.5624C27.8747 26.7499 26.9101 26.1054 25.8485 25.6657C24.7869 25.2259 23.6491 24.9996 22.5 24.9996H16.25V18.7496L3.75 29.9996L16.25 41.2496V34.9996H21.25C21.913 34.9996 22.5489 35.263 23.0178 35.7318C23.4866 36.2007 23.75 36.8366 23.75 37.4996V41.2496C23.75 42.2442 24.1451 43.198 24.8483 43.9013C25.5516 44.6045 26.5054 44.9996 27.5 44.9996L52.5 45Z" fill="#EF5E3B"/>
<path d="M30 55H28.75L26.25 51.25L28.75 41.25L37.5 37.5H42.5L51.25 41.25L53.75 50L51.25 55H50L48.75 61.25H31.25L30 55Z" fill="#548AFF"/>
<path d="M43.75 31.25V35C43.75 35.9946 43.3549 36.9484 42.6516 37.6517C41.9484 38.3549 40.9946 38.75 40 38.75C39.0054 38.75 38.0516 38.3549 37.3483 37.6517C36.6451 36.9484 36.25 35.9946 36.25 35V31.25H43.75Z" fill="#FFCEB6"/>
<path d="M36.25 31.25V29.1285C36.25 28.7505 36.3245 28.3762 36.4691 28.0269C36.6138 27.6777 36.8258 27.3604 37.0931 27.0931C37.3604 26.8258 37.6777 26.6138 38.0269 26.4691C38.3762 26.3245 38.7505 26.25 39.1285 26.25C39.6967 26.25 40.2523 26.4182 40.7252 26.7334L43.75 28.75V31.25H36.25Z" fill="#B1712C"/>
<path d="M48.7501 61.25L49.4168 76.25H43.7501L40.0001 68.75L36.2501 76.25H30.5834L31.2501 61.25H48.7501Z" fill="#62798C"/>
<path d="M50 55H45L40 52.5L36.25 55H30L31.25 61.25H48.75L50 55Z" fill="#4976F2"/>
<path d="M44.8218 48.3152L45.6118 45.9425L50.4003 47.537L49.6102 49.9096L44.8218 48.3152Z" fill="#4976F2"/>
<path d="M40.4545 45.5681L32.5 48.75V43.75H35L40.4545 45.5681Z" fill="#FFCEB6"/>
<path d="M41.3542 45.2083L43.75 50L47.5 47.5V43.75H45L41.3542 45.2083Z" fill="#FFCEB6"/>
</svg>
