<svg width="80" height="80" viewBox="0 0 80 80" fill="none" xmlns="http://www.w3.org/2000/svg">
<path d="M20 73.5714H0L2.85714 65L5.71429 63.5714H14.2857L15.7143 65L20 66.4286V73.5714Z" fill="#FFCB74"/>
<path d="M60.0001 59.2857L40.0001 73.5714L34.2858 66.4286L35.7143 65L55.7143 50.7143L60.0001 59.2857Z" fill="#DA922A"/>
<path d="M22.8572 50.7143L2.85718 65H15.7143L35.7143 50.7143H22.8572Z" fill="#FBB540"/>
<path d="M62.8572 50.7143L42.8572 65L44.2857 66.4286H54.2858L55.7143 65L75.7143 50.7143H62.8572Z" fill="#FBB540"/>
<path d="M39.9999 59.2857L19.9999 73.5714L15.7142 65L35.7142 50.7143L39.9999 59.2857Z" fill="#DA922A"/>
<path d="M40 73.5714H20L22.8571 65L25.7143 63.5714H34.2857L35.7143 65L40 73.5714Z" fill="#FFCB74"/>
<path d="M80.0001 59.2857L60.0001 73.5714L54.2858 66.4286L55.7143 65L75.7143 50.7143L80.0001 59.2857Z" fill="#EA9D2D"/>
<path d="M42.8572 50.7143L22.8572 65H35.7143L55.7143 50.7143H42.8572Z" fill="#FBB540"/>
<path d="M60 73.5714H40L42.8571 65H55.7143L60 73.5714Z" fill="#FFCB74"/>
<path d="M71.4285 46.4286L51.4285 60.7143L45.7142 53.5714L47.1428 52.1429L67.1428 37.8571L71.4285 46.4286Z" fill="#EA9D2D"/>
<path d="M34.2858 37.8571L14.2858 52.1429L17.1429 53.5714H25.7143L27.1429 52.1429L47.1429 37.8571H34.2858Z" fill="#FBB540"/>
<path d="M51.4285 46.4286L31.4285 60.7143L25.7142 53.5714L27.1428 52.1429L47.1428 37.8571L51.4285 46.4286Z" fill="#DA922A"/>
<path d="M34.8571 10.4388L32.8572 6.42857L30.8573 10.4388C30.3049 11.5479 29.405 12.4477 28.296 13.0001L24.2858 15L28.296 16.9999C29.405 17.5523 30.3049 18.4521 30.8573 19.5612L32.8572 23.5714L34.8571 19.5612C35.4095 18.4521 36.3093 17.5523 37.4184 16.9999L41.4286 15L37.4184 13.0001C36.3093 12.4477 35.4095 11.5479 34.8571 10.4388Z" fill="#FBB540"/>
<path d="M74.5285 21.1998L72.8572 17.8571L71.1859 21.1998C70.7255 22.1212 69.9784 22.8683 69.057 23.3287L65.7144 25L69.057 26.6713C69.9784 27.1317 70.7255 27.8788 71.1859 28.8002L72.8572 32.1429L74.5285 28.8002C74.9889 27.8788 75.736 27.1317 76.6574 26.6713L80.0001 25L76.6574 23.3287C75.736 22.8683 74.9889 22.1212 74.5285 21.1998Z" fill="#FBB540"/>
<path d="M10.2428 35.4855L8.57145 32.1429L6.90013 35.4855C6.43975 36.4069 5.69268 37.154 4.77122 37.6144L1.42859 39.2857L4.77122 40.957C5.69268 41.4174 6.43975 42.1645 6.90013 43.0859L8.57145 46.4286L10.2428 43.0859C10.7031 42.1645 11.4502 41.4174 12.3717 40.957L15.7143 39.2857L12.3717 37.6144C11.4502 37.154 10.7031 36.4069 10.2428 35.4855Z" fill="#FBB540"/>
<path d="M54.2858 37.8571L34.2858 52.1429L35.7143 53.5714H45.7143L47.1429 52.1429L67.1429 37.8571H54.2858Z" fill="#FBB540"/>
<path d="M42.8572 26.4286L22.8572 40.7143L25.7143 42.1429H32.8572L35.7143 40.7143L55.7143 26.4286H42.8572Z" fill="#FBB540"/>
<path d="M60.0001 35L40.0001 49.2857L34.2858 42.1429L35.7143 40.7143L55.7143 26.4286L60.0001 35Z" fill="#EA9D2D"/>
<path d="M51.4286 60.7143H31.4286L34.2857 52.1429H47.1429L51.4286 60.7143Z" fill="#FFCB74"/>
<path d="M31.4286 60.7143H11.4286L14.2857 52.1429H27.1429L31.4286 60.7143Z" fill="#FFCB74"/>
<path d="M40 49.2857H20L22.8571 40.7143H35.7143L40 49.2857Z" fill="#FFCB74"/>
</svg>
