<svg width="80" height="80" viewBox="0 0 80 80" fill="none" xmlns="http://www.w3.org/2000/svg">
<path d="M23.6598 34.5862L6.18912 67.5017L22.0541 66.036L29.7327 79.9975L47.2033 47.0821L23.6598 34.5862Z" fill="#E95454"/>
<path d="M25.6608 70.413C26.151 69.36 25.6383 68.1019 24.6128 67.5567L23.6073 67.0214C22.6018 66.4486 22.2191 65.1755 22.7669 64.1451C23.3222 63.0971 24.6278 62.6969 25.6758 63.2521L28.5171 64.7604C29.395 65.2256 30.4955 64.8879 30.9482 64.005L31.0183 63.8699C31.5385 63.037 31.2309 61.9365 30.3655 61.4788L21.8665 56.9692C20.831 56.4189 20.3233 55.1659 20.806 54.1104C21.3387 52.9873 22.6844 52.5446 23.7674 53.1199L31.6511 57.3044C32.529 57.7696 33.6295 57.4319 34.0947 56.554L34.1397 56.439L34.1522 56.4139C34.655 55.4935 34.3023 54.338 33.3744 53.8452L28.9523 51.4991C27.9168 50.9489 27.4091 49.6958 27.8993 48.6278C28.4271 47.5173 29.7777 47.0621 30.8607 47.6373L35.7455 50.231C36.6584 50.7163 37.7489 50.3111 38.2216 49.3906C38.2292 49.3781 38.2292 49.3781 38.2342 49.3656C38.2417 49.3531 38.2417 49.3531 38.2467 49.3406C38.7444 48.4327 38.4693 47.3022 37.5538 46.8194L32.2839 44.0231C31.2609 43.4804 30.7531 42.2273 31.2359 41.1718C31.7686 40.0488 33.1143 39.6061 34.1973 40.1813L47.1984 47.0821L29.7277 79.9975L24.9129 71.2459C25.2231 71.0358 25.4932 70.7757 25.6608 70.413Z" fill="#ED6362"/>
<path d="M56.3401 34.5862L73.8108 67.5017L57.9459 66.036L50.2673 79.9975L32.7966 47.0821L56.3401 34.5862Z" fill="#ED6362"/>
<path d="M54.3393 70.413C53.8491 69.36 54.3618 68.1019 55.3873 67.5567L56.3928 67.0214C57.3982 66.4486 57.7809 65.1755 57.2331 64.1451C56.6779 63.0971 55.3723 62.6969 54.3243 63.2521L51.483 64.7604C50.605 65.2256 49.5045 64.8879 49.0518 64.005L48.9818 63.8699C48.4615 63.037 48.7692 61.9365 49.6346 61.4788L58.1361 56.9667C59.1716 56.4164 59.6793 55.1634 59.1966 54.1079C58.6638 52.9848 57.3182 52.5421 56.2352 53.1174L48.3515 57.3019C47.4736 57.7671 46.3731 57.4294 45.9078 56.5515L45.8628 56.4365L45.8503 56.4114C45.3476 55.491 45.7002 54.3355 46.6282 53.8427L51.0503 51.4966C52.0857 50.9464 52.5935 49.6933 52.1032 48.6253C51.5755 47.5148 50.2249 47.0596 49.1419 47.6348L44.2521 50.2335C43.3391 50.7188 42.2486 50.3136 41.7759 49.3932C41.7684 49.3806 41.7684 49.3806 41.7634 49.3681C41.7559 49.3556 41.7559 49.3556 41.7509 49.3431C41.2532 48.4352 41.5283 47.3047 42.4437 46.8219L47.7137 44.0256C48.7367 43.4829 49.2444 42.2298 48.7617 41.1743C48.2289 40.0513 46.8833 39.6086 45.8003 40.1838L32.7992 47.0846L50.2699 80L55.0846 71.2484C54.777 71.0358 54.5069 70.7757 54.3393 70.413Z" fill="#E95454"/>
<path d="M40 58.3824C56.1218 58.3824 69.1911 45.313 69.1911 29.1912C69.1911 13.0693 56.1218 0 40 0C23.8781 0 10.8088 13.0693 10.8088 29.1912C10.8088 45.313 23.8781 58.3824 40 58.3824Z" fill="#FFCC5B"/>
<path d="M43.9594 25.8421H25.4607C24.0225 25.8421 22.842 24.6616 22.842 23.2234L22.862 23.0433V23.0033C22.842 21.4851 24.08 20.2445 25.6008 20.2445H38.4218C40.1201 20.2445 41.6208 18.9864 41.7208 17.2856C41.8008 15.5073 40.3827 14.0066 38.6018 14.0066H25.0205C23.5223 14.0066 22.4018 12.7485 22.4218 11.2478C22.4218 11.2278 22.4218 11.2278 22.4218 11.2077C22.4218 11.1877 22.4218 11.1877 22.4218 11.1677C22.4018 9.66953 23.5198 8.40894 25.0205 8.40894H39.2321C40.9104 8.40894 42.4111 7.15085 42.5112 5.47006C42.5912 3.67172 41.1731 2.19102 39.3922 2.19102H28.9848C18.3724 6.56557 10.8939 17.0005 10.8939 29.1912C10.8939 41.3819 18.3724 51.8143 28.9873 56.1838H42.201C43.8793 56.1838 45.38 54.9258 45.4801 53.245C45.5601 51.4466 44.1419 49.9684 42.3611 49.9684L27.3291 49.9659C25.5557 49.9659 24.1276 48.4827 24.2226 46.6869C24.3101 45.0061 25.8209 43.743 27.5041 43.743H33.3319C35.0077 43.6955 36.3608 42.3223 36.3608 40.634C36.3608 38.9157 34.9626 37.5151 33.2418 37.5151H24.4077C22.9695 37.5151 21.789 36.337 21.809 34.8964V34.6763C21.7089 33.2581 22.8495 32.0575 24.2676 32.0575H43.7793C45.4776 32.0575 46.9783 30.7994 47.0783 29.1186C47.1584 27.3228 45.7377 25.8421 43.9594 25.8421Z" fill="#FDBC4B"/>
<path d="M40 50.0259C28.5096 50.0259 19.1628 40.6766 19.1628 29.1887C19.1628 17.7008 28.5096 8.35391 40 8.35391C51.4904 8.35391 60.8373 17.7033 60.8373 29.1912C60.8373 40.6791 51.4904 50.0259 40 50.0259Z" fill="#FFDB70"/>
<path opacity="0.2" d="M60.8372 29.1912C60.8372 18.106 52.1281 9.03923 41.1955 8.41394H39.2546C37.974 8.41394 36.8309 9.37439 36.7534 10.655C36.6934 12.0256 37.7739 13.1562 39.132 13.1562L50.5974 13.1587C51.9505 13.1587 53.0385 14.2892 52.966 15.6598C52.8985 16.9429 51.7479 17.9059 50.4623 17.9059H46.0178C44.7397 17.9434 43.7067 18.9889 43.7067 20.277C43.7067 21.5876 44.7747 22.6556 46.0853 22.6556H52.8234C53.9214 22.6556 54.8194 23.556 54.8044 24.6516V24.8166C54.8794 25.8996 54.0115 26.8126 52.9285 26.8126H38.049C36.7534 26.8126 35.6104 27.773 35.5328 29.0536C35.4728 30.4243 36.5533 31.5548 37.9115 31.5548H52.0181C53.1161 31.5548 54.014 32.4552 54.014 33.5507L53.999 33.6883V33.7183C54.014 34.8763 53.0686 35.8218 51.9105 35.8218H42.1309C40.8353 35.8218 39.6923 36.7822 39.6148 38.0778C39.5547 39.4335 40.6352 40.579 41.9934 40.579H52.3507C53.4938 40.579 54.3467 41.5395 54.3316 42.6825C54.3316 42.6975 54.3316 42.6975 54.3316 42.7125C54.3316 42.7275 54.3316 42.7275 54.3316 42.7425C54.3467 43.8856 53.4938 44.846 52.3507 44.846H41.5131C40.2325 44.846 39.0895 45.8065 39.012 47.0871C38.9519 48.4602 40.0324 49.5882 41.3906 49.5882H44.2494C53.7114 47.6173 60.8372 39.2209 60.8372 29.1912Z" fill="white"/>
<path d="M54.5468 24.5765H44.4121L41.2781 14.937C40.8754 13.6989 39.1221 13.6989 38.7194 14.937L35.5879 24.5765H25.4532C24.1501 24.5765 23.6073 26.2448 24.6628 27.0102L32.8616 32.968L29.7302 42.6075C29.3275 43.8456 30.7457 44.876 31.8011 44.1107L40 38.1529L48.1988 44.1107C49.2543 44.876 50.6725 43.8456 50.2698 42.6075L47.1383 32.968L55.3372 27.0102C56.3902 26.2448 55.8499 24.5765 54.5468 24.5765Z" fill="#EC9922"/>
</svg>
