<svg width="50" height="50" viewBox="0 0 50 50" fill="none" xmlns="http://www.w3.org/2000/svg">
<path d="M13.5729 8.88672H24.5127C26.0793 5.37559 28.8342 2.53643 28.8572 2.49023C29.2967 2.08008 29.4138 1.46484 29.1795 0.908203C28.9452 0.351563 28.4178 0 27.8319 0C25.1952 0 23.7596 0.9375 22.6171 1.69922C21.5917 2.40234 20.8007 2.92969 19.0429 2.92969C17.285 2.92969 16.494 2.40234 15.4686 1.69922C14.3261 0.9375 12.8905 0 10.2538 0C9.66786 0 9.14051 0.351563 8.90614 0.908203C8.67176 1.46484 8.78895 2.08008 9.2284 2.49023C9.25155 2.53643 12.0063 5.37559 13.5729 8.88672Z" fill="white"/>
<path d="M29.3945 45.6055V48.5352C29.3945 49.3441 30.0504 50 30.8594 50H48.5352C49.3441 50 50 49.3441 50 48.5352V45.6055C50 44.7965 49.3441 44.1406 48.5352 44.1406H30.8594C30.0504 44.1406 29.3945 44.7965 29.3945 45.6055Z" fill="white"/>
<path d="M50 39.7461V36.8164C50 36.0074 49.3441 35.3516 48.5352 35.3516H30.8594C30.0504 35.3516 29.3945 36.0074 29.3945 36.8164V39.7461C29.3945 40.5551 30.0504 41.2109 30.8594 41.2109H48.5352C49.3441 41.2109 50 40.5551 50 39.7461Z" fill="white"/>
<path d="M29.209 23.6914C26.3379 20.8789 23.9941 18.4961 23.5254 14.7461H24.9023C25.7227 14.7461 26.3672 14.1016 26.3672 13.2812C26.3672 12.4609 25.7227 11.8164 24.9023 11.8164H13.1836C12.3633 11.8164 11.7188 12.4609 11.7188 13.2812C11.7188 14.1016 12.3633 14.7461 13.1836 14.7461H14.5605C14.0918 18.4961 11.748 20.8789 8.87695 23.6914C4.7168 27.7637 0 32.3926 0 42.9688C0.0585938 46.8359 3.36914 50 7.32422 50H26.6367C26.4727 49.54 26.3672 49.0508 26.3672 48.5352V36.8164C26.3672 34.3936 28.3389 32.4219 30.7617 32.4219H36.0088C34.2363 28.623 31.6074 26.0449 29.209 23.6914ZM19.043 32.4219C21.4662 32.4219 23.4375 34.3932 23.4375 36.8164C23.4375 38.7236 22.2092 40.3344 20.5078 40.9411V42.6758C20.5078 43.4854 19.8526 44.1406 19.043 44.1406C18.2333 44.1406 17.5781 43.4854 17.5781 42.6758V40.9411C15.8768 40.3345 14.6484 38.7236 14.6484 36.8164C14.6484 36.0067 15.3036 35.3516 16.1133 35.3516C16.9229 35.3516 17.5781 36.0067 17.5781 36.8164C17.5781 37.6246 18.2348 38.2812 19.043 38.2812C19.8512 38.2812 20.5078 37.6246 20.5078 36.8164C20.5078 36.0082 19.8512 35.3516 19.043 35.3516C16.6197 35.3516 14.6484 33.3803 14.6484 30.957C14.6484 29.0498 15.8768 27.4391 17.5781 26.8323V25.0977C17.5781 24.288 18.2333 23.6328 19.043 23.6328C19.8526 23.6328 20.5078 24.288 20.5078 25.0977V26.8323C22.2092 27.439 23.4375 29.0498 23.4375 30.957C23.4375 31.7667 22.7823 32.4219 21.9727 32.4219C21.163 32.4219 20.5078 31.7667 20.5078 30.957C20.5078 30.1488 19.8512 29.4922 19.043 29.4922C18.2348 29.4922 17.5781 30.1488 17.5781 30.957C17.5781 31.7652 18.2348 32.4219 19.043 32.4219Z" fill="white"/>
</svg>
