<svg width="80" height="80" viewBox="0 0 80 80" fill="none" xmlns="http://www.w3.org/2000/svg">
<path d="M43.75 77.5H3.75C3.75027 75.0495 4.43893 72.6484 5.7375 70.5703L6.10157 69.9875C8.13484 66.7347 11.3047 64.3539 14.9953 63.3078C15.0781 63.2844 15.1625 63.261 15.2469 63.2391C15.9213 63.0585 16.6073 62.9243 17.3 62.8375C18.0453 62.7436 18.7308 62.3811 19.2279 61.8178C19.725 61.2546 19.9995 60.5294 20 59.7781V57.5H27.5V59.7781C27.4991 60.5298 27.7737 61.2558 28.2719 61.8188C28.3441 61.9006 28.4207 61.9783 28.5016 62.0515C28.9719 62.4843 29.5657 62.7591 30.2 62.8375C30.8933 62.9241 31.5798 63.0583 32.2547 63.2391C32.3375 63.261 32.4203 63.2844 32.5031 63.3094C36.1947 64.3534 39.3656 66.734 41.3984 69.9875L41.7625 70.5703C43.0611 72.6484 43.7497 75.0495 43.75 77.5Z" fill="#F4CEAF"/>
<path d="M13.75 45H15V50H13.75C13.087 50 12.4511 49.7366 11.9822 49.2678C11.5134 48.7989 11.25 48.163 11.25 47.5C11.25 46.837 11.5134 46.2011 11.9822 45.7322C12.4511 45.2634 13.087 45 13.75 45Z" fill="#F2C194"/>
<path d="M33.75 50H32.5V45H33.75C34.413 45 35.0489 45.2634 35.5178 45.7322C35.9866 46.2011 36.25 46.837 36.25 47.5C36.25 48.163 35.9866 48.7989 35.5178 49.2678C35.0489 49.7366 34.413 50 33.75 50Z" fill="#F2C194"/>
<path d="M27.5 57.5V59.2688C25.0951 60.2416 22.4066 60.2438 20 59.275V57.5H27.5Z" fill="#F2C194"/>
<path d="M32.5 41.25V50C32.5 51.1491 32.2737 52.2869 31.8339 53.3485C31.3942 54.4101 30.7497 55.3747 29.9372 56.1872C29.1247 56.9997 28.1601 57.6442 27.0985 58.0839C26.0369 58.5237 24.8991 58.75 23.75 58.75C22.6009 58.75 21.4631 58.5237 20.4015 58.0839C19.3399 57.6442 18.3753 56.9997 17.5628 56.1872C16.7503 55.3747 16.1058 54.4101 15.6661 53.3485C15.2263 52.2869 15 51.1491 15 50V41.25H32.5Z" fill="#F4CEAF"/>
<path d="M23.75 56.0333C23.1216 56.0344 22.4992 55.9113 21.9185 55.6712C21.3378 55.431 20.8102 55.0785 20.3662 54.6339C20.132 54.3994 20.0005 54.0815 20.0006 53.7502C20.0007 53.4188 20.1324 53.101 20.3667 52.8667C20.601 52.6324 20.9188 52.5007 21.2502 52.5006C21.5816 52.5005 21.8994 52.632 22.1339 52.8661C22.5625 53.2947 23.1439 53.5355 23.75 53.5355C24.3562 53.5355 24.9375 53.2947 25.3662 52.8661C25.6006 52.632 25.9185 52.5005 26.2499 52.5006C26.5812 52.5007 26.899 52.6324 27.1333 52.8667C27.3677 53.101 27.4993 53.4188 27.4995 53.7502C27.4996 54.0815 27.3681 54.3994 27.1339 54.6339C26.6898 55.0785 26.1623 55.431 25.5816 55.6712C25.0009 55.9113 24.3784 56.0344 23.75 56.0333Z" fill="#F2C194"/>
<path d="M34.9999 41.0359C35.0003 41.5003 34.9089 41.9602 34.7312 42.3892C34.5534 42.8182 34.2927 43.2079 33.964 43.5359L32.4999 45L26.2499 42.5L20.9484 44.2672L20.9187 44.2766C19.4824 44.756 17.9782 45.0003 16.464 45C15.9997 45.0003 15.5398 44.909 15.1108 44.7312C14.6818 44.5535 14.2921 44.2928 13.964 43.9641L12.4999 42.5C11.8375 41.8368 11.4655 40.9378 11.4657 40.0004C11.4659 39.063 11.8384 38.1641 12.5012 37.5013C13.1641 36.8385 14.063 36.466 15.0003 36.4658C15.9377 36.4655 16.8368 36.8375 17.4999 37.5C17.6639 37.6644 17.8588 37.7949 18.0733 37.8839C18.2878 37.9729 18.5177 38.0188 18.7499 38.0188C18.9822 38.0188 19.2121 37.9729 19.4266 37.8839C19.6411 37.7949 19.836 37.6644 19.9999 37.5L22.1343 35.3656C22.7563 34.7421 23.4952 34.2473 24.3087 33.9098C25.1221 33.5722 25.9942 33.3985 26.8749 33.3985C27.7557 33.3985 28.6277 33.5722 29.4412 33.9098C30.2547 34.2473 30.9936 34.7421 31.6156 35.3656C31.732 35.4816 31.8243 35.6194 31.8873 35.7712C31.9503 35.923 31.9827 36.0857 31.9827 36.25C31.9827 36.4143 31.9503 36.577 31.8873 36.7288C31.8243 36.8805 31.732 37.0184 31.6156 37.1344L31.2499 37.5H31.464C31.9284 37.5 32.3882 37.5914 32.8172 37.7691C33.2462 37.9467 33.6361 38.2072 33.9644 38.5355C34.2928 38.8639 34.5532 39.2537 34.7309 39.6827C34.9086 40.1118 35 40.5716 34.9999 41.0359Z" fill="#AD7D4D"/>
<path d="M20 48.75C20.6904 48.75 21.25 48.1904 21.25 47.5C21.25 46.8096 20.6904 46.25 20 46.25C19.3096 46.25 18.75 46.8096 18.75 47.5C18.75 48.1904 19.3096 48.75 20 48.75Z" fill="#966342"/>
<path d="M27.5 48.75C28.1904 48.75 28.75 48.1904 28.75 47.5C28.75 46.8096 28.1904 46.25 27.5 46.25C26.8096 46.25 26.25 46.8096 26.25 47.5C26.25 48.1904 26.8096 48.75 27.5 48.75Z" fill="#966342"/>
<path d="M43.75 77.5H3.75C3.75027 75.0495 4.43893 72.6484 5.7375 70.5703L6.10157 69.9875C8.13484 66.7347 11.3047 64.3539 14.9953 63.3078C16.0483 64.6163 17.3813 65.6722 18.8961 66.3977C20.411 67.1232 22.0692 67.4998 23.7488 67.5C25.4285 67.5001 27.0868 67.1238 28.6017 66.3986C30.1167 65.6733 31.4499 64.6177 32.5031 63.3094C36.1947 64.3534 39.3656 66.734 41.3984 69.9875L41.7625 70.5703C43.0611 72.6484 43.7497 75.0495 43.75 77.5Z" fill="#C4D4E0"/>
<path d="M32.5032 63.3094C31.4499 64.6177 30.1168 65.6733 28.6018 66.3985C27.0868 67.1238 25.4285 67.5001 23.7489 67.5C22.0693 67.4998 20.411 67.1232 18.8962 66.3977C17.3813 65.6722 16.0484 64.6163 14.9954 63.3078C15.0782 63.2844 15.1626 63.261 15.2469 63.2391C15.9213 63.0585 16.6073 62.9243 17.3 62.8375C17.9343 62.7591 18.5282 62.4843 18.9985 62.0515C20.3385 63.1498 22.0175 63.75 23.7501 63.75C25.4826 63.75 27.1616 63.1498 28.5016 62.0515C28.9719 62.4843 29.5658 62.7591 30.2001 62.8375C30.8933 62.9241 31.5798 63.0583 32.2547 63.2391C32.3375 63.261 32.4204 63.2844 32.5032 63.3094Z" fill="#A6B2BC"/>
<path d="M18.75 77.4016V77.5H3.75C3.75027 75.0495 4.43893 72.6484 5.7375 70.5703L6.10157 69.9875C7.31928 68.0386 8.95644 66.386 10.8938 65.15C11.0109 65.075 11.1297 65.0016 11.25 64.9297C12.4956 64.1799 13.8413 63.6107 15.2469 63.2391L17.5 70L17.5953 70.286C18.3598 72.5804 18.7497 74.9831 18.75 77.4016Z" fill="#396795"/>
<path d="M17.5 70L11.25 71.25V64.9297C12.4956 64.1799 13.8413 63.6107 15.2469 63.2391L17.5 70Z" fill="#26507A"/>
<path d="M43.75 77.5H28.75V77.4016C28.7503 74.9831 29.1402 72.5804 29.9047 70.286L30 70L32.2547 63.2391C36.0494 64.2449 39.3188 66.6578 41.3984 69.9875L41.7625 70.5703C43.0611 72.6484 43.7497 75.0495 43.75 77.5Z" fill="#396795"/>
<path d="M36.25 64.9281V71.25L30 70L32.2547 63.2391C33.6589 63.6125 35.0038 64.181 36.25 64.9281Z" fill="#26507A"/>
<path d="M35 75H37.5V77.5H35V75Z" fill="#26507A"/>
<path d="M10 75H12.5V77.5H10V75Z" fill="#26507A"/>
<path d="M35 41.0359C35.0003 41.5003 34.909 41.9602 34.7312 42.3892C34.5535 42.8182 34.2928 43.2079 33.9641 43.5359L32.5 45L26.25 42.5L31.25 37.5H31.4641C31.9284 37.5 32.3883 37.5914 32.8173 37.7691C33.2463 37.9467 33.6361 38.2072 33.9645 38.5355C34.2928 38.8639 34.5533 39.2537 34.7309 39.6827C34.9086 40.1117 35.0001 40.5716 35 41.0359Z" fill="#966342"/>
<path d="M68.75 3.75H38.75C34.6079 3.75 31.25 7.10786 31.25 11.25V27.5C31.25 31.6421 34.6079 35 38.75 35H68.75C72.8921 35 76.25 31.6421 76.25 27.5V11.25C76.25 7.10786 72.8921 3.75 68.75 3.75Z" fill="#EEDC9A"/>
<path d="M48.75 40C50.8211 40 52.5 38.3211 52.5 36.25C52.5 34.1789 50.8211 32.5 48.75 32.5C46.6789 32.5 45 34.1789 45 36.25C45 38.3211 46.6789 40 48.75 40Z" fill="#EEDC9A"/>
<path d="M42.5 46.25C43.8807 46.25 45 45.1307 45 43.75C45 42.3693 43.8807 41.25 42.5 41.25C41.1193 41.25 40 42.3693 40 43.75C40 45.1307 41.1193 46.25 42.5 46.25Z" fill="#EEDC9A"/>
<path d="M47.5 13.75H61.25V30H47.5V13.75Z" fill="#8ACCE7"/>
<path d="M61.25 13.75H68.75V25H61.25V13.75Z" fill="#379EC3"/>
<path d="M63.75 17.5H66.25V20H63.75V17.5Z" fill="#8ACCE7"/>
<path d="M43.75 13.75H65L53.75 7.5L43.75 13.75Z" fill="#E44B4D"/>
<path d="M53.75 7.5H61.25L72.5 13.75H65L53.75 7.5Z" fill="#D14547"/>
<path d="M55 18.75H60V30H55V18.75Z" fill="#C4D4E0"/>
<path d="M58.75 25H70V30H58.75V25Z" fill="#4BA477"/>
<path d="M35 22.5H55V27.5H35V22.5Z" fill="#396795"/>
<path d="M50 30C51.3807 30 52.5 28.8807 52.5 27.5C52.5 26.1193 51.3807 25 50 25C48.6193 25 47.5 26.1193 47.5 27.5C47.5 28.8807 48.6193 30 50 30Z" fill="#2F4054"/>
<path d="M40 30C41.3807 30 42.5 28.8807 42.5 27.5C42.5 26.1193 41.3807 25 40 25C38.6193 25 37.5 26.1193 37.5 27.5C37.5 28.8807 38.6193 30 40 30Z" fill="#2F4054"/>
<path d="M46.25 22.5H38.75L41.25 17.5H48.75L46.25 22.5Z" fill="#AD7D4D"/>
<path d="M48.75 17.5H53.75V22.5H46.25L48.75 17.5Z" fill="#966342"/>
</svg>
