<svg width="150" height="150" viewBox="0 0 150 150" fill="none" xmlns="http://www.w3.org/2000/svg">
<g clip-path="url(#clip0)">
<path d="M132.815 143.437L78.7892 49.862C78.0077 48.5083 76.5632 47.6743 75 47.6743C73.4369 47.6743 71.9924 48.5083 71.2109 49.862L17.1854 143.437C16.4039 144.791 16.4039 146.459 17.1854 147.812C17.967 149.166 19.4115 150 20.9746 150H129.026C130.589 150 132.033 149.166 132.815 147.812C133.596 146.459 133.596 144.791 132.815 143.437Z" fill="#FFE666"/>
<path d="M78.7892 49.862C78.0077 48.5083 76.5631 47.6743 75 47.6743C74.9254 47.6743 74.851 47.6778 74.7766 47.6816V84.4898L77.7049 97.7853L74.7766 111.092V122.163L77.7049 126.984L74.7766 131.804V150H129.026C130.589 150 132.033 149.166 132.815 147.812C133.596 146.459 133.596 144.791 132.815 143.437L78.7892 49.862Z" fill="#FABE2C"/>
<path d="M75 84.4788C72.5836 84.4788 70.6246 86.4378 70.6246 88.8542V106.717C70.6246 109.134 72.5836 111.093 75 111.093C77.4164 111.093 79.3754 109.134 79.3754 106.717V88.8542C79.3754 86.4378 77.4164 84.4788 75 84.4788Z" fill="#FF6666"/>
<path d="M75 131.804C77.6621 131.804 79.8202 129.646 79.8202 126.984C79.8202 124.321 77.6621 122.163 75 122.163C72.3379 122.163 70.1798 124.321 70.1798 126.984C70.1798 129.646 72.3379 131.804 75 131.804Z" fill="#FF6666"/>
<path d="M100.206 49.7575C106.939 56.4902 110.646 65.4418 110.646 74.9634C110.646 77.3891 112.613 79.3557 115.039 79.3557H145.571C147.996 79.3557 149.963 77.3891 149.963 74.9634C149.963 54.9399 142.165 36.1148 128.007 21.9561L103.035 35.2152L100.206 49.7575Z" fill="#E62E6B"/>
<path d="M128.007 21.9561C113.848 7.79766 95.0234 0 75 0C54.9766 0 36.1514 7.79766 21.993 21.9561L27.6799 36.4281L49.7939 49.7575C56.5268 43.0249 65.4785 39.3168 75 39.3168C84.5215 39.3168 93.4729 43.0249 100.206 49.7575L128.007 21.9561Z" fill="#FABE2C"/>
<path d="M21.993 21.9561C7.83428 36.1148 0.0366211 54.9399 0.0366211 74.9634C0.0366211 77.3891 2.00324 79.3557 4.42901 79.3557H34.9611C37.3868 79.3557 39.3535 77.3891 39.3535 74.9634C39.3535 65.4415 43.0612 56.4902 49.7939 49.7575L21.993 21.9561Z" fill="#00DD80"/>
<path d="M75.4466 39.3222C84.8009 39.4364 93.5784 43.1304 100.206 49.7576L128.007 21.9564C113.954 7.90313 95.3031 0.120696 75.4466 0.00561523V39.3222Z" fill="#FF9100"/>
<path d="M75 122.163C74.9248 122.163 74.8513 122.171 74.7766 122.175V131.793C74.8513 131.796 74.9245 131.804 75 131.804C77.658 131.804 79.8202 129.642 79.8202 126.984C79.8202 124.326 77.6577 122.163 75 122.163Z" fill="#E62E6B"/>
<path d="M75 84.4788C74.9248 84.4788 74.8513 84.4864 74.7766 84.4902V111.081C74.851 111.085 74.9245 111.093 75 111.093C77.4164 111.093 79.3754 109.134 79.3754 106.717V88.8542C79.3754 86.4378 77.4164 84.4788 75 84.4788Z" fill="#E62E6B"/>
</g>
<defs>
<clipPath id="clip0">
<rect width="150" height="150" fill="white"/>
</clipPath>
</defs>
</svg>
