<svg width="83" height="84" viewBox="0 0 83 84" fill="none" xmlns="http://www.w3.org/2000/svg">
<rect x="0.5" y="0.75" width="82" height="82" rx="9.5" fill="white" stroke="#E2E4E8"/>
<path opacity="0.2" fill-rule="evenodd" clip-rule="evenodd" d="M31.0435 42.25C31.0435 48.2917 35.9583 53.2065 42 53.2065C48.0417 53.2065 52.9565 48.2917 52.9565 42.25C52.9565 36.2082 48.0417 31.2935 42 31.2935C35.9583 31.2935 31.0435 36.2082 31.0435 42.25ZM32.6087 42.25C32.6087 37.0715 36.8215 32.8587 42 32.8587C47.1785 32.8587 51.3913 37.0715 51.3913 42.25C51.3913 47.4285 47.1785 51.6413 42 51.6413C36.8215 51.6413 32.6087 47.4285 32.6087 42.25Z" fill="#8BBD43"/>
<path opacity="0.5" fill-rule="evenodd" clip-rule="evenodd" d="M42 45.3804C43.7289 45.3804 45.1304 43.9788 45.1304 42.2499C45.1304 40.5211 43.7289 39.1195 42 39.1195C40.2711 39.1195 38.8696 40.5211 38.8696 42.2499C38.8696 43.9788 40.2711 45.3804 42 45.3804Z" fill="#8BBD43"/>
<path fill-rule="evenodd" clip-rule="evenodd" d="M58.3346 34.683C57.919 35.003 57.4659 35.277 56.9776 35.4859C57.9253 37.5841 58.4348 39.881 58.4348 42.25C58.4348 51.3126 51.0626 58.6848 42 58.6848C32.9374 58.6848 25.5652 51.3126 25.5652 42.25C25.5652 33.1874 32.9374 25.8152 42 25.8152C45.1477 25.8152 48.221 26.7379 50.8505 28.4182C50.7034 28.8298 50.6087 29.2665 50.6087 29.7283C50.6087 31.8859 52.3641 33.6413 54.5217 33.6413C56.6794 33.6413 58.4348 31.8859 58.4348 29.7283C58.4348 27.5706 56.6794 25.8152 54.5217 25.8152C53.3885 25.8152 52.3743 26.3075 51.659 27.0799C48.7868 25.2525 45.4333 24.25 42 24.25C32.075 24.25 24 32.325 24 42.25C24 52.175 32.075 60.25 42 60.25C51.925 60.25 60 52.175 60 42.25C60 39.5962 59.4185 37.0222 58.3346 34.683Z" fill="#8BBD43"/>
</svg>
