<svg width="50" height="50" viewBox="0 0 50 50" fill="none" xmlns="http://www.w3.org/2000/svg">
<path d="M25.0977 8.88672C25.9073 8.88672 26.5625 8.23154 26.5625 7.42188V1.46484C26.5625 0.655176 25.9073 0 25.0977 0C24.288 0 23.6328 0.655176 23.6328 1.46484V7.42188C23.6328 8.23154 24.288 8.88672 25.0977 8.88672Z" fill="white"/>
<path d="M42.7299 7.39177C42.1578 6.8196 41.2307 6.8196 40.6585 7.39177L36.5158 11.5345C35.9436 12.1067 35.9436 13.0338 36.5158 13.6059C37.0879 14.1781 38.015 14.1781 38.5872 13.6059L42.7299 9.46316C43.3021 8.89089 43.3021 7.96394 42.7299 7.39177Z" fill="white"/>
<path d="M48.5351 23.5352H42.5781C41.7684 23.5352 41.1133 24.1903 41.1133 25C41.1133 25.8097 41.7684 26.4648 42.5781 26.4648H48.5351C49.3448 26.4648 50 25.8097 50 25C50 24.1903 49.3448 23.5352 48.5351 23.5352Z" fill="white"/>
<path d="M38.5872 36.394C38.015 35.8218 37.0879 35.8218 36.5158 36.394C35.9436 36.9661 35.9436 37.8932 36.5158 38.4654L40.6585 42.6082C41.2307 43.1803 42.1578 43.1803 42.7299 42.6082C43.3021 42.036 43.3021 41.1089 42.7299 40.5368L38.5872 36.394Z" fill="white"/>
<path d="M7.51348 7.39185C6.94131 7.96401 6.94131 8.89106 7.51348 9.46323L11.6562 13.606C12.2284 14.1782 13.1555 14.1782 13.7276 13.606C14.2998 13.0338 14.2998 12.1068 13.7276 11.5346L9.58486 7.39185C9.0127 6.81958 8.08574 6.81958 7.51348 7.39185Z" fill="white"/>
<path d="M2.50054 49.5708C3.07241 50.1427 3.99956 50.1432 4.57192 49.5708L9.5353 44.6089L13.143 48.2153C13.495 48.5672 14.0013 48.7102 14.4877 48.6116C14.977 48.5057 15.3747 48.1595 15.5492 47.6946L22.5047 29.3079C22.7079 28.77 22.5762 28.1634 22.17 27.7572C21.7637 27.3495 21.1629 27.2207 20.6193 27.421L2.2311 34.3765C1.7648 34.551 1.4186 34.9516 1.31558 35.4379C1.20972 35.9243 1.35845 36.4322 1.7104 36.784L5.3897 40.4647L0.429248 45.4266C-0.14292 45.9988 -0.14292 46.9258 0.429248 47.498L2.50054 49.5708Z" fill="white"/>
<path d="M29.3946 25C29.3946 22.5768 27.4234 20.6055 25.0001 20.6055C22.7673 20.6055 20.9385 22.2853 20.6617 24.4438C21.957 24.3014 23.2731 24.7128 24.2448 25.688C25.2161 26.658 25.635 28.017 25.4649 29.3475C27.6673 29.1118 29.3946 27.2642 29.3946 25Z" fill="white"/>
<path d="M25 38.1836C32.2698 38.1836 38.1836 32.2698 38.1836 25C38.1836 17.7302 32.2698 11.8164 25 11.8164C17.7302 11.8164 11.8164 17.7302 11.8164 25C11.8164 25.8553 11.9126 26.6873 12.0688 27.4977L17.7142 25.3811C17.7073 25.2523 17.6757 25.1306 17.6757 25C17.6757 20.9616 20.9602 17.6758 24.9999 17.6758C29.0396 17.6758 32.3241 20.9616 32.3241 25C32.3241 29.0384 29.0396 32.3242 24.9999 32.3242C24.8359 32.3242 24.6825 32.2865 24.5212 32.2758L22.4044 37.9213C23.2444 38.0897 24.1113 38.1836 25 38.1836Z" fill="white"/>
</svg>
