<svg width="50" height="50" viewBox="0 0 50 50" fill="none" xmlns="http://www.w3.org/2000/svg">
<g clip-path="url(#clip0)">
<path d="M25.5209 4.16667H23.2292C22.5417 1.77083 20.3334 0 17.7084 0C15.0834 0 12.875 1.77083 12.1875 4.16667H9.89587C9.04171 4.16667 8.33337 4.875 8.33337 5.72917V8.85417C8.33337 10.8542 9.97921 12.5 11.9792 12.5H23.4375C25.4375 12.5 27.0834 10.8542 27.0834 8.85417V5.72917C27.0834 4.875 26.375 4.16667 25.5209 4.16667Z" fill="white"/>
<path d="M29.6875 6.25H29.1667V8.85417C29.1667 12.0208 26.6042 14.5833 23.4375 14.5833H11.9792C8.8125 14.5833 6.25 12.0208 6.25 8.85417V6.25H5.72917C2.5625 6.25 0 8.8125 0 11.9792V38.0208C0 41.1875 2.5625 43.75 5.72917 43.75H19.4583C18.4167 41.5208 17.7917 39.0625 17.7292 36.4583H7.8125C6.95833 36.4583 6.25 35.75 6.25 34.8958C6.25 34.0417 6.95833 33.3333 7.8125 33.3333H17.8958C18.0833 32.0625 18.3958 30.8542 18.8125 29.6875H7.8125C6.95833 29.6875 6.25 28.9792 6.25 28.125C6.25 27.2708 6.95833 26.5625 7.8125 26.5625H20.3125C21.125 25.2292 22.0833 24 23.2083 22.9167H7.8125C6.95833 22.9167 6.25 22.2083 6.25 21.3542C6.25 20.5 6.95833 19.7917 7.8125 19.7917H27.4792C29.875 18.5417 32.5625 17.7917 35.4167 17.7292V11.9792C35.4167 8.8125 32.8542 6.25 29.6875 6.25Z" fill="white"/>
<path d="M35.9375 21.875C28.1833 21.875 21.875 28.1833 21.875 35.9375C21.875 43.6917 28.1833 50 35.9375 50C43.6917 50 50 43.6917 50 35.9375C50 28.1833 43.6917 21.875 35.9375 21.875ZM42.7125 33.1438L35.4208 41.4771C35.0417 41.9104 34.5 42.1687 33.9229 42.1875C33.9 42.1875 33.8771 42.1875 33.8542 42.1875C33.3021 42.1875 32.7729 41.9688 32.3813 41.5771L28.2146 37.4104C27.4 36.5958 27.4 35.2792 28.2146 34.4646C29.0292 33.65 30.3458 33.65 31.1604 34.4646L33.7521 37.0563L39.5771 30.3979C40.3354 29.5354 41.65 29.4437 42.5167 30.2021C43.3833 30.9604 43.4708 32.2771 42.7125 33.1438Z" fill="white"/>
</g>
<defs>
<clipPath id="clip0">
<rect width="50" height="50" fill="white"/>
</clipPath>
</defs>
</svg>
