<svg width="70" height="71" viewBox="0 0 70 71" fill="none" xmlns="http://www.w3.org/2000/svg">
<g filter="url(#filter0_d)">
<circle cx="34.8001" cy="22.6618" r="16.7999" fill="#F86F1F"/>
</g>
<path d="M34.8 5.86182C25.5215 5.86182 18 13.3833 18 22.6618C18 31.9403 25.5215 39.4618 34.8 39.4618C44.0785 39.4618 51.6 31.9403 51.6 22.6618C51.6 13.3833 44.0785 5.86182 34.8 5.86182ZM38.7795 17.4713H36.2543C35.955 17.4713 35.6225 17.8651 35.6225 18.3883V20.2118H38.7813L38.3035 22.8123H35.6225V30.6191H32.6423V22.8123H29.9385V20.2118H32.6423V18.6823C32.6423 16.4878 34.1648 14.7046 36.2543 14.7046H38.7795V17.4713Z" fill="white"/>
<defs>
<filter id="filter0_d" x="0.00012207" y="0.861816" width="69.5999" height="69.5999" filterUnits="userSpaceOnUse" color-interpolation-filters="sRGB">
<feFlood flood-opacity="0" result="BackgroundImageFix"/>
<feColorMatrix in="SourceAlpha" type="matrix" values="0 0 0 0 0 0 0 0 0 0 0 0 0 0 0 0 0 0 127 0"/>
<feOffset dy="13"/>
<feGaussianBlur stdDeviation="9"/>
<feColorMatrix type="matrix" values="0 0 0 0 0.0658854 0 0 0 0 0.0730469 0 0 0 0 0.1375 0 0 0 0.08 0"/>
<feBlend mode="normal" in2="BackgroundImageFix" result="effect1_dropShadow"/>
<feBlend mode="normal" in="SourceGraphic" in2="effect1_dropShadow" result="shape"/>
</filter>
</defs>
</svg>
