<svg width="70" height="71" viewBox="0 0 70 71" fill="none" xmlns="http://www.w3.org/2000/svg">
<g filter="url(#filter0_d)">
<circle cx="35.0003" cy="22.6618" r="16.7999" fill="#F86F1F"/>
</g>
<path d="M40.2502 22.6618C40.2502 24.0542 39.6971 25.3896 38.7125 26.3741C37.7279 27.3587 36.3926 27.9118 35.0002 27.9118C33.6078 27.9118 32.2725 27.3587 31.2879 26.3741C30.3033 25.3896 29.7502 24.0542 29.7502 22.6618C29.7502 22.3626 29.7817 22.0703 29.8359 21.7868H28.0002V28.7816C28.0002 29.2681 28.3939 29.6618 28.8804 29.6618H41.1217C41.3549 29.6614 41.5783 29.5684 41.743 29.4034C41.9077 29.2384 42.0002 29.0147 42.0002 28.7816V21.7868H40.1644C40.2187 22.0703 40.2502 22.3626 40.2502 22.6618ZM35.0002 26.1618C35.4599 26.1617 35.9152 26.071 36.3399 25.895C36.7646 25.719 37.1504 25.461 37.4754 25.1358C37.8004 24.8106 38.0582 24.4247 38.234 23.9999C38.4099 23.5751 38.5003 23.1198 38.5002 22.6601C38.5001 22.2003 38.4094 21.7451 38.2334 21.3204C38.0573 20.8957 37.7994 20.5098 37.4742 20.1848C37.149 19.8598 36.763 19.6021 36.3382 19.4262C35.9135 19.2504 35.4582 19.16 34.9984 19.1601C34.07 19.1603 33.1796 19.5294 32.5232 20.1861C31.8668 20.8428 31.4982 21.7333 31.4984 22.6618C31.4987 23.5903 31.8677 24.4807 32.5244 25.1371C33.1812 25.7934 34.0717 26.1621 35.0002 26.1618ZM39.2002 18.9868H41.2984C41.4378 18.9868 41.5716 18.9316 41.6703 18.8332C41.769 18.7347 41.8247 18.6012 41.8252 18.4618V16.3636C41.8252 16.2239 41.7697 16.0899 41.6709 15.9911C41.5721 15.8923 41.4382 15.8368 41.2984 15.8368H39.2002C39.0605 15.8368 38.9265 15.8923 38.8277 15.9911C38.7289 16.0899 38.6734 16.2239 38.6734 16.3636V18.4618C38.6752 18.7506 38.9114 18.9868 39.2002 18.9868ZM35.0002 5.86182C30.5446 5.86182 26.2714 7.63181 23.1208 10.7824C19.9702 13.933 18.2002 18.2062 18.2002 22.6618C18.2002 27.1175 19.9702 31.3906 23.1208 34.5412C26.2714 37.6918 30.5446 39.4618 35.0002 39.4618C37.2064 39.4618 39.391 39.0273 41.4293 38.183C43.4676 37.3387 45.3196 36.1012 46.8796 34.5412C48.4396 32.9812 49.6771 31.1292 50.5214 29.0909C51.3657 27.0526 51.8002 24.868 51.8002 22.6618C51.8002 20.4556 51.3657 18.271 50.5214 16.2327C49.6771 14.1945 48.4396 12.3424 46.8796 10.7824C45.3196 9.2224 43.4676 7.98492 41.4293 7.14064C39.391 6.29636 37.2064 5.86182 35.0002 5.86182ZM43.7502 29.4676C43.7502 30.5368 42.8752 31.4118 41.8059 31.4118H28.1944C27.1252 31.4118 26.2502 30.5368 26.2502 29.4676V15.8561C26.2502 14.7868 27.1252 13.9118 28.1944 13.9118H41.8059C42.8752 13.9118 43.7502 14.7868 43.7502 15.8561V29.4676Z" fill="white"/>
<defs>
<filter id="filter0_d" x="0.200317" y="0.861816" width="69.5999" height="69.5999" filterUnits="userSpaceOnUse" color-interpolation-filters="sRGB">
<feFlood flood-opacity="0" result="BackgroundImageFix"/>
<feColorMatrix in="SourceAlpha" type="matrix" values="0 0 0 0 0 0 0 0 0 0 0 0 0 0 0 0 0 0 127 0"/>
<feOffset dy="13"/>
<feGaussianBlur stdDeviation="9"/>
<feColorMatrix type="matrix" values="0 0 0 0 0.0658854 0 0 0 0 0.0730469 0 0 0 0 0.1375 0 0 0 0.08 0"/>
<feBlend mode="normal" in2="BackgroundImageFix" result="effect1_dropShadow"/>
<feBlend mode="normal" in="SourceGraphic" in2="effect1_dropShadow" result="shape"/>
</filter>
</defs>
</svg>
