<svg width="71" height="71" viewBox="0 0 71 71" fill="none" xmlns="http://www.w3.org/2000/svg">
<g filter="url(#filter0_d)">
<circle cx="35.3997" cy="22.6618" r="16.7999" fill="#F86F1F"/>
</g>
<path d="M35.3996 5.86182C26.1211 5.86182 18.5996 13.3833 18.5996 22.6618C18.5996 31.9403 26.1211 39.4618 35.3996 39.4618C44.6781 39.4618 52.1996 31.9403 52.1996 22.6618C52.1996 13.3833 44.6781 5.86182 35.3996 5.86182ZM42.2334 19.6238C42.2404 19.7673 42.2421 19.9108 42.2421 20.0508C42.2421 24.4258 38.9154 29.4676 32.8289 29.4676C31.0304 29.4706 29.2693 28.954 27.7574 27.9801C28.0146 28.0116 28.2789 28.0238 28.5466 28.0238C30.0971 28.0238 31.5234 27.4971 32.6556 26.6081C31.9656 26.5945 31.297 26.366 30.7431 25.9545C30.1891 25.5429 29.7773 24.9688 29.5651 24.3121C30.0606 24.4063 30.5711 24.3865 31.0579 24.2543C30.3089 24.1029 29.6355 23.6971 29.1516 23.1057C28.6677 22.5144 28.4033 21.7739 28.4031 21.0098V20.9696C28.8494 21.2163 29.3604 21.3668 29.9029 21.3843C29.2008 20.9169 28.7037 20.199 28.5134 19.3773C28.3231 18.5556 28.454 17.6923 28.8791 16.9638C29.7103 17.9858 30.7468 18.8219 31.9216 19.4179C33.0964 20.0138 34.3833 20.3565 35.6989 20.4236C35.5316 19.7136 35.6036 18.9683 35.9036 18.3035C36.2037 17.6386 36.7149 17.0916 37.358 16.7473C38.001 16.403 38.7398 16.2808 39.4594 16.3997C40.1791 16.5187 40.8393 16.872 41.3374 17.4048C42.0779 17.2583 42.7881 16.9867 43.4374 16.6016C43.1905 17.3683 42.6738 18.0194 41.9831 18.4338C42.6391 18.3548 43.2796 18.1785 43.8836 17.9106C43.44 18.5754 42.8811 19.1556 42.2334 19.6238Z" fill="white"/>
<defs>
<filter id="filter0_d" x="0.599731" y="0.861816" width="69.5999" height="69.5999" filterUnits="userSpaceOnUse" color-interpolation-filters="sRGB">
<feFlood flood-opacity="0" result="BackgroundImageFix"/>
<feColorMatrix in="SourceAlpha" type="matrix" values="0 0 0 0 0 0 0 0 0 0 0 0 0 0 0 0 0 0 127 0"/>
<feOffset dy="13"/>
<feGaussianBlur stdDeviation="9"/>
<feColorMatrix type="matrix" values="0 0 0 0 0.0658854 0 0 0 0 0.0730469 0 0 0 0 0.1375 0 0 0 0.08 0"/>
<feBlend mode="normal" in2="BackgroundImageFix" result="effect1_dropShadow"/>
<feBlend mode="normal" in="SourceGraphic" in2="effect1_dropShadow" result="shape"/>
</filter>
</defs>
</svg>
