<svg width="148" height="149" viewBox="0 0 148 149" fill="none" xmlns="http://www.w3.org/2000/svg">
<g filter="url(#filter0_d)">
<circle cx="74" cy="60.5342" r="30" fill="#8BBD43"/>
<circle cx="74" cy="60.5342" r="29" stroke="#8BBD43" stroke-width="2"/>
</g>
<path d="M65.25 59.2842H80.075L75.5375 53.8342C75.3253 53.5789 75.2232 53.2498 75.2537 52.9193C75.2842 52.5887 75.4447 52.2838 75.7 52.0717C75.9553 51.8595 76.2844 51.7574 76.6149 51.7879C76.9454 51.8184 77.2503 51.9789 77.4625 52.2342L83.7125 59.7342C83.7545 59.7938 83.7922 59.8565 83.825 59.9217C83.825 59.9842 83.825 60.0217 83.9125 60.0842C83.9692 60.2275 83.9988 60.38 84 60.5342C83.9988 60.6883 83.9692 60.8408 83.9125 60.9842C83.9125 61.0467 83.9125 61.0842 83.825 61.1467C83.7922 61.2118 83.7545 61.2745 83.7125 61.3342L77.4625 68.8342C77.345 68.9753 77.1978 69.0887 77.0314 69.1665C76.8651 69.2443 76.6836 69.2845 76.5 69.2842C76.2079 69.2847 75.9249 69.183 75.7 68.9967C75.5734 68.8917 75.4688 68.7628 75.3921 68.6174C75.3154 68.472 75.2682 68.3128 75.2531 68.1491C75.238 67.9854 75.2553 67.8203 75.3041 67.6633C75.3529 67.5063 75.4322 67.3605 75.5375 67.2342L80.075 61.7842H65.25C64.9185 61.7842 64.6005 61.6525 64.3661 61.418C64.1317 61.1836 64 60.8657 64 60.5342C64 60.2026 64.1317 59.8847 64.3661 59.6503C64.6005 59.4159 64.9185 59.2842 65.25 59.2842Z" fill="white"/>
<defs>
<filter id="filter0_d" x="0" y="0.53418" width="148" height="148" filterUnits="userSpaceOnUse" color-interpolation-filters="sRGB">
<feFlood flood-opacity="0" result="BackgroundImageFix"/>
<feColorMatrix in="SourceAlpha" type="matrix" values="0 0 0 0 0 0 0 0 0 0 0 0 0 0 0 0 0 0 127 0"/>
<feOffset dy="14"/>
<feGaussianBlur stdDeviation="22"/>
<feColorMatrix type="matrix" values="0 0 0 0 0.0561111 0 0 0 0 0.0777333 0 0 0 0 0.133333 0 0 0 0.08 0"/>
<feBlend mode="normal" in2="BackgroundImageFix" result="effect1_dropShadow"/>
<feBlend mode="normal" in="SourceGraphic" in2="effect1_dropShadow" result="shape"/>
</filter>
</defs>
</svg>
